<?xml version="1.0" encoding="utf-8"?>
<!-- Generator: Adobe Illustrator 23.0.0, SVG Export Plug-In . SVG Version: 6.00 Build 0)  -->
<svg version="1.1" id="Capa_1" xmlns="http://www.w3.org/2000/svg" xmlns:xlink="http://www.w3.org/1999/xlink" x="0px" y="0px"
	 viewBox="0 0 300 300" style="enable-background:new 0 0 300 300;" xml:space="preserve">
<style type="text/css">
	.st0{fill:url(#SVGID_1_);}
	.st1{fill:url(#SVGID_2_);}
	.st2{fill:url(#SVGID_3_);}
	.st3{fill:url(#SVGID_4_);}
	.st4{fill:url(#SVGID_5_);}
	.st5{fill:url(#SVGID_6_);}
	.st6{fill:url(#SVGID_7_);}
	.st7{fill:url(#SVGID_8_);}
	.st8{fill:url(#SVGID_9_);}
	.st9{fill:url(#SVGID_10_);}
	.st10{fill:url(#SVGID_11_);}
	.st11{fill:url(#SVGID_12_);}
	.st12{fill:url(#SVGID_13_);}
	.st13{fill:url(#SVGID_14_);}
	.st14{fill:url(#SVGID_15_);}
	.st15{fill:url(#SVGID_16_);}
	.st16{fill:url(#SVGID_17_);}
	.st17{fill:url(#SVGID_18_);}
	.st18{fill:url(#SVGID_19_);}
	.st19{fill:url(#SVGID_20_);}
	.st20{fill:url(#SVGID_21_);}
	.st21{fill:url(#SVGID_22_);}
	.st22{fill:url(#SVGID_23_);}
	.st23{fill:url(#SVGID_24_);}
	.st24{fill:url(#SVGID_25_);}
	.st25{fill:url(#SVGID_26_);}
	.st26{fill:url(#SVGID_27_);}
	.st27{fill:url(#SVGID_28_);}
	.st28{fill:url(#SVGID_29_);}
	.st29{fill:url(#SVGID_30_);}
	.st30{fill:url(#SVGID_31_);}
	.st31{fill:url(#SVGID_32_);}
	.st32{fill:url(#SVGID_33_);}
	.st33{fill:url(#SVGID_34_);}
	.st34{fill:url(#SVGID_35_);}
	.st35{fill:url(#SVGID_36_);}
	.st36{fill:url(#SVGID_37_);}
	.st37{fill:url(#SVGID_38_);}
	.st38{fill:url(#SVGID_39_);}
	.st39{fill:url(#SVGID_40_);}
	.st40{fill:url(#SVGID_41_);}
	.st41{fill:url(#SVGID_42_);}
	.st42{fill:url(#SVGID_43_);}
	.st43{fill:url(#SVGID_44_);}
	.st44{fill:url(#SVGID_45_);}
	.st45{fill:url(#SVGID_46_);}
	.st46{fill:url(#SVGID_47_);}
	.st47{fill:url(#SVGID_48_);}
	.st48{fill:url(#SVGID_49_);}
	.st49{fill:url(#SVGID_50_);}
	.st50{fill:url(#SVGID_51_);}
	.st51{fill:url(#SVGID_52_);}
	.st52{fill:url(#SVGID_53_);}
	.st53{fill:url(#SVGID_54_);}
	.st54{fill:url(#SVGID_55_);}
	.st55{fill:url(#SVGID_56_);}
	.st56{fill:url(#SVGID_57_);}
	.st57{fill:url(#SVGID_58_);}
	.st58{fill:url(#SVGID_59_);}
	.st59{fill:url(#SVGID_60_);}
	.st60{fill:url(#SVGID_61_);}
	.st61{fill:url(#SVGID_62_);}
	.st62{fill:none;}
	.st63{fill:url(#SVGID_63_);}
	.st64{fill:url(#SVGID_64_);}
</style>
<g>
	<linearGradient id="SVGID_1_" gradientUnits="userSpaceOnUse" x1="147" y1="10" x2="165" y2="10">
		<stop  offset="0" style="stop-color:#CCE0F4"/>
		<stop  offset="0.0641" style="stop-color:#C3DCF2"/>
		<stop  offset="0.1706" style="stop-color:#A9D2EE"/>
		<stop  offset="0.3066" style="stop-color:#80C2E7"/>
		<stop  offset="0.4649" style="stop-color:#47ACDE"/>
		<stop  offset="0.5674" style="stop-color:#1E9CD7"/>
		<stop  offset="0.8652" style="stop-color:#0075BE"/>
		<stop  offset="0.9944" style="stop-color:#005B97"/>
	</linearGradient>
	<circle class="st0" cx="156" cy="10" r="9"/>
	<linearGradient id="SVGID_2_" gradientUnits="userSpaceOnUse" x1="147" y1="10" x2="165" y2="10">
		<stop  offset="0" style="stop-color:#CCE0F4"/>
		<stop  offset="0.0641" style="stop-color:#C3DCF2"/>
		<stop  offset="0.1706" style="stop-color:#A9D2EE"/>
		<stop  offset="0.3066" style="stop-color:#80C2E7"/>
		<stop  offset="0.4649" style="stop-color:#47ACDE"/>
		<stop  offset="0.5674" style="stop-color:#1E9CD7"/>
		<stop  offset="0.8652" style="stop-color:#0075BE"/>
		<stop  offset="0.9944" style="stop-color:#005B97"/>
	</linearGradient>
	<path class="st1" d="M156,2c4.41,0,8,3.59,8,8s-3.59,8-8,8s-8-3.59-8-8S151.59,2,156,2 M156,1c-4.97,0-9,4.03-9,9s4.03,9,9,9
		s9-4.03,9-9S160.97,1,156,1L156,1z"/>
</g>
<g>
	<linearGradient id="SVGID_3_" gradientUnits="userSpaceOnUse" x1="169" y1="12.5" x2="182" y2="12.5">
		<stop  offset="0" style="stop-color:#FFFFFF"/>
		<stop  offset="1" style="stop-color:#000000"/>
	</linearGradient>
	<circle class="st2" cx="175.5" cy="12.5" r="6.5"/>
	<linearGradient id="SVGID_4_" gradientUnits="userSpaceOnUse" x1="169" y1="12.5" x2="182" y2="12.5">
		<stop  offset="0" style="stop-color:#FFFFFF"/>
		<stop  offset="1" style="stop-color:#000000"/>
	</linearGradient>
	<path class="st3" d="M175.5,7c3.03,0,5.5,2.47,5.5,5.5s-2.47,5.5-5.5,5.5s-5.5-2.47-5.5-5.5S172.47,7,175.5,7 M175.5,6
		c-3.59,0-6.5,2.91-6.5,6.5s2.91,6.5,6.5,6.5s6.5-2.91,6.5-6.5S179.09,6,175.5,6L175.5,6z"/>
</g>
<g>
	<linearGradient id="SVGID_5_" gradientUnits="userSpaceOnUse" x1="186" y1="15.5" x2="199" y2="15.5">
		<stop  offset="0" style="stop-color:#FFFFFF"/>
		<stop  offset="1" style="stop-color:#000000"/>
	</linearGradient>
	<circle class="st4" cx="192.5" cy="15.5" r="6.5"/>
	<linearGradient id="SVGID_6_" gradientUnits="userSpaceOnUse" x1="186" y1="15.5" x2="199" y2="15.5">
		<stop  offset="0" style="stop-color:#FFFFFF"/>
		<stop  offset="1" style="stop-color:#000000"/>
	</linearGradient>
	<path class="st5" d="M192.5,10c3.03,0,5.5,2.47,5.5,5.5s-2.47,5.5-5.5,5.5s-5.5-2.47-5.5-5.5S189.47,10,192.5,10 M192.5,9
		c-3.59,0-6.5,2.91-6.5,6.5s2.91,6.5,6.5,6.5s6.5-2.91,6.5-6.5S196.09,9,192.5,9L192.5,9z"/>
</g>
<g>
	<linearGradient id="SVGID_7_" gradientUnits="userSpaceOnUse" x1="235.77" y1="42.19" x2="248.77" y2="42.19">
		<stop  offset="0" style="stop-color:#FFFFFF"/>
		<stop  offset="1" style="stop-color:#000000"/>
	</linearGradient>
	<circle class="st6" cx="242.27" cy="42.19" r="6.5"/>
	<linearGradient id="SVGID_8_" gradientUnits="userSpaceOnUse" x1="235.77" y1="42.19" x2="248.77" y2="42.19">
		<stop  offset="0" style="stop-color:#FFFFFF"/>
		<stop  offset="1" style="stop-color:#000000"/>
	</linearGradient>
	<path class="st7" d="M242.27,36.69c3.03,0,5.5,2.47,5.5,5.5s-2.47,5.5-5.5,5.5s-5.5-2.47-5.5-5.5S239.24,36.69,242.27,36.69
		 M242.27,35.69c-3.59,0-6.5,2.91-6.5,6.5s2.91,6.5,6.5,6.5s6.5-2.91,6.5-6.5S245.86,35.69,242.27,35.69L242.27,35.69z"/>
</g>
<g>
	<linearGradient id="SVGID_9_" gradientUnits="userSpaceOnUse" x1="263" y1="73.5" x2="276" y2="73.5">
		<stop  offset="0" style="stop-color:#FFFFFF"/>
		<stop  offset="1" style="stop-color:#000000"/>
	</linearGradient>
	<circle class="st8" cx="269.5" cy="73.5" r="6.5"/>
	<linearGradient id="SVGID_10_" gradientUnits="userSpaceOnUse" x1="263" y1="73.5" x2="276" y2="73.5">
		<stop  offset="0" style="stop-color:#FFFFFF"/>
		<stop  offset="1" style="stop-color:#000000"/>
	</linearGradient>
	<path class="st9" d="M269.5,68c3.03,0,5.5,2.47,5.5,5.5s-2.47,5.5-5.5,5.5s-5.5-2.47-5.5-5.5S266.47,68,269.5,68 M269.5,67
		c-3.59,0-6.5,2.91-6.5,6.5s2.91,6.5,6.5,6.5s6.5-2.91,6.5-6.5S273.09,67,269.5,67L269.5,67z"/>
</g>
<g>
	<linearGradient id="SVGID_11_" gradientUnits="userSpaceOnUse" x1="247.77" y1="57" x2="265.77" y2="57">
		<stop  offset="0" style="stop-color:#CCE0F4"/>
		<stop  offset="0.0641" style="stop-color:#C3DCF2"/>
		<stop  offset="0.1706" style="stop-color:#A9D2EE"/>
		<stop  offset="0.3066" style="stop-color:#80C2E7"/>
		<stop  offset="0.4649" style="stop-color:#47ACDE"/>
		<stop  offset="0.5674" style="stop-color:#1E9CD7"/>
		<stop  offset="0.8652" style="stop-color:#0075BE"/>
		<stop  offset="0.9944" style="stop-color:#005B97"/>
	</linearGradient>
	<circle class="st10" cx="256.77" cy="57" r="9"/>
	<linearGradient id="SVGID_12_" gradientUnits="userSpaceOnUse" x1="247.77" y1="57" x2="265.77" y2="57">
		<stop  offset="0" style="stop-color:#CCE0F4"/>
		<stop  offset="0.0641" style="stop-color:#C3DCF2"/>
		<stop  offset="0.1706" style="stop-color:#A9D2EE"/>
		<stop  offset="0.3066" style="stop-color:#80C2E7"/>
		<stop  offset="0.4649" style="stop-color:#47ACDE"/>
		<stop  offset="0.5674" style="stop-color:#1E9CD7"/>
		<stop  offset="0.8652" style="stop-color:#0075BE"/>
		<stop  offset="0.9944" style="stop-color:#005B97"/>
	</linearGradient>
	<path class="st11" d="M256.77,49c4.41,0,8,3.59,8,8s-3.59,8-8,8s-8-3.59-8-8S252.36,49,256.77,49 M256.77,48c-4.97,0-9,4.03-9,9
		s4.03,9,9,9s9-4.03,9-9S261.74,48,256.77,48L256.77,48z"/>
</g>
<g>
	<linearGradient id="SVGID_13_" gradientUnits="userSpaceOnUse" x1="270" y1="91" x2="288" y2="91">
		<stop  offset="0" style="stop-color:#CCE0F4"/>
		<stop  offset="0.0641" style="stop-color:#C3DCF2"/>
		<stop  offset="0.1706" style="stop-color:#A9D2EE"/>
		<stop  offset="0.3066" style="stop-color:#80C2E7"/>
		<stop  offset="0.4649" style="stop-color:#47ACDE"/>
		<stop  offset="0.5674" style="stop-color:#1E9CD7"/>
		<stop  offset="0.8652" style="stop-color:#0075BE"/>
		<stop  offset="0.9944" style="stop-color:#005B97"/>
	</linearGradient>
	<circle class="st12" cx="279" cy="91" r="9"/>
	<linearGradient id="SVGID_14_" gradientUnits="userSpaceOnUse" x1="270" y1="91" x2="288" y2="91">
		<stop  offset="0" style="stop-color:#CCE0F4"/>
		<stop  offset="0.0641" style="stop-color:#C3DCF2"/>
		<stop  offset="0.1706" style="stop-color:#A9D2EE"/>
		<stop  offset="0.3066" style="stop-color:#80C2E7"/>
		<stop  offset="0.4649" style="stop-color:#47ACDE"/>
		<stop  offset="0.5674" style="stop-color:#1E9CD7"/>
		<stop  offset="0.8652" style="stop-color:#0075BE"/>
		<stop  offset="0.9944" style="stop-color:#005B97"/>
	</linearGradient>
	<path class="st13" d="M279,83c4.41,0,8,3.59,8,8s-3.59,8-8,8s-8-3.59-8-8S274.59,83,279,83 M279,82c-4.97,0-9,4.03-9,9s4.03,9,9,9
		s9-4.03,9-9S283.97,82,279,82L279,82z"/>
</g>
<g>
	<linearGradient id="SVGID_15_" gradientUnits="userSpaceOnUse" x1="133.33" y1="289.65" x2="151.33" y2="289.65">
		<stop  offset="0" style="stop-color:#CCE0F4"/>
		<stop  offset="0.0641" style="stop-color:#C3DCF2"/>
		<stop  offset="0.1706" style="stop-color:#A9D2EE"/>
		<stop  offset="0.3066" style="stop-color:#80C2E7"/>
		<stop  offset="0.4649" style="stop-color:#47ACDE"/>
		<stop  offset="0.5674" style="stop-color:#1E9CD7"/>
		<stop  offset="0.8652" style="stop-color:#0075BE"/>
		<stop  offset="0.9944" style="stop-color:#005B97"/>
	</linearGradient>
	<circle class="st14" cx="142.33" cy="289.65" r="9"/>
	<linearGradient id="SVGID_16_" gradientUnits="userSpaceOnUse" x1="133.3282" y1="289.65" x2="151.3318" y2="289.65">
		<stop  offset="0" style="stop-color:#CCE0F4"/>
		<stop  offset="0.0641" style="stop-color:#C3DCF2"/>
		<stop  offset="0.1706" style="stop-color:#A9D2EE"/>
		<stop  offset="0.3066" style="stop-color:#80C2E7"/>
		<stop  offset="0.4649" style="stop-color:#47ACDE"/>
		<stop  offset="0.5674" style="stop-color:#1E9CD7"/>
		<stop  offset="0.8652" style="stop-color:#0075BE"/>
		<stop  offset="0.9944" style="stop-color:#005B97"/>
	</linearGradient>
	<path class="st15" d="M142.33,280.65v1h0.16c4.41,0.08,7.93,3.74,7.85,8.15c-0.08,4.33-3.67,7.85-8,7.85h-0.16
		c-2.14-0.04-4.13-0.91-5.61-2.45s-2.28-3.56-2.23-5.7c0.08-4.33,3.67-7.85,8-7.85L142.33,280.65 M142.32,280.65
		c-4.89,0-8.9,3.92-8.99,8.83c-0.1,4.97,3.86,9.08,8.83,9.17c0.06,0,0.12,0,0.18,0c4.89,0,8.9-3.92,8.99-8.83
		c0.1-4.97-3.86-9.08-8.83-9.17C142.44,280.65,142.38,280.65,142.32,280.65L142.32,280.65z"/>
</g>
<g>
	<linearGradient id="SVGID_17_" gradientUnits="userSpaceOnUse" x1="118.32" y1="288.14" x2="131.32" y2="288.14">
		<stop  offset="0" style="stop-color:#FFFFFF"/>
		<stop  offset="1" style="stop-color:#000000"/>
	</linearGradient>
	<circle class="st16" cx="124.82" cy="288.14" r="6.5"/>
	<linearGradient id="SVGID_18_" gradientUnits="userSpaceOnUse" x1="118.3187" y1="288.14" x2="131.3213" y2="288.14">
		<stop  offset="0" style="stop-color:#FFFFFF"/>
		<stop  offset="1" style="stop-color:#000000"/>
	</linearGradient>
	<path class="st17" d="M124.82,282.64L124.82,282.64h0.11c1.47,0.03,2.84,0.63,3.86,1.69c1.02,1.06,1.56,2.45,1.54,3.92
		c-0.06,2.97-2.52,5.39-5.5,5.39h-0.11c-3.03-0.06-5.45-2.57-5.39-5.6C119.38,285.06,121.85,282.64,124.82,282.64 M124.82,281.64
		c-3.53,0-6.43,2.83-6.5,6.38c-0.07,3.59,2.79,6.55,6.37,6.62c0.04,0,0.08,0,0.13,0c3.53,0,6.43-2.83,6.5-6.38
		c0.07-3.59-2.79-6.55-6.37-6.62C124.9,281.64,124.86,281.64,124.82,281.64L124.82,281.64z"/>
</g>
<g>
	<linearGradient id="SVGID_19_" gradientUnits="userSpaceOnUse" x1="81.51" y1="277.76" x2="99.51" y2="277.76">
		<stop  offset="0" style="stop-color:#CCE0F4"/>
		<stop  offset="0.0641" style="stop-color:#C3DCF2"/>
		<stop  offset="0.1706" style="stop-color:#A9D2EE"/>
		<stop  offset="0.3066" style="stop-color:#80C2E7"/>
		<stop  offset="0.4649" style="stop-color:#47ACDE"/>
		<stop  offset="0.5674" style="stop-color:#1E9CD7"/>
		<stop  offset="0.8652" style="stop-color:#0075BE"/>
		<stop  offset="0.9944" style="stop-color:#005B97"/>
	</linearGradient>
	<circle class="st18" cx="90.51" cy="277.76" r="9"/>
	<linearGradient id="SVGID_20_" gradientUnits="userSpaceOnUse" x1="81.5182" y1="277.76" x2="99.5219" y2="277.76">
		<stop  offset="0" style="stop-color:#CCE0F4"/>
		<stop  offset="0.0641" style="stop-color:#C3DCF2"/>
		<stop  offset="0.1706" style="stop-color:#A9D2EE"/>
		<stop  offset="0.3066" style="stop-color:#80C2E7"/>
		<stop  offset="0.4649" style="stop-color:#47ACDE"/>
		<stop  offset="0.5674" style="stop-color:#1E9CD7"/>
		<stop  offset="0.8652" style="stop-color:#0075BE"/>
		<stop  offset="0.9944" style="stop-color:#005B97"/>
	</linearGradient>
	<path class="st19" d="M90.51,269.76L90.51,269.76h0.16c2.14,0.04,4.13,0.91,5.61,2.45s2.28,3.56,2.23,5.7
		c-0.08,4.33-3.67,7.85-8,7.85h-0.16c-2.14-0.04-4.13-0.91-5.61-2.45s-2.28-3.56-2.23-5.7C82.59,273.28,86.18,269.76,90.51,269.76
		 M90.51,268.76c-4.89,0-8.9,3.92-8.99,8.83c-0.1,4.97,3.86,9.08,8.83,9.17c0.06,0,0.12,0,0.18,0c4.89,0,8.9-3.92,8.99-8.83
		c0.1-4.97-3.86-9.08-8.83-9.17C90.62,268.76,90.57,268.76,90.51,268.76L90.51,268.76z"/>
</g>
<g>
	<linearGradient id="SVGID_21_" gradientUnits="userSpaceOnUse" x1="101.38" y1="284.26" x2="114.38" y2="284.26">
		<stop  offset="0" style="stop-color:#FFFFFF"/>
		<stop  offset="1" style="stop-color:#000000"/>
	</linearGradient>
	<circle class="st20" cx="107.88" cy="284.26" r="6.5"/>
	<linearGradient id="SVGID_22_" gradientUnits="userSpaceOnUse" x1="101.3787" y1="284.26" x2="114.3813" y2="284.26">
		<stop  offset="0" style="stop-color:#FFFFFF"/>
		<stop  offset="1" style="stop-color:#000000"/>
	</linearGradient>
	<path class="st21" d="M107.88,278.76L107.88,278.76h0.11c3.03,0.06,5.45,2.57,5.39,5.6c-0.06,2.97-2.52,5.39-5.5,5.39h-0.11
		c-3.03-0.06-5.45-2.57-5.39-5.6C102.44,281.18,104.91,278.76,107.88,278.76 M107.88,277.76c-3.53,0-6.43,2.83-6.5,6.38
		c-0.07,3.59,2.79,6.55,6.37,6.62c0.04,0,0.08,0,0.13,0c3.53,0,6.43-2.83,6.5-6.38c0.07-3.59-2.79-6.55-6.37-6.62
		C107.96,277.76,107.92,277.76,107.88,277.76L107.88,277.76z"/>
</g>
<g>
	<linearGradient id="SVGID_23_" gradientUnits="userSpaceOnUse" x1="50.85" y1="254.73" x2="63.85" y2="254.73">
		<stop  offset="0" style="stop-color:#FFFFFF"/>
		<stop  offset="1" style="stop-color:#000000"/>
	</linearGradient>
	<circle class="st22" cx="57.35" cy="254.73" r="6.5"/>
	<linearGradient id="SVGID_24_" gradientUnits="userSpaceOnUse" x1="50.8487" y1="254.73" x2="63.8513" y2="254.73">
		<stop  offset="0" style="stop-color:#FFFFFF"/>
		<stop  offset="1" style="stop-color:#000000"/>
	</linearGradient>
	<path class="st23" d="M57.35,249.23L57.35,249.23h0.11c3.03,0.06,5.45,2.57,5.39,5.6c-0.06,2.97-2.52,5.39-5.5,5.39h-0.11
		c-3.03-0.06-5.45-2.57-5.39-5.6C51.91,251.65,54.38,249.23,57.35,249.23 M57.35,248.23c-3.53,0-6.43,2.83-6.5,6.38
		c-0.07,3.59,2.79,6.55,6.37,6.62c0.04,0,0.08,0,0.13,0c3.53,0,6.43-2.83,6.5-6.38c0.07-3.59-2.79-6.55-6.37-6.62
		C57.43,248.23,57.39,248.23,57.35,248.23L57.35,248.23z"/>
</g>
<g>
	<linearGradient id="SVGID_25_" gradientUnits="userSpaceOnUse" x1="27.19" y1="229.51" x2="40.19" y2="229.51">
		<stop  offset="0" style="stop-color:#FFFFFF"/>
		<stop  offset="1" style="stop-color:#000000"/>
	</linearGradient>
	<circle class="st24" cx="33.69" cy="229.51" r="6.5"/>
	<linearGradient id="SVGID_26_" gradientUnits="userSpaceOnUse" x1="27.1887" y1="229.51" x2="40.1913" y2="229.51">
		<stop  offset="0" style="stop-color:#FFFFFF"/>
		<stop  offset="1" style="stop-color:#000000"/>
	</linearGradient>
	<path class="st25" d="M33.69,224.01L33.69,224.01h0.11c1.47,0.03,2.84,0.63,3.86,1.69s1.56,2.45,1.54,3.92
		c-0.06,2.97-2.52,5.39-5.5,5.39h-0.11c-1.47-0.03-2.84-0.63-3.86-1.69s-1.56-2.45-1.54-3.92
		C28.25,226.43,30.72,224.01,33.69,224.01 M33.69,223.01c-3.53,0-6.43,2.83-6.5,6.38c-0.07,3.59,2.79,6.55,6.37,6.62
		c0.04,0,0.08,0,0.13,0c3.53,0,6.43-2.83,6.5-6.38c0.07-3.59-2.79-6.55-6.37-6.62C33.78,223.01,33.73,223.01,33.69,223.01
		L33.69,223.01z"/>
</g>
<g>
	<linearGradient id="SVGID_27_" gradientUnits="userSpaceOnUse" x1="36.09" y1="243.23" x2="54.09" y2="243.23">
		<stop  offset="0" style="stop-color:#CCE0F4"/>
		<stop  offset="0.0641" style="stop-color:#C3DCF2"/>
		<stop  offset="0.1706" style="stop-color:#A9D2EE"/>
		<stop  offset="0.3066" style="stop-color:#80C2E7"/>
		<stop  offset="0.4649" style="stop-color:#47ACDE"/>
		<stop  offset="0.5674" style="stop-color:#1E9CD7"/>
		<stop  offset="0.8652" style="stop-color:#0075BE"/>
		<stop  offset="0.9944" style="stop-color:#005B97"/>
	</linearGradient>
	<circle class="st26" cx="45.09" cy="243.23" r="9"/>
	<linearGradient id="SVGID_28_" gradientUnits="userSpaceOnUse" x1="36.0981" y1="243.23" x2="54.1019" y2="243.23">
		<stop  offset="0" style="stop-color:#CCE0F4"/>
		<stop  offset="0.0641" style="stop-color:#C3DCF2"/>
		<stop  offset="0.1706" style="stop-color:#A9D2EE"/>
		<stop  offset="0.3066" style="stop-color:#80C2E7"/>
		<stop  offset="0.4649" style="stop-color:#47ACDE"/>
		<stop  offset="0.5674" style="stop-color:#1E9CD7"/>
		<stop  offset="0.8652" style="stop-color:#0075BE"/>
		<stop  offset="0.9944" style="stop-color:#005B97"/>
	</linearGradient>
	<path class="st27" d="M45.09,234.23v1h0.16c4.41,0.08,7.93,3.74,7.85,8.15c-0.08,4.33-3.67,7.85-8,7.85h-0.16
		c-4.41-0.08-7.93-3.74-7.85-8.15c0.08-4.33,3.67-7.85,8-7.85V234.23 M45.09,234.23c-4.89,0-8.9,3.92-8.99,8.83
		c-0.1,4.97,3.86,9.08,8.83,9.17c0.06,0,0.12,0,0.18,0c4.89,0,8.9-3.92,8.99-8.83c0.1-4.97-3.86-9.08-8.83-9.17
		C45.21,234.23,45.15,234.23,45.09,234.23L45.09,234.23z"/>
</g>
<g>
	<linearGradient id="SVGID_29_" gradientUnits="userSpaceOnUse" x1="15.67" y1="212.85" x2="33.67" y2="212.85">
		<stop  offset="0" style="stop-color:#CCE0F4"/>
		<stop  offset="0.0641" style="stop-color:#C3DCF2"/>
		<stop  offset="0.1706" style="stop-color:#A9D2EE"/>
		<stop  offset="0.3066" style="stop-color:#80C2E7"/>
		<stop  offset="0.4649" style="stop-color:#47ACDE"/>
		<stop  offset="0.5674" style="stop-color:#1E9CD7"/>
		<stop  offset="0.8652" style="stop-color:#0075BE"/>
		<stop  offset="0.9944" style="stop-color:#005B97"/>
	</linearGradient>
	<circle class="st28" cx="24.67" cy="212.85" r="9"/>
	<linearGradient id="SVGID_30_" gradientUnits="userSpaceOnUse" x1="15.6781" y1="212.85" x2="33.6819" y2="212.85">
		<stop  offset="0" style="stop-color:#CCE0F4"/>
		<stop  offset="0.0641" style="stop-color:#C3DCF2"/>
		<stop  offset="0.1706" style="stop-color:#A9D2EE"/>
		<stop  offset="0.3066" style="stop-color:#80C2E7"/>
		<stop  offset="0.4649" style="stop-color:#47ACDE"/>
		<stop  offset="0.5674" style="stop-color:#1E9CD7"/>
		<stop  offset="0.8652" style="stop-color:#0075BE"/>
		<stop  offset="0.9944" style="stop-color:#005B97"/>
	</linearGradient>
	<path class="st29" d="M24.67,203.85v1h0.16c4.41,0.08,7.93,3.74,7.85,8.15c-0.08,4.33-3.67,7.85-8,7.85h-0.16
		c-4.41-0.08-7.93-3.74-7.85-8.15c0.08-4.33,3.67-7.85,8-7.85V203.85 M24.67,203.85c-4.89,0-8.9,3.92-8.99,8.83
		c-0.1,4.97,3.86,9.08,8.83,9.17c0.06,0,0.12,0,0.18,0c4.89,0,8.9-3.92,8.99-8.83c0.1-4.97-3.86-9.08-8.83-9.17
		C24.79,203.85,24.73,203.85,24.67,203.85L24.67,203.85z"/>
</g>
<g>
	<linearGradient id="SVGID_31_" gradientUnits="userSpaceOnUse" x1="2.37" y1="140.04" x2="20.37" y2="140.04">
		<stop  offset="0" style="stop-color:#CCE0F4"/>
		<stop  offset="0.0641" style="stop-color:#C3DCF2"/>
		<stop  offset="0.1706" style="stop-color:#A9D2EE"/>
		<stop  offset="0.3066" style="stop-color:#80C2E7"/>
		<stop  offset="0.4649" style="stop-color:#47ACDE"/>
		<stop  offset="0.5674" style="stop-color:#1E9CD7"/>
		<stop  offset="0.8652" style="stop-color:#0075BE"/>
		<stop  offset="0.9944" style="stop-color:#005B97"/>
	</linearGradient>
	<circle class="st30" cx="11.37" cy="140.04" r="9"/>
	<linearGradient id="SVGID_32_" gradientUnits="userSpaceOnUse" x1="2.37" y1="140.04" x2="20.38" y2="140.04">
		<stop  offset="0" style="stop-color:#CCE0F4"/>
		<stop  offset="0.0641" style="stop-color:#C3DCF2"/>
		<stop  offset="0.1706" style="stop-color:#A9D2EE"/>
		<stop  offset="0.3066" style="stop-color:#80C2E7"/>
		<stop  offset="0.4649" style="stop-color:#47ACDE"/>
		<stop  offset="0.5674" style="stop-color:#1E9CD7"/>
		<stop  offset="0.8652" style="stop-color:#0075BE"/>
		<stop  offset="0.9944" style="stop-color:#005B97"/>
	</linearGradient>
	<path class="st31" d="M11.37,131.04l0.02,1c4.41,0.01,7.99,3.61,7.98,8.02c-0.01,4.4-3.6,7.98-8.02,7.98
		c-4.41-0.01-7.99-3.61-7.98-8.02c0.01-4.4,3.6-7.98,8-7.98L11.37,131.04 M11.37,131.04c-4.96,0-8.99,4.01-9,8.98s4,9.01,8.98,9.02
		c0.01,0,0.02,0,0.03,0c4.96,0,8.99-4.01,9-8.98s-4-9.01-8.98-9.02C11.39,131.04,11.38,131.04,11.37,131.04L11.37,131.04z"/>
</g>
<g>
	<linearGradient id="SVGID_33_" gradientUnits="userSpaceOnUse" x1="5.87" y1="122.54" x2="18.87" y2="122.54">
		<stop  offset="0" style="stop-color:#FFFFFF"/>
		<stop  offset="1" style="stop-color:#000000"/>
	</linearGradient>
	<circle class="st32" cx="12.37" cy="122.54" r="6.5"/>
	<linearGradient id="SVGID_34_" gradientUnits="userSpaceOnUse" x1="5.87" y1="122.54" x2="18.87" y2="122.54">
		<stop  offset="0" style="stop-color:#FFFFFF"/>
		<stop  offset="1" style="stop-color:#000000"/>
	</linearGradient>
	<path class="st33" d="M12.37,116.04l0.01,1c1.47,0,2.85,0.58,3.88,1.62c1.04,1.04,1.6,2.42,1.6,3.89
		c-0.01,3.02-2.48,5.48-5.52,5.48c-3.03-0.01-5.49-2.48-5.48-5.52c0.01-3.02,2.48-5.48,5.5-5.48L12.37,116.04 M12.37,116.04
		c-3.58,0-6.49,2.9-6.5,6.48c-0.01,3.59,2.89,6.51,6.48,6.52c0.01,0,0.01,0,0.02,0c3.58,0,6.49-2.9,6.5-6.48
		c0.01-3.59-2.89-6.51-6.48-6.52C12.38,116.04,12.37,116.04,12.37,116.04L12.37,116.04z"/>
</g>
<g>
	<linearGradient id="SVGID_35_" gradientUnits="userSpaceOnUse" x1="15.68" y1="87.07" x2="33.68" y2="87.07">
		<stop  offset="0" style="stop-color:#CCE0F4"/>
		<stop  offset="0.0641" style="stop-color:#C3DCF2"/>
		<stop  offset="0.1706" style="stop-color:#A9D2EE"/>
		<stop  offset="0.3066" style="stop-color:#80C2E7"/>
		<stop  offset="0.4649" style="stop-color:#47ACDE"/>
		<stop  offset="0.5674" style="stop-color:#1E9CD7"/>
		<stop  offset="0.8652" style="stop-color:#0075BE"/>
		<stop  offset="0.9944" style="stop-color:#005B97"/>
	</linearGradient>
	<circle class="st34" cx="24.68" cy="87.07" r="9"/>
	<linearGradient id="SVGID_36_" gradientUnits="userSpaceOnUse" x1="15.68" y1="87.07" x2="33.69" y2="87.07">
		<stop  offset="0" style="stop-color:#CCE0F4"/>
		<stop  offset="0.0641" style="stop-color:#C3DCF2"/>
		<stop  offset="0.1706" style="stop-color:#A9D2EE"/>
		<stop  offset="0.3066" style="stop-color:#80C2E7"/>
		<stop  offset="0.4649" style="stop-color:#47ACDE"/>
		<stop  offset="0.5674" style="stop-color:#1E9CD7"/>
		<stop  offset="0.8652" style="stop-color:#0075BE"/>
		<stop  offset="0.9944" style="stop-color:#005B97"/>
	</linearGradient>
	<path class="st35" d="M24.68,78.07l0.02,1c4.41,0.01,7.99,3.61,7.98,8.02c-0.01,4.4-3.6,7.98-8.02,7.98
		c-2.14-0.01-4.14-0.84-5.65-2.36c-1.51-1.52-2.33-3.53-2.33-5.66c0.01-4.4,3.6-7.98,8-7.98V78.07 M24.68,78.07
		c-4.96,0-8.99,4.01-9,8.98s4,9.01,8.98,9.02c0.01,0,0.02,0,0.03,0c4.96,0,8.99-4.01,9-8.98c0.01-4.97-4-9.01-8.98-9.02
		C24.69,78.07,24.68,78.07,24.68,78.07L24.68,78.07z"/>
</g>
<g>
	<linearGradient id="SVGID_37_" gradientUnits="userSpaceOnUse" x1="11.36" y1="105.55" x2="24.36" y2="105.55">
		<stop  offset="0" style="stop-color:#FFFFFF"/>
		<stop  offset="1" style="stop-color:#000000"/>
	</linearGradient>
	<circle class="st36" cx="17.86" cy="105.55" r="6.5"/>
	<linearGradient id="SVGID_38_" gradientUnits="userSpaceOnUse" x1="11.36" y1="105.55" x2="24.36" y2="105.55">
		<stop  offset="0" style="stop-color:#FFFFFF"/>
		<stop  offset="1" style="stop-color:#000000"/>
	</linearGradient>
	<path class="st37" d="M17.86,99.05l0.01,1c3.03,0.01,5.49,2.48,5.48,5.52c-0.01,3.02-2.48,5.48-5.52,5.48
		c-3.03-0.01-5.49-2.48-5.48-5.52c0.01-3.02,2.48-5.48,5.5-5.48L17.86,99.05 M17.86,99.05c-3.58,0-6.49,2.9-6.5,6.48
		c-0.01,3.59,2.89,6.51,6.48,6.52c0.01,0,0.01,0,0.02,0c3.58,0,6.49-2.9,6.5-6.48c0.01-3.59-2.89-6.51-6.48-6.52
		C17.87,99.05,17.86,99.05,17.86,99.05L17.86,99.05z"/>
</g>
<g>
	<linearGradient id="SVGID_39_" gradientUnits="userSpaceOnUse" x1="41.52" y1="52.62" x2="54.52" y2="52.62">
		<stop  offset="0" style="stop-color:#FFFFFF"/>
		<stop  offset="1" style="stop-color:#000000"/>
	</linearGradient>
	<circle class="st38" cx="48.02" cy="52.62" r="6.5"/>
	<linearGradient id="SVGID_40_" gradientUnits="userSpaceOnUse" x1="41.52" y1="52.62" x2="54.52" y2="52.62">
		<stop  offset="0" style="stop-color:#FFFFFF"/>
		<stop  offset="1" style="stop-color:#000000"/>
	</linearGradient>
	<path class="st39" d="M48.03,46.12l0.01,1c1.47,0,2.85,0.58,3.88,1.62c1.04,1.04,1.6,2.42,1.6,3.89c-0.01,3.02-2.48,5.48-5.52,5.48
		c-3.03-0.01-5.49-2.48-5.48-5.52c0.01-3.02,2.48-5.48,5.5-5.48L48.03,46.12 M48.02,46.12c-3.58,0-6.49,2.9-6.5,6.48
		c-0.01,3.59,2.89,6.51,6.48,6.52c0.01,0,0.01,0,0.02,0c3.58,0,6.49-2.9,6.5-6.48c0.01-3.59-2.89-6.51-6.48-6.52
		C48.03,46.12,48.03,46.12,48.02,46.12L48.02,46.12z"/>
</g>
<g>
	<linearGradient id="SVGID_41_" gradientUnits="userSpaceOnUse" x1="72.53" y1="29.19" x2="85.53" y2="29.19">
		<stop  offset="0" style="stop-color:#FFFFFF"/>
		<stop  offset="1" style="stop-color:#000000"/>
	</linearGradient>
	<circle class="st40" cx="79.03" cy="29.19" r="6.5"/>
	<linearGradient id="SVGID_42_" gradientUnits="userSpaceOnUse" x1="72.53" y1="29.19" x2="85.53" y2="29.19">
		<stop  offset="0" style="stop-color:#FFFFFF"/>
		<stop  offset="1" style="stop-color:#000000"/>
	</linearGradient>
	<path class="st41" d="M79.03,22.69l0.01,1c3.03,0.01,5.49,2.48,5.48,5.52c-0.01,3.02-2.48,5.48-5.52,5.48
		c-3.03-0.01-5.49-2.48-5.48-5.52c0.01-3.02,2.48-5.48,5.5-5.48L79.03,22.69 M79.03,22.69c-3.58,0-6.49,2.9-6.5,6.48
		c-0.01,3.59,2.89,6.51,6.48,6.52c0.01,0,0.01,0,0.02,0c3.58,0,6.49-2.9,6.5-6.48c0.01-3.59-2.89-6.51-6.48-6.52
		C79.04,22.69,79.03,22.69,79.03,22.69L79.03,22.69z"/>
</g>
<g>
	<linearGradient id="SVGID_43_" gradientUnits="userSpaceOnUse" x1="54.52" y1="38.65" x2="72.52" y2="38.65">
		<stop  offset="0" style="stop-color:#CCE0F4"/>
		<stop  offset="0.0641" style="stop-color:#C3DCF2"/>
		<stop  offset="0.1706" style="stop-color:#A9D2EE"/>
		<stop  offset="0.3066" style="stop-color:#80C2E7"/>
		<stop  offset="0.4649" style="stop-color:#47ACDE"/>
		<stop  offset="0.5674" style="stop-color:#1E9CD7"/>
		<stop  offset="0.8652" style="stop-color:#0075BE"/>
		<stop  offset="0.9944" style="stop-color:#005B97"/>
	</linearGradient>
	<circle class="st42" cx="63.52" cy="38.65" r="9"/>
	<linearGradient id="SVGID_44_" gradientUnits="userSpaceOnUse" x1="54.52" y1="38.65" x2="72.53" y2="38.65">
		<stop  offset="0" style="stop-color:#CCE0F4"/>
		<stop  offset="0.0641" style="stop-color:#C3DCF2"/>
		<stop  offset="0.1706" style="stop-color:#A9D2EE"/>
		<stop  offset="0.3066" style="stop-color:#80C2E7"/>
		<stop  offset="0.4649" style="stop-color:#47ACDE"/>
		<stop  offset="0.5674" style="stop-color:#1E9CD7"/>
		<stop  offset="0.8652" style="stop-color:#0075BE"/>
		<stop  offset="0.9944" style="stop-color:#005B97"/>
	</linearGradient>
	<path class="st43" d="M63.52,29.65l0.02,1c4.41,0.01,7.99,3.61,7.98,8.02c-0.01,4.4-3.6,7.98-8.02,7.98
		c-4.41-0.01-7.99-3.61-7.98-8.02c0.01-4.4,3.6-7.98,8-7.98L63.52,29.65 M63.52,29.65c-4.96,0-8.99,4.01-9,8.98s4,9.01,8.98,9.02
		c0.01,0,0.02,0,0.03,0c4.96,0,8.99-4.01,9-8.98s-4-9.01-8.98-9.02C63.53,29.65,63.53,29.65,63.52,29.65L63.52,29.65z"/>
</g>
<g>
	<linearGradient id="SVGID_45_" gradientUnits="userSpaceOnUse" x1="85.47" y1="21.19" x2="103.47" y2="21.19">
		<stop  offset="0" style="stop-color:#CCE0F4"/>
		<stop  offset="0.0641" style="stop-color:#C3DCF2"/>
		<stop  offset="0.1706" style="stop-color:#A9D2EE"/>
		<stop  offset="0.3066" style="stop-color:#80C2E7"/>
		<stop  offset="0.4649" style="stop-color:#47ACDE"/>
		<stop  offset="0.5674" style="stop-color:#1E9CD7"/>
		<stop  offset="0.8652" style="stop-color:#0075BE"/>
		<stop  offset="0.9944" style="stop-color:#005B97"/>
	</linearGradient>
	<circle class="st44" cx="94.47" cy="21.19" r="9"/>
	<linearGradient id="SVGID_46_" gradientUnits="userSpaceOnUse" x1="85.47" y1="21.19" x2="103.48" y2="21.19">
		<stop  offset="0" style="stop-color:#CCE0F4"/>
		<stop  offset="0.0641" style="stop-color:#C3DCF2"/>
		<stop  offset="0.1706" style="stop-color:#A9D2EE"/>
		<stop  offset="0.3066" style="stop-color:#80C2E7"/>
		<stop  offset="0.4649" style="stop-color:#47ACDE"/>
		<stop  offset="0.5674" style="stop-color:#1E9CD7"/>
		<stop  offset="0.8652" style="stop-color:#0075BE"/>
		<stop  offset="0.9944" style="stop-color:#005B97"/>
	</linearGradient>
	<path class="st45" d="M94.47,12.19l0.02,1c4.41,0.01,7.99,3.61,7.98,8.02c-0.01,4.4-3.6,7.98-8.02,7.98
		c-4.41-0.01-7.99-3.61-7.98-8.02c0.01-4.4,3.6-7.98,8-7.98L94.47,12.19 M94.47,12.19c-4.96,0-8.99,4.01-9,8.98s4,9.01,8.98,9.02
		c0.01,0,0.02,0,0.03,0c4.96,0,8.99-4.01,9-8.98s-4-9.01-8.98-9.02C94.49,12.19,94.48,12.19,94.47,12.19L94.47,12.19z"/>
</g>
<g>
	<linearGradient id="SVGID_47_" gradientUnits="userSpaceOnUse" x1="203" y1="22" x2="221" y2="22">
		<stop  offset="0" style="stop-color:#CCE0F4"/>
		<stop  offset="0.0641" style="stop-color:#C3DCF2"/>
		<stop  offset="0.1706" style="stop-color:#A9D2EE"/>
		<stop  offset="0.3066" style="stop-color:#80C2E7"/>
		<stop  offset="0.4649" style="stop-color:#47ACDE"/>
		<stop  offset="0.5674" style="stop-color:#1E9CD7"/>
		<stop  offset="0.8652" style="stop-color:#0075BE"/>
		<stop  offset="0.9944" style="stop-color:#005B97"/>
	</linearGradient>
	<circle class="st46" cx="212" cy="22" r="9"/>
	<linearGradient id="SVGID_48_" gradientUnits="userSpaceOnUse" x1="203" y1="22" x2="221.01" y2="22">
		<stop  offset="0" style="stop-color:#CCE0F4"/>
		<stop  offset="0.0641" style="stop-color:#C3DCF2"/>
		<stop  offset="0.1706" style="stop-color:#A9D2EE"/>
		<stop  offset="0.3066" style="stop-color:#80C2E7"/>
		<stop  offset="0.4649" style="stop-color:#47ACDE"/>
		<stop  offset="0.5674" style="stop-color:#1E9CD7"/>
		<stop  offset="0.8652" style="stop-color:#0075BE"/>
		<stop  offset="0.9944" style="stop-color:#005B97"/>
	</linearGradient>
	<path class="st47" d="M212,13l0.02,1c4.41,0.01,7.99,3.61,7.98,8.02c-0.01,4.4-3.6,7.98-8.02,7.98c-4.41-0.01-7.99-3.61-7.98-8.02
		c0.01-4.4,3.6-7.98,8-7.98V13 M212,13c-4.96,0-8.99,4.01-9,8.98s4,9.01,8.98,9.02c0.01,0,0.02,0,0.03,0c4.96,0,8.99-4.01,9-8.98
		s-4-9.01-8.98-9.02C212.02,13,212.01,13,212,13L212,13z"/>
</g>
<g>
	<linearGradient id="SVGID_49_" gradientUnits="userSpaceOnUse" x1="281.19" y1="159.74" x2="299.19" y2="159.74">
		<stop  offset="0" style="stop-color:#CCE0F4"/>
		<stop  offset="0.0641" style="stop-color:#C3DCF2"/>
		<stop  offset="0.1706" style="stop-color:#A9D2EE"/>
		<stop  offset="0.3066" style="stop-color:#80C2E7"/>
		<stop  offset="0.4649" style="stop-color:#47ACDE"/>
		<stop  offset="0.5674" style="stop-color:#1E9CD7"/>
		<stop  offset="0.8652" style="stop-color:#0075BE"/>
		<stop  offset="0.9944" style="stop-color:#005B97"/>
	</linearGradient>
	<circle class="st48" cx="290.19" cy="159.74" r="9"/>
	<linearGradient id="SVGID_50_" gradientUnits="userSpaceOnUse" x1="281.1877" y1="159.735" x2="299.1823" y2="159.735">
		<stop  offset="0" style="stop-color:#CCE0F4"/>
		<stop  offset="0.0641" style="stop-color:#C3DCF2"/>
		<stop  offset="0.1706" style="stop-color:#A9D2EE"/>
		<stop  offset="0.3066" style="stop-color:#80C2E7"/>
		<stop  offset="0.4649" style="stop-color:#47ACDE"/>
		<stop  offset="0.5674" style="stop-color:#1E9CD7"/>
		<stop  offset="0.8652" style="stop-color:#0075BE"/>
		<stop  offset="0.9944" style="stop-color:#005B97"/>
	</linearGradient>
	<path class="st49" d="M290.18,150.74v1h0.18c2.14,0.05,4.13,0.92,5.6,2.47s2.27,3.57,2.22,5.71c-0.09,4.31-3.68,7.82-7.99,7.82
		h-0.18c-4.41-0.1-7.92-3.76-7.82-8.17c0.09-4.31,3.68-7.82,7.99-7.82V150.74 M290.18,150.74c-4.88,0-8.89,3.9-8.99,8.8
		c-0.11,4.97,3.83,9.09,8.8,9.19c0.07,0,0.13,0,0.2,0c4.88,0,8.89-3.9,8.99-8.8c0.11-4.97-3.83-9.09-8.8-9.19
		C290.32,150.74,290.25,150.74,290.18,150.74L290.18,150.74z"/>
</g>
<g>
	<linearGradient id="SVGID_51_" gradientUnits="userSpaceOnUse" x1="281.49" y1="176.96" x2="294.49" y2="176.96">
		<stop  offset="0" style="stop-color:#FFFFFF"/>
		<stop  offset="1" style="stop-color:#000000"/>
	</linearGradient>
	<circle class="st50" cx="287.99" cy="176.96" r="6.5"/>
	<linearGradient id="SVGID_52_" gradientUnits="userSpaceOnUse" x1="281.4883" y1="176.96" x2="294.4883" y2="176.96">
		<stop  offset="0" style="stop-color:#FFFFFF"/>
		<stop  offset="1" style="stop-color:#000000"/>
	</linearGradient>
	<path class="st51" d="M287.99,171.46L287.99,171.46h0.12c1.47,0.03,2.84,0.63,3.85,1.7c1.02,1.06,1.56,2.45,1.53,3.92
		c-0.06,2.97-2.53,5.38-5.5,5.38h-0.12c-1.47-0.03-2.84-0.63-3.85-1.7c-1.02-1.06-1.56-2.45-1.53-3.92
		C282.57,173.87,285.04,171.46,287.99,171.46 M287.99,170.46c-3.52,0-6.42,2.82-6.5,6.36c-0.08,3.59,2.77,6.56,6.36,6.64
		c0.05,0,0.1,0,0.15,0c3.52,0,6.42-2.82,6.5-6.36c0.08-3.59-2.77-6.56-6.36-6.64C288.1,170.46,288.04,170.46,287.99,170.46
		L287.99,170.46z"/>
</g>
<g>
	<linearGradient id="SVGID_53_" gradientUnits="userSpaceOnUse" x1="268.63" y1="211.23" x2="286.63" y2="211.23">
		<stop  offset="0" style="stop-color:#CCE0F4"/>
		<stop  offset="0.0641" style="stop-color:#C3DCF2"/>
		<stop  offset="0.1706" style="stop-color:#A9D2EE"/>
		<stop  offset="0.3066" style="stop-color:#80C2E7"/>
		<stop  offset="0.4649" style="stop-color:#47ACDE"/>
		<stop  offset="0.5674" style="stop-color:#1E9CD7"/>
		<stop  offset="0.8652" style="stop-color:#0075BE"/>
		<stop  offset="0.9944" style="stop-color:#005B97"/>
	</linearGradient>
	<circle class="st52" cx="277.63" cy="211.23" r="9"/>
	<linearGradient id="SVGID_54_" gradientUnits="userSpaceOnUse" x1="268.6378" y1="211.225" x2="286.6323" y2="211.225">
		<stop  offset="0" style="stop-color:#CCE0F4"/>
		<stop  offset="0.0641" style="stop-color:#C3DCF2"/>
		<stop  offset="0.1706" style="stop-color:#A9D2EE"/>
		<stop  offset="0.3066" style="stop-color:#80C2E7"/>
		<stop  offset="0.4649" style="stop-color:#47ACDE"/>
		<stop  offset="0.5674" style="stop-color:#1E9CD7"/>
		<stop  offset="0.8652" style="stop-color:#0075BE"/>
		<stop  offset="0.9944" style="stop-color:#005B97"/>
	</linearGradient>
	<path class="st53" d="M277.63,203.23L277.63,203.23h0.18c4.41,0.1,7.92,3.76,7.82,8.17c-0.09,4.31-3.68,7.82-7.99,7.82h-0.18
		c-4.41-0.1-7.92-3.76-7.82-8.17C269.73,206.74,273.31,203.23,277.63,203.23 M277.63,202.23c-4.88,0-8.89,3.9-8.99,8.8
		c-0.11,4.97,3.83,9.09,8.8,9.19c0.07,0,0.13,0,0.2,0c4.88,0,8.89-3.9,8.99-8.8c0.11-4.97-3.83-9.09-8.8-9.19
		C277.76,202.23,277.69,202.23,277.63,202.23L277.63,202.23z"/>
</g>
<g>
	<linearGradient id="SVGID_55_" gradientUnits="userSpaceOnUse" x1="277.63" y1="193.89" x2="290.63" y2="193.89">
		<stop  offset="0" style="stop-color:#FFFFFF"/>
		<stop  offset="1" style="stop-color:#000000"/>
	</linearGradient>
	<circle class="st54" cx="284.13" cy="193.89" r="6.5"/>
	<linearGradient id="SVGID_56_" gradientUnits="userSpaceOnUse" x1="277.6284" y1="193.89" x2="290.6284" y2="193.89">
		<stop  offset="0" style="stop-color:#FFFFFF"/>
		<stop  offset="1" style="stop-color:#000000"/>
	</linearGradient>
	<path class="st55" d="M284.13,188.39L284.13,188.39h0.12c1.47,0.03,2.84,0.63,3.85,1.7c1.02,1.06,1.56,2.45,1.53,3.92
		c-0.06,2.97-2.53,5.38-5.5,5.38h-0.12c-1.47-0.03-2.84-0.63-3.85-1.7c-1.02-1.06-1.56-2.45-1.53-3.92
		C278.7,190.8,281.16,188.39,284.13,188.39 M284.13,187.39c-3.52,0-6.42,2.82-6.5,6.36c-0.08,3.59,2.77,6.56,6.36,6.64
		c0.05,0,0.1,0,0.15,0c3.52,0,6.42-2.82,6.5-6.36c0.08-3.59-2.77-6.56-6.36-6.64C284.23,187.39,284.18,187.39,284.13,187.39
		L284.13,187.39z"/>
</g>
<g>
	<linearGradient id="SVGID_57_" gradientUnits="userSpaceOnUse" x1="252.97" y1="238.85" x2="265.97" y2="238.85">
		<stop  offset="0" style="stop-color:#FFFFFF"/>
		<stop  offset="1" style="stop-color:#000000"/>
	</linearGradient>
	<circle class="st56" cx="259.47" cy="238.85" r="6.5"/>
	<linearGradient id="SVGID_58_" gradientUnits="userSpaceOnUse" x1="252.9684" y1="238.85" x2="265.9684" y2="238.85">
		<stop  offset="0" style="stop-color:#FFFFFF"/>
		<stop  offset="1" style="stop-color:#000000"/>
	</linearGradient>
	<path class="st57" d="M259.47,233.35L259.47,233.35h0.12c1.47,0.03,2.84,0.63,3.85,1.7c1.02,1.06,1.56,2.45,1.53,3.92
		c-0.06,2.97-2.53,5.38-5.5,5.38h-0.12c-1.47-0.03-2.84-0.63-3.85-1.7c-1.02-1.06-1.56-2.45-1.53-3.92
		C254.03,235.77,256.5,233.35,259.47,233.35 M259.47,232.35c-3.52,0-6.42,2.82-6.5,6.36c-0.08,3.59,2.77,6.56,6.36,6.64
		c0.05,0,0.1,0,0.15,0c3.52,0,6.42-2.82,6.5-6.36c0.08-3.59-2.77-6.56-6.36-6.64C259.56,232.35,259.51,232.35,259.47,232.35
		L259.47,232.35z"/>
</g>
<g>
	<linearGradient id="SVGID_59_" gradientUnits="userSpaceOnUse" x1="225.43" y1="264.26" x2="238.43" y2="264.26">
		<stop  offset="0" style="stop-color:#FFFFFF"/>
		<stop  offset="1" style="stop-color:#000000"/>
	</linearGradient>
	<circle class="st58" cx="231.93" cy="264.26" r="6.5"/>
	<linearGradient id="SVGID_60_" gradientUnits="userSpaceOnUse" x1="225.4184" y1="264.26" x2="238.4184" y2="264.26">
		<stop  offset="0" style="stop-color:#FFFFFF"/>
		<stop  offset="1" style="stop-color:#000000"/>
	</linearGradient>
	<path class="st59" d="M231.92,258.76L231.92,258.76h0.12c3.03,0.07,5.44,2.59,5.38,5.62c-0.06,2.97-2.53,5.38-5.5,5.38h-0.12
		c-3.03-0.07-5.44-2.59-5.38-5.62C226.49,261.17,228.96,258.76,231.92,258.76 M231.92,257.76c-3.52,0-6.42,2.82-6.5,6.36
		c-0.08,3.59,2.77,6.56,6.36,6.64c0.05,0,0.1,0,0.15,0c3.52,0,6.42-2.82,6.5-6.36c0.08-3.59-2.77-6.56-6.36-6.64
		C232.02,257.76,231.97,257.76,231.92,257.76L231.92,257.76z"/>
</g>
<g>
	<linearGradient id="SVGID_61_" gradientUnits="userSpaceOnUse" x1="239.46" y1="252.23" x2="257.46" y2="252.23">
		<stop  offset="0" style="stop-color:#CCE0F4"/>
		<stop  offset="0.0641" style="stop-color:#C3DCF2"/>
		<stop  offset="0.1706" style="stop-color:#A9D2EE"/>
		<stop  offset="0.3066" style="stop-color:#80C2E7"/>
		<stop  offset="0.4649" style="stop-color:#47ACDE"/>
		<stop  offset="0.5674" style="stop-color:#1E9CD7"/>
		<stop  offset="0.8652" style="stop-color:#0075BE"/>
		<stop  offset="0.9944" style="stop-color:#005B97"/>
	</linearGradient>
	<circle class="st60" cx="248.46" cy="252.23" r="9"/>
	<linearGradient id="SVGID_62_" gradientUnits="userSpaceOnUse" x1="239.4577" y1="252.225" x2="257.4522" y2="252.225">
		<stop  offset="0" style="stop-color:#CCE0F4"/>
		<stop  offset="0.0641" style="stop-color:#C3DCF2"/>
		<stop  offset="0.1706" style="stop-color:#A9D2EE"/>
		<stop  offset="0.3066" style="stop-color:#80C2E7"/>
		<stop  offset="0.4649" style="stop-color:#47ACDE"/>
		<stop  offset="0.5674" style="stop-color:#1E9CD7"/>
		<stop  offset="0.8652" style="stop-color:#0075BE"/>
		<stop  offset="0.9944" style="stop-color:#005B97"/>
	</linearGradient>
	<path class="st61" d="M248.45,243.23v1h0.18c2.14,0.05,4.13,0.92,5.6,2.47s2.27,3.57,2.22,5.71c-0.09,4.31-3.68,7.82-7.99,7.82
		h-0.18c-2.14-0.05-4.13-0.92-5.6-2.47c-1.48-1.54-2.27-3.57-2.22-5.71c0.09-4.31,3.68-7.82,7.99-7.82L248.45,243.23 M248.45,243.23
		c-4.88,0-8.89,3.9-8.99,8.8c-0.11,4.97,3.83,9.09,8.8,9.19c0.07,0,0.13,0,0.2,0c4.88,0,8.89-3.9,8.99-8.8
		c0.11-4.97-3.83-9.09-8.8-9.19C248.59,243.23,248.52,243.23,248.45,243.23L248.45,243.23z"/>
</g>
<circle class="st62" cx="221.75" cy="277.91" r="9"/>
<g>
	<linearGradient id="SVGID_63_" gradientUnits="userSpaceOnUse" x1="208.71" y1="275.26" x2="226.71" y2="275.26">
		<stop  offset="0" style="stop-color:#CCE0F4"/>
		<stop  offset="0.0641" style="stop-color:#C3DCF2"/>
		<stop  offset="0.1706" style="stop-color:#A9D2EE"/>
		<stop  offset="0.3066" style="stop-color:#80C2E7"/>
		<stop  offset="0.4649" style="stop-color:#47ACDE"/>
		<stop  offset="0.5674" style="stop-color:#1E9CD7"/>
		<stop  offset="0.8652" style="stop-color:#0075BE"/>
		<stop  offset="0.9944" style="stop-color:#005B97"/>
	</linearGradient>
	<circle class="st63" cx="217.71" cy="275.26" r="9"/>
	<linearGradient id="SVGID_64_" gradientUnits="userSpaceOnUse" x1="208.7178" y1="275.255" x2="226.7122" y2="275.255">
		<stop  offset="0" style="stop-color:#CCE0F4"/>
		<stop  offset="0.0641" style="stop-color:#C3DCF2"/>
		<stop  offset="0.1706" style="stop-color:#A9D2EE"/>
		<stop  offset="0.3066" style="stop-color:#80C2E7"/>
		<stop  offset="0.4649" style="stop-color:#47ACDE"/>
		<stop  offset="0.5674" style="stop-color:#1E9CD7"/>
		<stop  offset="0.8652" style="stop-color:#0075BE"/>
		<stop  offset="0.9944" style="stop-color:#005B97"/>
	</linearGradient>
	<path class="st64" d="M217.71,266.26v1h0.18c2.14,0.05,4.13,0.92,5.6,2.47c1.48,1.54,2.27,3.57,2.22,5.71
		c-0.09,4.31-3.68,7.82-7.99,7.82h-0.18c-4.41-0.1-7.92-3.76-7.82-8.17c0.09-4.31,3.68-7.82,7.99-7.82V266.26 M217.71,266.26
		c-4.88,0-8.89,3.9-8.99,8.8c-0.11,4.97,3.83,9.09,8.8,9.19c0.07,0,0.13,0,0.2,0c4.88,0,8.89-3.9,8.99-8.8
		c0.11-4.97-3.83-9.09-8.8-9.19C217.84,266.26,217.77,266.26,217.71,266.26L217.71,266.26z"/>
</g>
<g id="RED">
</g>
</svg>
