<?xml version="1.0" encoding="utf-8"?>
<!-- Generator: Adobe Illustrator 23.0.0, SVG Export Plug-In . SVG Version: 6.00 Build 0)  -->
<svg version="1.1" id="Capa_1" xmlns="http://www.w3.org/2000/svg" xmlns:xlink="http://www.w3.org/1999/xlink" x="0px" y="0px"
	 viewBox="0 0 300 300" style="enable-background:new 0 0 300 300;" xml:space="preserve">
<style type="text/css">
	.st0{fill:url(#SVGID_1_);}
	.st1{fill:url(#SVGID_2_);}
	.st2{fill:url(#SVGID_3_);}
	.st3{fill:url(#SVGID_4_);}
	.st4{fill:url(#SVGID_5_);}
	.st5{fill:url(#SVGID_6_);}
	.st6{fill:url(#SVGID_7_);}
	.st7{fill:url(#SVGID_8_);}
	.st8{fill:url(#SVGID_9_);}
	.st9{fill:url(#SVGID_10_);}
	.st10{fill:url(#SVGID_11_);}
	.st11{fill:url(#SVGID_12_);}
	.st12{fill:url(#SVGID_13_);}
	.st13{fill:url(#SVGID_14_);}
	.st14{fill:url(#SVGID_15_);}
	.st15{fill:url(#SVGID_16_);}
	.st16{fill:url(#SVGID_17_);}
	.st17{fill:url(#SVGID_18_);}
	.st18{fill:url(#SVGID_19_);}
	.st19{fill:url(#SVGID_20_);}
	.st20{fill:url(#SVGID_21_);}
	.st21{fill:url(#SVGID_22_);}
	.st22{fill:url(#SVGID_23_);}
	.st23{fill:url(#SVGID_24_);}
	.st24{fill:url(#SVGID_25_);}
	.st25{fill:url(#SVGID_26_);}
	.st26{fill:url(#SVGID_27_);}
	.st27{fill:url(#SVGID_28_);}
	.st28{fill:url(#SVGID_29_);}
	.st29{fill:url(#SVGID_30_);}
	.st30{fill:url(#SVGID_31_);}
	.st31{fill:url(#SVGID_32_);}
	.st32{fill:url(#SVGID_33_);}
	.st33{fill:url(#SVGID_34_);}
	.st34{fill:url(#SVGID_35_);}
	.st35{fill:url(#SVGID_36_);}
	.st36{fill:url(#SVGID_37_);}
	.st37{fill:url(#SVGID_38_);}
	.st38{fill:url(#SVGID_39_);}
	.st39{fill:url(#SVGID_40_);}
	.st40{fill:url(#SVGID_41_);}
	.st41{fill:url(#SVGID_42_);}
	.st42{fill:url(#SVGID_43_);}
	.st43{fill:url(#SVGID_44_);}
	.st44{fill:url(#SVGID_45_);}
	.st45{fill:url(#SVGID_46_);}
	.st46{fill:url(#SVGID_47_);}
	.st47{fill:url(#SVGID_48_);}
	.st48{fill:url(#SVGID_49_);}
	.st49{fill:url(#SVGID_50_);}
	.st50{fill:url(#SVGID_51_);}
	.st51{fill:url(#SVGID_52_);}
	.st52{fill:url(#SVGID_53_);}
	.st53{fill:url(#SVGID_54_);}
	.st54{fill:url(#SVGID_55_);}
	.st55{fill:url(#SVGID_56_);}
	.st56{fill:url(#SVGID_57_);}
	.st57{fill:url(#SVGID_58_);}
	.st58{fill:url(#SVGID_59_);}
	.st59{fill:url(#SVGID_60_);}
	.st60{fill:url(#SVGID_61_);}
	.st61{fill:url(#SVGID_62_);}
	.st62{fill:none;}
	.st63{fill:url(#SVGID_63_);}
	.st64{fill:url(#SVGID_64_);}
</style>
<g>
	
		<linearGradient id="SVGID_1_" gradientUnits="userSpaceOnUse" x1="147" y1="290" x2="165" y2="290" gradientTransform="matrix(2.832769e-16 1 1 -2.832769e-16 -134 -146)">
		<stop  offset="0" style="stop-color:#FF7BAC"/>
		<stop  offset="1" style="stop-color:#FF7BAC;stop-opacity:0"/>
	</linearGradient>
	<circle class="st0" cx="156" cy="10" r="9"/>
	
		<linearGradient id="SVGID_2_" gradientUnits="userSpaceOnUse" x1="156" y1="299" x2="156" y2="281" gradientTransform="matrix(1 0 0 -1 0 300)">
		<stop  offset="0" style="stop-color:#FF7BAC"/>
		<stop  offset="1" style="stop-color:#FF7BAC;stop-opacity:0"/>
	</linearGradient>
	<path class="st1" d="M156,2c4.41,0,8,3.59,8,8s-3.59,8-8,8s-8-3.59-8-8S151.59,2,156,2 M156,1c-4.97,0-9,4.03-9,9s4.03,9,9,9
		s9-4.03,9-9S160.97,1,156,1L156,1z"/>
</g>
<g>
	
		<linearGradient id="SVGID_3_" gradientUnits="userSpaceOnUse" x1="168.9953" y1="287.496" x2="181.9983" y2="287.496" gradientTransform="matrix(0.2537 -0.9673 -0.9673 -0.2537 409.0713 255.1958)">
		<stop  offset="0" style="stop-color:#FFFFFF"/>
		<stop  offset="1" style="stop-color:#000000"/>
	</linearGradient>
	<circle class="st2" cx="175.5" cy="12.5" r="6.5"/>
	
		<linearGradient id="SVGID_4_" gradientUnits="userSpaceOnUse" x1="173.8553" y1="281.211" x2="177.1546" y2="293.7888" gradientTransform="matrix(1 0 0 -1 0 300)">
		<stop  offset="0" style="stop-color:#FFFFFF"/>
		<stop  offset="1" style="stop-color:#000000"/>
	</linearGradient>
	<path class="st3" d="M175.5,7L175.5,7c0.47,0,0.94,0.06,1.4,0.18c2.93,0.77,4.69,3.78,3.92,6.72c-0.63,2.41-2.82,4.1-5.32,4.1
		c-0.47,0-0.94-0.06-1.4-0.18c-2.93-0.77-4.69-3.78-3.92-6.72C170.81,8.69,173,7,175.5,7 M175.5,6c-2.88,0-5.52,1.93-6.28,4.85
		c-0.91,3.47,1.17,7.03,4.64,7.94c0.55,0.15,1.11,0.21,1.65,0.21c2.88,0,5.52-1.93,6.28-4.85c0.91-3.47-1.17-7.03-4.64-7.94
		C176.6,6.07,176.04,6,175.5,6L175.5,6z"/>
</g>
<g>
	
		<linearGradient id="SVGID_5_" gradientUnits="userSpaceOnUse" x1="186.001" y1="284.5062" x2="199.0036" y2="284.5062" gradientTransform="matrix(0.1909 -0.9816 -0.9816 -0.1909 435.0226 258.7725)">
		<stop  offset="0" style="stop-color:#FFFFFF"/>
		<stop  offset="1" style="stop-color:#000000"/>
	</linearGradient>
	<circle class="st4" cx="192.5" cy="15.5" r="6.5"/>
	
		<linearGradient id="SVGID_6_" gradientUnits="userSpaceOnUse" x1="191.2595" y1="278.1201" x2="193.7405" y2="290.8799" gradientTransform="matrix(1 0 0 -1 0 300)">
		<stop  offset="0" style="stop-color:#FFFFFF"/>
		<stop  offset="1" style="stop-color:#000000"/>
	</linearGradient>
	<path class="st5" d="M192.49,10L192.49,10c0.35,0,0.71,0.03,1.06,0.1c1.44,0.28,2.69,1.11,3.51,2.32c0.82,1.22,1.12,2.68,0.84,4.13
		c-0.5,2.58-2.77,4.45-5.39,4.45c-0.35,0-0.71-0.03-1.06-0.1c-1.44-0.28-2.69-1.11-3.51-2.32c-0.82-1.22-1.12-2.68-0.84-4.13
		C187.6,11.87,189.87,10,192.49,10 M192.49,9c-3.05,0-5.77,2.16-6.37,5.26c-0.69,3.52,1.62,6.94,5.14,7.62
		c0.42,0.08,0.84,0.12,1.25,0.12c3.05,0,5.77-2.16,6.37-5.26c0.69-3.52-1.62-6.94-5.14-7.62C193.32,9.04,192.9,9,192.49,9L192.49,9z
		"/>
</g>
<g>
	
		<linearGradient id="SVGID_7_" gradientUnits="userSpaceOnUse" x1="235.5714" y1="257.5" x2="248.5714" y2="257.5" gradientTransform="matrix(1 0 0 -1 0 300)">
		<stop  offset="0" style="stop-color:#FFFFFF"/>
		<stop  offset="1" style="stop-color:#000000"/>
	</linearGradient>
	<circle class="st6" cx="242.07" cy="42.5" r="6.5"/>
	
		<linearGradient id="SVGID_8_" gradientUnits="userSpaceOnUse" x1="235.5714" y1="257.5" x2="248.5714" y2="257.5" gradientTransform="matrix(1 0 0 -1 0 300)">
		<stop  offset="0" style="stop-color:#FFFFFF"/>
		<stop  offset="1" style="stop-color:#000000"/>
	</linearGradient>
	<path class="st7" d="M242.07,37c3.03,0,5.5,2.47,5.5,5.5s-2.47,5.5-5.5,5.5s-5.5-2.47-5.5-5.5S239.04,37,242.07,37 M242.07,36
		c-3.59,0-6.5,2.91-6.5,6.5s2.91,6.5,6.5,6.5s6.5-2.91,6.5-6.5S245.66,36,242.07,36L242.07,36z"/>
</g>
<g>
	
		<linearGradient id="SVGID_9_" gradientUnits="userSpaceOnUse" x1="261" y1="225.5" x2="274" y2="225.5" gradientTransform="matrix(1 0 0 -1 0 300)">
		<stop  offset="0" style="stop-color:#FFFFFF"/>
		<stop  offset="1" style="stop-color:#000000"/>
	</linearGradient>
	<circle class="st8" cx="267.5" cy="74.5" r="6.5"/>
	
		<linearGradient id="SVGID_10_" gradientUnits="userSpaceOnUse" x1="261" y1="225.5" x2="274" y2="225.5" gradientTransform="matrix(1 0 0 -1 0 300)">
		<stop  offset="0" style="stop-color:#FFFFFF"/>
		<stop  offset="1" style="stop-color:#000000"/>
	</linearGradient>
	<path class="st9" d="M267.5,69c3.03,0,5.5,2.47,5.5,5.5s-2.47,5.5-5.5,5.5s-5.5-2.47-5.5-5.5S264.47,69,267.5,69 M267.5,68
		c-3.59,0-6.5,2.91-6.5,6.5s2.91,6.5,6.5,6.5s6.5-2.91,6.5-6.5S271.09,68,267.5,68L267.5,68z"/>
</g>
<g>
	
		<linearGradient id="SVGID_11_" gradientUnits="userSpaceOnUse" x1="251.7654" y1="241.3433" x2="269.7649" y2="241.3433" gradientTransform="matrix(-0.7314 0.682 0.682 0.7314 282.7005 -297.3603)">
		<stop  offset="0" style="stop-color:#FF7BAC"/>
		<stop  offset="1" style="stop-color:#FF7BAC;stop-opacity:0"/>
	</linearGradient>
	<circle class="st10" cx="256.57" cy="57" r="9"/>
	
		<linearGradient id="SVGID_12_" gradientUnits="userSpaceOnUse" x1="263.1553" y1="249.1375" x2="249.9907" y2="236.8625" gradientTransform="matrix(1 0 0 -1 0 300)">
		<stop  offset="0" style="stop-color:#FF7BAC"/>
		<stop  offset="1" style="stop-color:#FF7BAC;stop-opacity:0"/>
	</linearGradient>
	<path class="st11" d="M256.57,49L256.57,49c2.24,0,4.32,0.9,5.85,2.54c3.01,3.23,2.83,8.3-0.4,11.31
		c-1.48,1.39-3.42,2.15-5.45,2.15c-2.24,0-4.32-0.9-5.85-2.54c-3.01-3.23-2.83-8.3,0.4-11.31C252.6,49.76,254.54,49,256.57,49
		 M256.57,48c-2.2,0-4.4,0.8-6.14,2.42c-3.64,3.39-3.83,9.08-0.44,12.72c1.77,1.9,4.18,2.86,6.58,2.86c2.2,0,4.4-0.8,6.14-2.42
		c3.64-3.39,3.83-9.08,0.44-12.72C261.38,48.96,258.98,48,256.57,48L256.57,48z"/>
</g>
<g>
	
		<linearGradient id="SVGID_13_" gradientUnits="userSpaceOnUse" x1="271.5482" y1="207.0544" x2="289.548" y2="207.0544" gradientTransform="matrix(-0.6236 0.7818 0.7818 0.6236 289.5747 -257.4516)">
		<stop  offset="0" style="stop-color:#FF7BAC"/>
		<stop  offset="1" style="stop-color:#FF7BAC;stop-opacity:0"/>
	</linearGradient>
	<circle class="st12" cx="276.5" cy="91" r="9"/>
	
		<linearGradient id="SVGID_14_" gradientUnits="userSpaceOnUse" x1="282.1201" y1="216.0399" x2="270.8899" y2="201.9601" gradientTransform="matrix(1 0 0 -1 0 300)">
		<stop  offset="0" style="stop-color:#FF7BAC"/>
		<stop  offset="1" style="stop-color:#FF7BAC;stop-opacity:0"/>
	</linearGradient>
	<path class="st13" d="M276.51,83L276.51,83c1.83,0,3.55,0.6,4.98,1.75c1.67,1.33,2.72,3.24,2.96,5.36s-0.36,4.21-1.7,5.88
		c-1.53,1.91-3.81,3.01-6.26,3.01c-1.83,0-3.55-0.6-4.98-1.75c-1.67-1.33-2.72-3.24-2.96-5.36s0.36-4.21,1.7-5.88
		C271.77,84.1,274.05,83,276.51,83 M276.51,82c-2.64,0-5.26,1.16-7.04,3.39c-3.1,3.89-2.46,9.55,1.42,12.65
		c1.66,1.32,3.64,1.96,5.61,1.96c2.64,0,5.26-1.16,7.04-3.39c3.1-3.89,2.46-9.55-1.42-12.65C280.45,82.64,278.47,82,276.51,82
		L276.51,82z"/>
</g>
<g>
	
		<linearGradient id="SVGID_15_" gradientUnits="userSpaceOnUse" x1="133.4711" y1="9.8648" x2="151.4709" y2="9.8648" gradientTransform="matrix(0.0476 -0.9989 -0.9989 -0.0476 145.4025 432.7939)">
		<stop  offset="0" style="stop-color:#FF7BAC"/>
		<stop  offset="1" style="stop-color:#FF7BAC;stop-opacity:0"/>
	</linearGradient>
	<circle class="st14" cx="142.33" cy="290.01" r="9"/>
	
		<linearGradient id="SVGID_16_" gradientUnits="userSpaceOnUse" x1="141.902" y1="1.0017" x2="142.7583" y2="18.9782" gradientTransform="matrix(1 0 0 -1 0 300)">
		<stop  offset="0" style="stop-color:#FF7BAC"/>
		<stop  offset="1" style="stop-color:#FF7BAC;stop-opacity:0"/>
	</linearGradient>
	<path class="st15" d="M142.32,282.01L142.32,282.01c0.18,0,0.36,0.01,0.54,0.02c2.13,0.14,4.08,1.11,5.49,2.72
		c1.41,1.61,2.1,3.67,1.96,5.8c-0.28,4.19-3.78,7.47-7.97,7.47c-0.18,0-0.36-0.01-0.54-0.02c-4.4-0.29-7.74-4.11-7.45-8.52
		C134.63,285.29,138.13,282.01,142.32,282.01 M142.32,281.01c-4.7,0-8.65,3.64-8.97,8.4c-0.33,4.96,3.42,9.25,8.38,9.58
		c0.2,0.01,0.41,0.02,0.61,0.02c4.7,0,8.65-3.64,8.97-8.4c0.33-4.96-3.42-9.25-8.38-9.58C142.72,281.02,142.52,281.01,142.32,281.01
		L142.32,281.01z"/>
</g>
<g>
	
		<linearGradient id="SVGID_17_" gradientUnits="userSpaceOnUse" x1="116.3017" y1="10.999" x2="129.3029" y2="10.999" gradientTransform="matrix(0.1434 0.9897 0.9897 -0.1434 97.3326 168.1798)">
		<stop  offset="0" style="stop-color:#FFFFFF"/>
		<stop  offset="1" style="stop-color:#000000"/>
	</linearGradient>
	<circle class="st16" cx="125.83" cy="288.14" r="6.5"/>
	
		<linearGradient id="SVGID_18_" gradientUnits="userSpaceOnUse" x1="124.8961" y1="18.2934" x2="126.7602" y2="5.4266" gradientTransform="matrix(1 0 0 -1 0 300)">
		<stop  offset="0" style="stop-color:#FFFFFF"/>
		<stop  offset="1" style="stop-color:#000000"/>
	</linearGradient>
	<path class="st17" d="M125.84,282.64L125.84,282.64c2.76,0,5.1,2.07,5.45,4.82c0.38,3.01-1.76,5.76-4.77,6.14
		c-0.23,0.03-0.46,0.04-0.69,0.04c-2.76,0-5.1-2.07-5.45-4.82c-0.38-3.01,1.76-5.76,4.77-6.14
		C125.38,282.65,125.61,282.64,125.84,282.64 M125.84,281.64c-0.27,0-0.54,0.02-0.82,0.05c-3.56,0.45-6.09,3.7-5.64,7.26
		c0.41,3.29,3.21,5.69,6.44,5.69c0.27,0,0.54-0.02,0.82-0.05c3.56-0.45,6.09-3.7,5.64-7.26
		C131.87,284.04,129.07,281.64,125.84,281.64L125.84,281.64z"/>
</g>
<g>
	
		<linearGradient id="SVGID_19_" gradientUnits="userSpaceOnUse" x1="83.7499" y1="20.069" x2="101.7539" y2="20.069" gradientTransform="matrix(0.3654 -0.9309 -0.9309 -0.3654 75.3054 370.7217)">
		<stop  offset="0" style="stop-color:#FF7BAC"/>
		<stop  offset="1" style="stop-color:#FF7BAC;stop-opacity:0"/>
	</linearGradient>
	<circle class="st18" cx="90.51" cy="277.05" r="9"/>
	
		<linearGradient id="SVGID_20_" gradientUnits="userSpaceOnUse" x1="87.217" y1="14.5786" x2="93.7925" y2="31.3305" gradientTransform="matrix(1 0 0 -1 0 300)">
		<stop  offset="0" style="stop-color:#FF7BAC"/>
		<stop  offset="1" style="stop-color:#FF7BAC;stop-opacity:0"/>
	</linearGradient>
	<path class="st19" d="M90.51,269.05L90.51,269.05c1.05,0,2.08,0.21,3.06,0.61c4.07,1.69,6.01,6.38,4.32,10.45
		c-1.24,3-4.15,4.94-7.39,4.94c-1.05,0-2.08-0.21-3.06-0.61c-1.97-0.82-3.51-2.36-4.33-4.33s-0.82-4.15,0-6.12
		C84.36,270.98,87.27,269.05,90.51,269.05 M90.51,268.05c-3.53,0-6.88,2.09-8.32,5.55c-1.9,4.59,0.27,9.86,4.86,11.76
		c1.13,0.47,2.3,0.69,3.44,0.69c3.53,0,6.88-2.09,8.32-5.55c1.9-4.59-0.27-9.86-4.86-11.76C92.83,268.27,91.66,268.05,90.51,268.05
		L90.51,268.05z"/>
</g>
<g>
	
		<linearGradient id="SVGID_21_" gradientUnits="userSpaceOnUse" x1="98.9657" y1="12.0941" x2="111.9686" y2="12.0941" gradientTransform="matrix(-0.3654 0.9309 0.9309 0.3654 135.1794 181.8115)">
		<stop  offset="0" style="stop-color:#FFFFFF"/>
		<stop  offset="1" style="stop-color:#000000"/>
	</linearGradient>
	<circle class="st20" cx="107.9" cy="284.41" r="6.5"/>
	
		<linearGradient id="SVGID_22_" gradientUnits="userSpaceOnUse" x1="110.2695" y1="21.6392" x2="105.5206" y2="9.5408" gradientTransform="matrix(1 0 0 -1 0 300)">
		<stop  offset="0" style="stop-color:#FFFFFF"/>
		<stop  offset="1" style="stop-color:#000000"/>
	</linearGradient>
	<path class="st21" d="M107.91,278.91L107.91,278.91c0.72,0,1.43,0.14,2.1,0.42c1.36,0.56,2.41,1.62,2.98,2.98
		c0.56,1.36,0.56,2.85,0,4.21c-0.86,2.06-2.85,3.39-5.08,3.39c-0.72,0-1.43-0.14-2.1-0.42c-2.8-1.16-4.13-4.39-2.97-7.19
		C103.68,280.24,105.67,278.91,107.91,278.91 M107.9,277.91c-2.55,0-4.97,1.51-6.01,4.01c-1.38,3.32,0.2,7.12,3.51,8.49
		c0.81,0.34,1.66,0.5,2.49,0.5c2.55,0,4.97-1.51,6.01-4.01c1.38-3.32-0.2-7.12-3.51-8.49C109.58,278.07,108.73,277.91,107.9,277.91
		L107.9,277.91z"/>
</g>
<g>
	
		<linearGradient id="SVGID_23_" gradientUnits="userSpaceOnUse" x1="50.8538" y1="44.0133" x2="63.8553" y2="44.0133" gradientTransform="matrix(-0.5555 0.8315 0.8315 0.5555 52.6134 183.8403)">
		<stop  offset="0" style="stop-color:#FFFFFF"/>
		<stop  offset="1" style="stop-color:#000000"/>
	</linearGradient>
	<circle class="st22" cx="57.35" cy="255.98" r="6.5"/>
	
		<linearGradient id="SVGID_24_" gradientUnits="userSpaceOnUse" x1="60.9662" y1="49.4205" x2="53.7435" y2="38.6091" gradientTransform="matrix(1 0 0 -1 0 300)">
		<stop  offset="0" style="stop-color:#FFFFFF"/>
		<stop  offset="1" style="stop-color:#000000"/>
	</linearGradient>
	<path class="st23" d="M57.36,250.48L57.36,250.48c1.12,0,2.21,0.34,3.14,0.99c2.49,1.73,3.1,5.17,1.37,7.66
		c-1.03,1.48-2.72,2.36-4.52,2.36c-1.12,0-2.21-0.34-3.14-0.99c-2.49-1.73-3.1-5.17-1.37-7.66
		C53.87,251.36,55.56,250.48,57.36,250.48 M57.36,249.48c-2.06,0-4.08,0.97-5.34,2.79c-2.05,2.95-1.33,7,1.62,9.05
		c1.13,0.79,2.43,1.17,3.71,1.17c2.06,0,4.08-0.97,5.34-2.79c2.05-2.95,1.33-7-1.62-9.05C59.93,249.86,58.64,249.48,57.36,249.48
		L57.36,249.48z"/>
</g>
<g>
	
		<linearGradient id="SVGID_25_" gradientUnits="userSpaceOnUse" x1="26.3734" y1="71.4951" x2="39.3736" y2="71.4951" gradientTransform="matrix(-0.7565 0.654 0.654 0.7565 10.9953 152.9123)">
		<stop  offset="0" style="stop-color:#FFFFFF"/>
		<stop  offset="1" style="stop-color:#000000"/>
	</linearGradient>
	<circle class="st24" cx="32.87" cy="228.51" r="6.5"/>
	
		<linearGradient id="SVGID_26_" gradientUnits="userSpaceOnUse" x1="37.7899" y1="75.7445" x2="27.9601" y2="67.2455" gradientTransform="matrix(1 0 0 -1 0 300)">
		<stop  offset="0" style="stop-color:#FFFFFF"/>
		<stop  offset="1" style="stop-color:#000000"/>
	</linearGradient>
	<path class="st25" d="M32.87,223.01L32.87,223.01c1.64,0,3.18,0.72,4.23,1.98c1.94,2.33,1.62,5.81-0.71,7.75
		c-0.99,0.82-2.23,1.27-3.51,1.27c-1.64,0-3.18-0.72-4.23-1.98c-1.94-2.33-1.62-5.81,0.71-7.75
		C30.34,223.46,31.59,223.01,32.87,223.01 M32.87,222.01c-1.46,0-2.94,0.49-4.15,1.5c-2.76,2.3-3.14,6.39-0.84,9.15
		c1.29,1.55,3.14,2.34,5,2.34c1.46,0,2.94-0.49,4.15-1.5c2.76-2.3,3.14-6.39,0.84-9.15C36.59,222.81,34.73,222.01,32.87,222.01
		L32.87,222.01z"/>
</g>
<g>
	
		<linearGradient id="SVGID_27_" gradientUnits="userSpaceOnUse" x1="35.1033" y1="56.7775" x2="53.1036" y2="56.7775" gradientTransform="matrix(0.7565 -0.654 -0.654 -0.7565 47.8582 315.0258)">
		<stop  offset="0" style="stop-color:#FF7BAC"/>
		<stop  offset="1" style="stop-color:#FF7BAC;stop-opacity:0"/>
	</linearGradient>
	<circle class="st26" cx="44.09" cy="243.23" r="9"/>
	
		<linearGradient id="SVGID_28_" gradientUnits="userSpaceOnUse" x1="37.292" y1="50.8979" x2="50.898" y2="62.6621" gradientTransform="matrix(1 0 0 -1 0 300)">
		<stop  offset="0" style="stop-color:#FF7BAC"/>
		<stop  offset="1" style="stop-color:#FF7BAC;stop-opacity:0"/>
	</linearGradient>
	<path class="st27" d="M44.09,235.22L44.09,235.22c2.39,0,4.63,1.05,6.15,2.88c1.37,1.64,2.01,3.72,1.82,5.85s-1.21,4.05-2.85,5.42
		c-1.43,1.19-3.25,1.85-5.11,1.85c-2.39,0-4.63-1.05-6.16-2.88c-1.37-1.64-2.01-3.72-1.82-5.85c0.2-2.13,1.21-4.05,2.85-5.42
		C40.41,235.88,42.23,235.23,44.09,235.22 M44.09,234.22c-2.03,0-4.07,0.68-5.75,2.08c-3.82,3.18-4.34,8.85-1.16,12.67
		c1.78,2.14,4.34,3.25,6.92,3.25c2.03,0,4.07-0.68,5.75-2.08c3.82-3.18,4.34-8.85,1.16-12.67
		C49.23,235.33,46.67,234.22,44.09,234.22L44.09,234.22z"/>
</g>
<g>
	
		<linearGradient id="SVGID_29_" gradientUnits="userSpaceOnUse" x1="15.6758" y1="87.1524" x2="33.6799" y2="87.1524" gradientTransform="matrix(0.9013 -0.4332 -0.4332 -0.9013 40.1823 302.0909)">
		<stop  offset="0" style="stop-color:#FF7BAC"/>
		<stop  offset="1" style="stop-color:#FF7BAC;stop-opacity:0"/>
	</linearGradient>
	<circle class="st28" cx="24.67" cy="212.85" r="9"/>
	
		<linearGradient id="SVGID_30_" gradientUnits="userSpaceOnUse" x1="16.5623" y1="83.2453" x2="32.7873" y2="91.0445" gradientTransform="matrix(1 0 0 -1 0 300)">
		<stop  offset="0" style="stop-color:#FF7BAC"/>
		<stop  offset="1" style="stop-color:#FF7BAC;stop-opacity:0"/>
	</linearGradient>
	<path class="st29" d="M24.67,204.85L24.67,204.85c3.12,0,5.98,1.84,7.28,4.68c0.89,1.94,0.97,4.12,0.22,6.12s-2.23,3.59-4.17,4.48
		c-1.05,0.48-2.17,0.73-3.32,0.73c-3.12,0-5.98-1.84-7.28-4.68c-0.89-1.94-0.97-4.12-0.22-6.12s2.23-3.59,4.17-4.48
		C22.4,205.09,23.52,204.85,24.67,204.85 M24.67,203.85c-1.25,0-2.52,0.26-3.74,0.82c-4.52,2.07-6.51,7.41-4.44,11.93
		c1.51,3.31,4.78,5.26,8.19,5.26c1.25,0,2.52-0.26,3.74-0.82c4.52-2.07,6.51-7.41,4.44-11.93C31.34,205.8,28.08,203.85,24.67,203.85
		L24.67,203.85z"/>
</g>
<g>
	
		<linearGradient id="SVGID_31_" gradientUnits="userSpaceOnUse" x1="-1.330178e-03" y1="159.96" x2="17.9987" y2="159.96" gradientTransform="matrix(1 0 0 -1 0 300)">
		<stop  offset="0" style="stop-color:#FF7BAC"/>
		<stop  offset="1" style="stop-color:#FF7BAC;stop-opacity:0"/>
	</linearGradient>
	<circle class="st30" cx="9" cy="140.04" r="9"/>
	
		<linearGradient id="SVGID_32_" gradientUnits="userSpaceOnUse" x1="-1.348841e-03" y1="159.96" x2="18.0087" y2="159.96" gradientTransform="matrix(1 0 0 -1 0 300)">
		<stop  offset="0" style="stop-color:#FF7BAC"/>
		<stop  offset="1" style="stop-color:#FF7BAC;stop-opacity:0"/>
	</linearGradient>
	<path class="st31" d="M9,131.04l0.02,1c4.41,0.01,7.99,3.61,7.98,8.02c-0.01,4.4-3.6,7.98-8.02,7.98
		c-4.41-0.01-7.99-3.61-7.98-8.02c0.01-4.4,3.6-7.98,8-7.98L9,131.04 M9,131.04c-4.96,0-8.99,4.01-9,8.98s4,9.01,8.98,9.02
		c0.01,0,0.02,0,0.03,0c4.96,0,8.99-4.01,9-8.98s-4-9.01-8.98-9.02C9.02,131.04,9.01,131.04,9,131.04L9,131.04z"/>
</g>
<g>
	
		<linearGradient id="SVGID_33_" gradientUnits="userSpaceOnUse" x1="11.7787" y1="177.3312" x2="24.7783" y2="177.3312" gradientTransform="matrix(-0.9993 0.0385 0.0385 0.9993 22.8206 -55.3708)">
		<stop  offset="0" style="stop-color:#FFFFFF"/>
		<stop  offset="1" style="stop-color:#000000"/>
	</linearGradient>
	<circle class="st32" cx="11.38" cy="122.54" r="6.5"/>
	
		<linearGradient id="SVGID_34_" gradientUnits="userSpaceOnUse" x1="17.8714" y1="177.7105" x2="4.883" y2="177.2095" gradientTransform="matrix(1 0 0 -1 0 300)">
		<stop  offset="0" style="stop-color:#FFFFFF"/>
		<stop  offset="1" style="stop-color:#000000"/>
	</linearGradient>
	<path class="st33" d="M11.38,117.04c2.97,0,5.39,2.33,5.49,5.3c0.05,1.47-0.47,2.87-1.47,3.94s-2.36,1.7-3.83,1.75
		c-0.07,0-0.13,0-0.2,0c-2.97,0-5.39-2.33-5.49-5.3c-0.05-1.47,0.47-2.87,1.47-3.94c1-1.08,2.36-1.7,3.83-1.75
		C11.25,117.04,11.32,117.04,11.38,117.04 M11.38,116.04c-0.08,0-0.16,0-0.24,0c-3.59,0.13-6.39,3.14-6.26,6.73
		c0.13,3.51,3.01,6.27,6.49,6.27c0.08,0,0.16,0,0.24,0c3.59-0.13,6.39-3.14,6.26-6.73C17.75,118.8,14.87,116.04,11.38,116.04
		L11.38,116.04z"/>
</g>
<g>
	
		<linearGradient id="SVGID_35_" gradientUnits="userSpaceOnUse" x1="13.9383" y1="212.7737" x2="31.9391" y2="212.7737" gradientTransform="matrix(0.9943 0.107 0.107 -0.9943 -22.6453 296.1765)">
		<stop  offset="0" style="stop-color:#FF7BAC"/>
		<stop  offset="1" style="stop-color:#FF7BAC;stop-opacity:0"/>
	</linearGradient>
	<circle class="st34" cx="22.93" cy="87.07" r="9"/>
	
		<linearGradient id="SVGID_36_" gradientUnits="userSpaceOnUse" x1="13.9866" y1="213.8944" x2="31.8826" y2="211.9688" gradientTransform="matrix(1 0 0 -1 0 300)">
		<stop  offset="0" style="stop-color:#FF7BAC"/>
		<stop  offset="1" style="stop-color:#FF7BAC;stop-opacity:0"/>
	</linearGradient>
	<path class="st35" d="M22.92,79.07L22.92,79.07c0.29,0,0.59,0.02,0.89,0.05c4.38,0.48,7.56,4.44,7.07,8.83
		c-0.45,4.06-3.86,7.12-7.94,7.12c-0.29,0-0.59-0.02-0.89-0.05c-4.38-0.48-7.56-4.44-7.07-8.83C15.42,82.13,18.84,79.07,22.92,79.07
		 M22.92,78.07c-4.53,0-8.43,3.41-8.93,8.01c-0.55,4.94,3.02,9.39,7.96,9.93c0.34,0.04,0.67,0.06,1,0.06c4.53,0,8.43-3.41,8.93-8.01
		c0.55-4.94-3.02-9.39-7.96-9.93C23.58,78.08,23.25,78.07,22.92,78.07L22.92,78.07z"/>
</g>
<g>
	
		<linearGradient id="SVGID_37_" gradientUnits="userSpaceOnUse" x1="12.7879" y1="194.1438" x2="25.791" y2="194.1438" gradientTransform="matrix(-0.9772 0.2122 0.2122 0.9772 -5.9134 -88.2605)">
		<stop  offset="0" style="stop-color:#FFFFFF"/>
		<stop  offset="1" style="stop-color:#000000"/>
	</linearGradient>
	<circle class="st36" cx="16.43" cy="105.55" r="6.5"/>
	
		<linearGradient id="SVGID_38_" gradientUnits="userSpaceOnUse" x1="22.7811" y1="195.8246" x2="10.0774" y2="193.0654" gradientTransform="matrix(1 0 0 -1 0 300)">
		<stop  offset="0" style="stop-color:#FFFFFF"/>
		<stop  offset="1" style="stop-color:#000000"/>
	</linearGradient>
	<path class="st37" d="M16.43,100.05L16.43,100.05c2.57,0,4.83,1.83,5.37,4.35c0.64,2.97-1.26,5.89-4.23,6.53
		c-0.38,0.08-0.77,0.12-1.16,0.12c-2.57,0-4.83-1.83-5.37-4.35c-0.64-2.97,1.26-5.89,4.23-6.53
		C15.66,100.09,16.05,100.05,16.43,100.05 M16.43,99.05c-0.45,0-0.91,0.05-1.37,0.15c-3.51,0.75-5.75,4.21-4.99,7.72
		c0.65,3.05,3.35,5.14,6.35,5.14c0.45,0,0.91-0.05,1.37-0.15c3.51-0.75,5.75-4.21,4.99-7.72C22.13,101.14,19.43,99.05,16.43,99.05
		L16.43,99.05z"/>
</g>
<g>
	
		<linearGradient id="SVGID_39_" gradientUnits="userSpaceOnUse" x1="40.5166" y1="247.3895" x2="53.5196" y2="247.3895" gradientTransform="matrix(-0.9673 -0.2537 -0.2537 0.9673 155.2633 -174.7514)">
		<stop  offset="0" style="stop-color:#FFFFFF"/>
		<stop  offset="1" style="stop-color:#000000"/>
	</linearGradient>
	<circle class="st38" cx="47.02" cy="52.62" r="6.5"/>
	
		<linearGradient id="SVGID_40_" gradientUnits="userSpaceOnUse" x1="53.314" y1="245.7353" x2="40.736" y2="249.0347" gradientTransform="matrix(1 0 0 -1 0 300)">
		<stop  offset="0" style="stop-color:#FFFFFF"/>
		<stop  offset="1" style="stop-color:#000000"/>
	</linearGradient>
	<path class="st39" d="M47.02,47.11L47.02,47.11c0.47,0,0.95,0.06,1.41,0.19c1.42,0.38,2.61,1.28,3.35,2.55
		c0.74,1.27,0.94,2.75,0.56,4.17c-0.64,2.41-2.82,4.09-5.31,4.09c-0.47,0-0.95-0.06-1.41-0.19c-1.42-0.38-2.61-1.28-3.35-2.55
		c-0.74-1.27-0.94-2.75-0.56-4.17C42.34,48.8,44.53,47.11,47.02,47.11 M47.02,46.11c-2.88,0-5.51,1.92-6.28,4.84
		c-0.92,3.47,1.15,7.03,4.62,7.95c0.56,0.15,1.12,0.22,1.67,0.22c2.88,0,5.51-1.92,6.28-4.84c0.92-3.47-1.15-7.03-4.62-7.95
		C48.13,46.18,47.57,46.11,47.02,46.11L47.02,46.11z"/>
</g>
<g>
	
		<linearGradient id="SVGID_41_" gradientUnits="userSpaceOnUse" x1="66.8166" y1="272.5563" x2="79.8205" y2="272.5563" gradientTransform="matrix(-0.3094 -0.9509 -0.9509 0.3094 355.9486 13.8897)">
		<stop  offset="0" style="stop-color:#FFFFFF"/>
		<stop  offset="1" style="stop-color:#000000"/>
	</linearGradient>
	<circle class="st40" cx="74.09" cy="28.5" r="6.5"/>
	
		<linearGradient id="SVGID_42_" gradientUnits="userSpaceOnUse" x1="76.101" y1="265.3135" x2="72.079" y2="277.6765" gradientTransform="matrix(1 0 0 -1 0 300)">
		<stop  offset="0" style="stop-color:#FFFFFF"/>
		<stop  offset="1" style="stop-color:#000000"/>
	</linearGradient>
	<path class="st41" d="M74.09,23L74.09,23c2.39,0,4.5,1.53,5.23,3.81c0.45,1.4,0.33,2.89-0.34,4.2c-0.67,1.31-1.81,2.28-3.21,2.73
		c-0.55,0.18-1.12,0.27-1.69,0.27c-2.39,0-4.5-1.53-5.23-3.81c-0.45-1.4-0.33-2.89,0.34-4.2s1.81-2.28,3.21-2.73
		C72.95,23.09,73.52,23,74.09,23 M74.09,22c-0.66,0-1.33,0.1-2,0.32c-3.42,1.1-5.29,4.76-4.19,8.18c0.89,2.75,3.44,4.51,6.19,4.51
		c0.66,0,1.33-0.1,2-0.32c3.42-1.1,5.29-4.76,4.19-8.18C79.39,23.75,76.84,22,74.09,22L74.09,22z"/>
</g>
<g>
	
		<linearGradient id="SVGID_43_" gradientUnits="userSpaceOnUse" x1="50.561" y1="260.8493" x2="68.5617" y2="260.8493" gradientTransform="matrix(0.7425 0.6698 0.6698 -0.7425 -159.3795 192.9364)">
		<stop  offset="0" style="stop-color:#FF7BAC"/>
		<stop  offset="1" style="stop-color:#FF7BAC;stop-opacity:0"/>
	</linearGradient>
	<circle class="st42" cx="59.56" cy="39.15" r="9"/>
	
		<linearGradient id="SVGID_44_" gradientUnits="userSpaceOnUse" x1="52.8757" y1="266.8823" x2="66.2376" y2="254.8277" gradientTransform="matrix(1 0 0 -1 0 300)">
		<stop  offset="0" style="stop-color:#FF7BAC"/>
		<stop  offset="1" style="stop-color:#FF7BAC;stop-opacity:0"/>
	</linearGradient>
	<path class="st43" d="M59.56,31.15L59.56,31.15c1.99,0,3.9,0.74,5.37,2.07c3.27,2.96,3.51,8.03,0.55,11.3
		c-1.51,1.67-3.67,2.63-5.93,2.63c-1.99,0-3.9-0.74-5.37-2.07c-3.27-2.96-3.51-8.03-0.55-11.3C55.15,32.11,57.31,31.15,59.56,31.15
		 M59.56,30.15c-2.45,0-4.89,1-6.67,2.95c-3.34,3.68-3.06,9.37,0.62,12.71c1.72,1.56,3.89,2.33,6.04,2.33c2.45,0,4.89-1,6.67-2.95
		c3.34-3.68,3.06-9.37-0.62-12.71C63.88,30.92,61.72,30.15,59.56,30.15L59.56,30.15z"/>
</g>
<g>
	
		<linearGradient id="SVGID_45_" gradientUnits="userSpaceOnUse" x1="81.6065" y1="279.3043" x2="99.609" y2="279.3043" gradientTransform="matrix(0.8302 0.5574 0.5574 -0.8302 -141.287 202.3737)">
		<stop  offset="0" style="stop-color:#FF7BAC"/>
		<stop  offset="1" style="stop-color:#FF7BAC;stop-opacity:0"/>
	</linearGradient>
	<circle class="st44" cx="89.62" cy="21" r="9"/>
	
		<linearGradient id="SVGID_46_" gradientUnits="userSpaceOnUse" x1="82.1452" y1="284.0184" x2="97.0943" y2="273.9816" gradientTransform="matrix(1 0 0 -1 0 300)">
		<stop  offset="0" style="stop-color:#FF7BAC"/>
		<stop  offset="1" style="stop-color:#FF7BAC;stop-opacity:0"/>
	</linearGradient>
	<path class="st45" d="M89.63,13L89.63,13c1.6,0,3.14,0.47,4.47,1.37c1.77,1.2,2.97,3.01,3.38,5.11s-0.03,4.23-1.22,6
		C94.77,27.69,92.29,29,89.62,29c-1.6,0-3.14-0.47-4.47-1.37c-3.66-2.47-4.62-7.45-2.15-11.11C84.48,14.32,86.96,13,89.63,13
		 M89.63,12c-2.89,0-5.73,1.39-7.47,3.96c-2.78,4.12-1.7,9.71,2.42,12.5c1.54,1.04,3.3,1.54,5.03,1.54c2.89,0,5.73-1.39,7.47-3.96
		c2.78-4.12,1.7-9.71-2.42-12.5C93.12,12.5,91.36,12,89.63,12L89.63,12z"/>
</g>
<g>
	
		<linearGradient id="SVGID_47_" gradientUnits="userSpaceOnUse" x1="204" y1="278" x2="222" y2="278" gradientTransform="matrix(6.123234e-17 1 1 -6.123234e-17 -66 -190)">
		<stop  offset="0" style="stop-color:#FF7BAC"/>
		<stop  offset="1" style="stop-color:#FF7BAC;stop-opacity:0"/>
	</linearGradient>
	<circle class="st46" cx="212" cy="23" r="9"/>
	
		<linearGradient id="SVGID_48_" gradientUnits="userSpaceOnUse" x1="212.005" y1="286" x2="212.005" y2="268" gradientTransform="matrix(1 0 0 -1 0 300)">
		<stop  offset="0" style="stop-color:#FF7BAC"/>
		<stop  offset="1" style="stop-color:#FF7BAC;stop-opacity:0"/>
	</linearGradient>
	<path class="st47" d="M212,14l0.02,1c4.41,0.01,7.99,3.61,7.98,8.02c-0.01,4.4-3.6,7.98-8.02,7.98c-4.41-0.01-7.99-3.61-7.98-8.02
		c0.01-4.4,3.6-7.98,8-7.98V14 M212,14c-4.96,0-8.99,4.01-9,8.98s4,9.01,8.98,9.02c0.01,0,0.02,0,0.03,0c4.96,0,8.99-4.01,9-8.98
		s-4-9.01-8.98-9.02C212.02,14,212.01,14,212,14L212,14z"/>
</g>
<g>
	
		<linearGradient id="SVGID_49_" gradientUnits="userSpaceOnUse" x1="276.7517" y1="140.4755" x2="294.7515" y2="140.4755" gradientTransform="matrix(-0.9989 -0.0476 -0.0476 0.9989 581.1415 32.7308)">
		<stop  offset="0" style="stop-color:#FF7BAC"/>
		<stop  offset="1" style="stop-color:#FF7BAC;stop-opacity:0"/>
	</linearGradient>
	<circle class="st48" cx="289.02" cy="159.45" r="9"/>
	
		<linearGradient id="SVGID_50_" gradientUnits="userSpaceOnUse" x1="297.9992" y1="140.1219" x2="280.0261" y2="140.978" gradientTransform="matrix(1 0 0 -1 0 300)">
		<stop  offset="0" style="stop-color:#FF7BAC"/>
		<stop  offset="1" style="stop-color:#FF7BAC;stop-opacity:0"/>
	</linearGradient>
	<path class="st49" d="M289.01,151.45L289.01,151.45c0.19,0,0.37,0.01,0.56,0.02c2.13,0.15,4.08,1.12,5.48,2.73
		c1.4,1.61,2.09,3.67,1.94,5.81c-0.29,4.17-3.79,7.44-7.97,7.44c-0.19,0-0.38-0.01-0.56-0.02c-2.13-0.15-4.08-1.12-5.48-2.73
		c-1.4-1.61-2.09-3.67-1.94-5.81C281.33,154.72,284.83,151.45,289.01,151.45 M289.01,150.45c-4.69,0-8.64,3.63-8.97,8.38
		c-0.35,4.96,3.39,9.26,8.35,9.6c0.21,0.01,0.42,0.02,0.63,0.02c4.69,0,8.64-3.63,8.97-8.38c0.35-4.96-3.39-9.26-8.35-9.6
		C289.43,150.46,289.22,150.45,289.01,150.45L289.01,150.45z"/>
</g>
<g>
	
		<linearGradient id="SVGID_51_" gradientUnits="userSpaceOnUse" x1="281" y1="123.04" x2="294" y2="123.04" gradientTransform="matrix(1 0 0 -1 0 300)">
		<stop  offset="0" style="stop-color:#FFFFFF"/>
		<stop  offset="1" style="stop-color:#000000"/>
	</linearGradient>
	<circle class="st50" cx="287.5" cy="176.96" r="6.5"/>
	
		<linearGradient id="SVGID_52_" gradientUnits="userSpaceOnUse" x1="280.9984" y1="123.04" x2="293.9984" y2="123.04" gradientTransform="matrix(1 0 0 -1 0 300)">
		<stop  offset="0" style="stop-color:#FFFFFF"/>
		<stop  offset="1" style="stop-color:#000000"/>
	</linearGradient>
	<path class="st51" d="M287.5,171.46L287.5,171.46h0.12c1.47,0.03,2.84,0.63,3.85,1.7c1.02,1.06,1.56,2.45,1.53,3.92
		c-0.06,2.97-2.53,5.38-5.5,5.38h-0.12c-1.47-0.03-2.84-0.63-3.85-1.7c-1.02-1.06-1.56-2.45-1.53-3.92
		C282.07,173.87,284.54,171.46,287.5,171.46 M287.5,170.46c-3.52,0-6.42,2.82-6.5,6.36c-0.08,3.59,2.77,6.56,6.36,6.64
		c0.05,0,0.1,0,0.15,0c3.52,0,6.42-2.82,6.5-6.36c0.08-3.59-2.77-6.56-6.36-6.64C287.6,170.46,287.55,170.46,287.5,170.46
		L287.5,170.46z"/>
</g>
<g>
	
		<linearGradient id="SVGID_53_" gradientUnits="userSpaceOnUse" x1="270.72" y1="89.0126" x2="288.7248" y2="89.0126" gradientTransform="matrix(-0.8893 -0.4572 -0.4572 0.8893 563.898 260.9702)">
		<stop  offset="0" style="stop-color:#FF7BAC"/>
		<stop  offset="1" style="stop-color:#FF7BAC;stop-opacity:0"/>
	</linearGradient>
	<circle class="st52" cx="274.44" cy="212.24" r="9"/>
	
		<linearGradient id="SVGID_54_" gradientUnits="userSpaceOnUse" x1="282.4471" y1="83.6456" x2="266.4415" y2="91.8744" gradientTransform="matrix(1 0 0 -1 0 300)">
		<stop  offset="0" style="stop-color:#FF7BAC"/>
		<stop  offset="1" style="stop-color:#FF7BAC;stop-opacity:0"/>
	</linearGradient>
	<path class="st53" d="M274.45,204.24L274.45,204.24c1.32,0,2.64,0.33,3.8,0.97c1.88,1.02,3.25,2.71,3.86,4.76s0.38,4.21-0.64,6.09
		c-1.4,2.58-4.1,4.19-7.04,4.19c-1.32,0-2.64-0.33-3.8-0.97c-1.88-1.02-3.25-2.71-3.86-4.76s-0.38-4.21,0.64-6.09
		C268.81,205.85,271.5,204.24,274.45,204.24 M274.45,203.24c-3.2,0-6.29,1.71-7.92,4.71c-2.37,4.37-0.75,9.83,3.62,12.2
		c1.36,0.74,2.83,1.09,4.28,1.09c3.2,0,6.29-1.71,7.92-4.71c2.37-4.37,0.75-9.83-3.62-12.2
		C277.37,203.59,275.9,203.24,274.45,203.24L274.45,203.24z"/>
</g>
<g>
	
		<linearGradient id="SVGID_55_" gradientUnits="userSpaceOnUse" x1="275.4938" y1="106.11" x2="288.4938" y2="106.11" gradientTransform="matrix(1 0 0 -1 0 300)">
		<stop  offset="0" style="stop-color:#FFFFFF"/>
		<stop  offset="1" style="stop-color:#000000"/>
	</linearGradient>
	<circle class="st54" cx="281.99" cy="193.89" r="6.5"/>
	
		<linearGradient id="SVGID_56_" gradientUnits="userSpaceOnUse" x1="275.4922" y1="106.11" x2="288.4922" y2="106.11" gradientTransform="matrix(1 0 0 -1 0 300)">
		<stop  offset="0" style="stop-color:#FFFFFF"/>
		<stop  offset="1" style="stop-color:#000000"/>
	</linearGradient>
	<path class="st55" d="M281.99,188.39L281.99,188.39h0.12c1.47,0.03,2.84,0.63,3.85,1.7c1.02,1.06,1.56,2.45,1.53,3.92
		c-0.06,2.97-2.53,5.38-5.5,5.38h-0.12c-1.47-0.03-2.84-0.63-3.85-1.7c-1.02-1.06-1.56-2.45-1.53-3.92
		C276.56,190.8,279.02,188.39,281.99,188.39 M281.99,187.39c-3.52,0-6.42,2.82-6.5,6.36c-0.08,3.59,2.77,6.56,6.36,6.64
		c0.05,0,0.1,0,0.15,0c3.52,0,6.42-2.82,6.5-6.36c0.08-3.59-2.77-6.56-6.36-6.64C282.09,187.39,282.04,187.39,281.99,187.39
		L281.99,187.39z"/>
</g>
<g>
	
		<linearGradient id="SVGID_57_" gradientUnits="userSpaceOnUse" x1="248.4488" y1="53.3075" x2="261.4513" y2="53.3075" gradientTransform="matrix(0.866 0.5 0.5 -0.866 8.1767 160.1821)">
		<stop  offset="0" style="stop-color:#FFFFFF"/>
		<stop  offset="1" style="stop-color:#000000"/>
	</linearGradient>
	<circle class="st56" cx="255.62" cy="241.49" r="6.5"/>
	
		<linearGradient id="SVGID_58_" gradientUnits="userSpaceOnUse" x1="249.9852" y1="61.7554" x2="261.2387" y2="55.2581" gradientTransform="matrix(1 0 0 -1 0 300)">
		<stop  offset="0" style="stop-color:#FFFFFF"/>
		<stop  offset="1" style="stop-color:#000000"/>
	</linearGradient>
	<path class="st57" d="M255.62,235.99L255.62,235.99c1,0,1.99,0.28,2.85,0.8c2.59,1.57,3.42,4.96,1.85,7.56
		c-1.01,1.66-2.77,2.65-4.71,2.65c-1,0-1.99-0.28-2.85-0.8c-2.59-1.57-3.42-4.96-1.85-7.56
		C251.92,236.98,253.68,235.99,255.62,235.99 M255.62,234.99c-2.2,0-4.34,1.11-5.56,3.13c-1.86,3.07-0.88,7.07,2.18,8.93
		c1.05,0.64,2.22,0.94,3.37,0.94c2.2,0,4.34-1.11,5.56-3.13c1.86-3.07,0.88-7.07-2.18-8.93
		C257.94,235.3,256.77,234.99,255.62,234.99L255.62,234.99z"/>
</g>
<g>
	
		<linearGradient id="SVGID_59_" gradientUnits="userSpaceOnUse" x1="221.6952" y1="26.1433" x2="234.6953" y2="26.1433" gradientTransform="matrix(0.7071 0.7071 0.7071 -0.7071 48.1598 123.2462)">
		<stop  offset="0" style="stop-color:#FFFFFF"/>
		<stop  offset="1" style="stop-color:#000000"/>
	</linearGradient>
	<circle class="st58" cx="228" cy="266.12" r="6.5"/>
	
		<linearGradient id="SVGID_60_" gradientUnits="userSpaceOnUse" x1="223.4092" y1="38.4817" x2="232.6063" y2="29.2844" gradientTransform="matrix(1 0 0 -1 0 300)">
		<stop  offset="0" style="stop-color:#FFFFFF"/>
		<stop  offset="1" style="stop-color:#000000"/>
	</linearGradient>
	<path class="st59" d="M228,260.62L228,260.62c1.51,0,2.93,0.6,3.97,1.7c1.02,1.06,1.56,2.45,1.53,3.92s-0.63,2.84-1.7,3.85
		c-1.03,0.98-2.38,1.53-3.8,1.53c-1.52,0-2.93-0.6-3.97-1.7c-1.02-1.06-1.56-2.45-1.53-3.92s0.63-2.84,1.7-3.85
		C225.22,261.16,226.57,260.62,228,260.62 M228,259.62c-1.62,0-3.23,0.6-4.49,1.8c-2.59,2.48-2.68,6.6-0.2,9.19
		c1.28,1.33,2.99,2.01,4.7,2.01c1.62,0,3.23-0.6,4.49-1.8c2.59-2.48,2.68-6.6,0.2-9.19C231.42,260.29,229.71,259.62,228,259.62
		L228,259.62z"/>
</g>
<g>
	
		<linearGradient id="SVGID_61_" gradientUnits="userSpaceOnUse" x1="251.2108" y1="49.8674" x2="269.2149" y2="49.8674" gradientTransform="matrix(-0.4332 -0.9013 -0.9013 0.4332 398.7817 467.9301)">
		<stop  offset="0" style="stop-color:#FF7BAC"/>
		<stop  offset="1" style="stop-color:#FF7BAC;stop-opacity:0"/>
	</linearGradient>
	<circle class="st60" cx="241.11" cy="255" r="9"/>
	
		<linearGradient id="SVGID_62_" gradientUnits="userSpaceOnUse" x1="245.007" y1="36.8885" x2="237.2068" y2="53.1157" gradientTransform="matrix(1 0 0 -1 0 300)">
		<stop  offset="0" style="stop-color:#FF7BAC"/>
		<stop  offset="1" style="stop-color:#FF7BAC;stop-opacity:0"/>
	</linearGradient>
	<path class="st61" d="M241.1,246.99L241.1,246.99c3.13,0,5.99,1.84,7.29,4.69c1.82,4.02,0.04,8.77-3.98,10.59
		c-1.05,0.48-2.16,0.72-3.3,0.72c-3.13,0-5.99-1.84-7.29-4.69c-1.82-4.02-0.04-8.77,3.98-10.59
		C238.85,247.24,239.96,246.99,241.1,246.99 M241.1,245.99c-1.24,0-2.51,0.26-3.72,0.81c-4.53,2.05-6.53,7.39-4.47,11.92
		c1.51,3.32,4.78,5.28,8.2,5.28c1.24,0,2.51-0.26,3.72-0.81c4.53-2.05,6.53-7.39,4.47-11.92
		C247.79,247.96,244.52,245.99,241.1,245.99L241.1,245.99z"/>
</g>
<circle class="st62" cx="221.75" cy="277.91" r="9"/>
<g>
	
		<linearGradient id="SVGID_63_" gradientUnits="userSpaceOnUse" x1="216.6152" y1="29.1266" x2="234.6187" y2="29.1266" gradientTransform="matrix(-0.1808 -0.9835 -0.9835 0.1808 281.4058 490.3954)">
		<stop  offset="0" style="stop-color:#FF7BAC"/>
		<stop  offset="1" style="stop-color:#FF7BAC;stop-opacity:0"/>
	</linearGradient>
	<circle class="st63" cx="211.97" cy="273.77" r="9"/>
	
		<linearGradient id="SVGID_64_" gradientUnits="userSpaceOnUse" x1="213.5953" y1="17.3767" x2="210.3412" y2="35.079" gradientTransform="matrix(1 0 0 -1 0 300)">
		<stop  offset="0" style="stop-color:#FF7BAC"/>
		<stop  offset="1" style="stop-color:#FF7BAC;stop-opacity:0"/>
	</linearGradient>
	<path class="st64" d="M211.98,265.77L211.98,265.77c3.94,0,7.26,2.83,7.89,6.73c0.34,2.11-0.16,4.23-1.41,5.96
		c-1.25,1.73-3.1,2.87-5.21,3.21c-0.43,0.07-0.86,0.1-1.28,0.1c-3.94,0-7.26-2.83-7.89-6.73c-0.34-2.11,0.16-4.23,1.41-5.96
		c1.25-1.73,3.1-2.87,5.21-3.21C211.12,265.8,211.55,265.77,211.98,265.77 M211.98,264.77c-0.48,0-0.96,0.04-1.44,0.12
		c-4.91,0.79-8.24,5.41-7.45,10.32c0.71,4.42,4.53,7.57,8.87,7.57c0.48,0,0.96-0.04,1.44-0.12c4.91-0.79,8.24-5.41,7.45-10.32
		C220.14,267.92,216.32,264.77,211.98,264.77L211.98,264.77z"/>
</g>
<g id="RED">
</g>
</svg>
