<?xml version="1.0" encoding="utf-8"?>
<!-- Generator: Adobe Illustrator 23.0.0, SVG Export Plug-In . SVG Version: 6.00 Build 0)  -->
<svg version="1.1" id="Capa_1" xmlns="http://www.w3.org/2000/svg" xmlns:xlink="http://www.w3.org/1999/xlink" x="0px" y="0px"
	 viewBox="0 0 300 300" style="enable-background:new 0 0 300 300;" xml:space="preserve">
<style type="text/css">
	.st0{fill:#FF1D25;}
</style>
<g>
	<circle class="st0" cx="156" cy="9.5" r="8.5"/>
	<path class="st0" d="M156,1.5c4.41,0,8,3.59,8,8s-3.59,8-8,8s-8-3.59-8-8S151.59,1.5,156,1.5 M156,0.5c-4.97,0-9,4.03-9,9
		s4.03,9,9,9s9-4.03,9-9S160.97,0.5,156,0.5L156,0.5z"/>
</g>
<g>
	<circle cx="175.5" cy="11.21" r="6"/>
	<path d="M175.5,5.71c3.03,0,5.5,2.47,5.5,5.5s-2.47,5.5-5.5,5.5s-5.5-2.47-5.5-5.5S172.47,5.71,175.5,5.71 M175.5,4.71
		c-3.59,0-6.5,2.91-6.5,6.5s2.91,6.5,6.5,6.5s6.5-2.91,6.5-6.5S179.09,4.71,175.5,4.71L175.5,4.71z"/>
</g>
<g>
	<circle class="st0" cx="210.57" cy="23.14" r="8.5"/>
	<path class="st0" d="M210.57,15.14c4.41,0,8,3.59,8,8s-3.59,8-8,8s-8-3.59-8-8S206.16,15.14,210.57,15.14 M210.57,14.14
		c-4.97,0-9,4.03-9,9s4.03,9,9,9s9-4.03,9-9S215.54,14.14,210.57,14.14L210.57,14.14z"/>
</g>
<g>
	<circle cx="192.5" cy="15.5" r="6"/>
	<path d="M192.5,10c3.03,0,5.5,2.47,5.5,5.5s-2.47,5.5-5.5,5.5s-5.5-2.47-5.5-5.5S189.47,10,192.5,10 M192.5,9
		c-3.59,0-6.5,2.91-6.5,6.5s2.91,6.5,6.5,6.5s6.5-2.91,6.5-6.5S196.09,9,192.5,9L192.5,9z"/>
</g>
<g>
	<circle cx="242.36" cy="42.5" r="6"/>
	<path d="M242.36,37c3.03,0,5.5,2.47,5.5,5.5s-2.47,5.5-5.5,5.5s-5.5-2.47-5.5-5.5S239.33,37,242.36,37 M242.36,36
		c-3.59,0-6.5,2.91-6.5,6.5s2.91,6.5,6.5,6.5s6.5-2.91,6.5-6.5S245.95,36,242.36,36L242.36,36z"/>
</g>
<g>
	<circle cx="267.64" cy="73.5" r="6"/>
	<path d="M267.64,68c3.03,0,5.5,2.47,5.5,5.5s-2.47,5.5-5.5,5.5s-5.5-2.47-5.5-5.5S264.61,68,267.64,68 M267.64,67
		c-3.59,0-6.5,2.91-6.5,6.5s2.91,6.5,6.5,6.5s6.5-2.91,6.5-6.5S271.23,67,267.64,67L267.64,67z"/>
</g>
<g>
	<circle class="st0" cx="255" cy="57" r="8.5"/>
	<path class="st0" d="M255,49c4.41,0,8,3.59,8,8s-3.59,8-8,8s-8-3.59-8-8S250.59,49,255,49 M255,48c-4.97,0-9,4.03-9,9s4.03,9,9,9
		s9-4.03,9-9S259.97,48,255,48L255,48z"/>
</g>
<g>
	<circle class="st0" cx="276.64" cy="91" r="8.5"/>
	<path class="st0" d="M276.64,83c4.41,0,8,3.59,8,8s-3.59,8-8,8s-8-3.59-8-8S272.23,83,276.64,83 M276.64,82c-4.97,0-9,4.03-9,9
		s4.03,9,9,9s9-4.03,9-9S281.61,82,276.64,82L276.64,82z"/>
</g>
<g>
	<path class="st0" d="M142.17,298.15c-2.27-0.04-4.39-0.97-5.96-2.6c-1.58-1.64-2.42-3.79-2.37-6.06c0.09-4.6,3.9-8.34,8.5-8.34
		h0.17c2.27,0.04,4.39,0.97,5.96,2.6c1.58,1.64,2.42,3.79,2.37,6.06c-0.09,4.6-3.9,8.34-8.49,8.34H142.17z"/>
	<path class="st0" d="M142.33,280.65v1h0.16c4.41,0.08,7.93,3.74,7.85,8.15c-0.08,4.33-3.67,7.85-8,7.85h-0.16
		c-2.14-0.04-4.13-0.91-5.61-2.45s-2.28-3.56-2.23-5.7c0.08-4.33,3.67-7.85,8-7.85L142.33,280.65 M142.32,280.65
		c-4.89,0-8.9,3.92-8.99,8.83c-0.1,4.97,3.86,9.08,8.83,9.17c0.06,0,0.12,0,0.18,0c4.89,0,8.9-3.92,8.99-8.83
		c0.1-4.97-3.86-9.08-8.83-9.17C142.44,280.65,142.38,280.65,142.32,280.65L142.32,280.65z"/>
</g>
<g>
	<path d="M124.72,292.9c-1.6-0.03-3.1-0.68-4.21-1.84s-1.71-2.67-1.68-4.28c0.06-3.25,2.75-5.88,6-5.88h0.12
		c1.6,0.03,3.1,0.68,4.21,1.84s1.71,2.67,1.68,4.27c-0.06,3.25-2.75,5.89-6,5.89H124.72z"/>
	<path d="M124.83,281.4L124.83,281.4h0.11c1.47,0.03,2.84,0.63,3.86,1.69c1.02,1.06,1.56,2.45,1.54,3.92
		c-0.06,2.97-2.52,5.39-5.5,5.39h-0.11c-3.03-0.06-5.45-2.57-5.39-5.6C119.39,283.82,121.86,281.4,124.83,281.4 M124.83,280.4
		c-3.53,0-6.43,2.83-6.5,6.38c-0.07,3.59,2.79,6.55,6.37,6.62c0.04,0,0.08,0,0.13,0c3.53,0,6.43-2.83,6.5-6.38
		c0.07-3.59-2.79-6.55-6.37-6.62C124.91,280.4,124.87,280.4,124.83,280.4L124.83,280.4z"/>
</g>
<g>
	<path class="st0" d="M89.34,285.4c-4.69-0.09-8.43-3.98-8.34-8.66c0.09-4.6,3.9-8.34,8.5-8.34h0.17c4.69,0.09,8.43,3.98,8.34,8.66
		c-0.09,4.6-3.9,8.34-8.5,8.34H89.34z"/>
	<path class="st0" d="M89.5,267.9v1h0.16c4.41,0.08,7.93,3.74,7.85,8.15c-0.08,4.33-3.67,7.85-8,7.85h-0.16
		c-4.41-0.08-7.93-3.74-7.85-8.15c0.08-4.33,3.67-7.85,8-7.85V267.9 M89.5,267.9c-4.89,0-8.9,3.92-8.99,8.83
		c-0.1,4.97,3.86,9.08,8.83,9.17c0.06,0,0.12,0,0.18,0c4.89,0,8.9-3.92,8.99-8.83c0.1-4.97-3.86-9.08-8.83-9.17
		C89.61,267.9,89.56,267.9,89.5,267.9L89.5,267.9z"/>
</g>
<g>
	<path d="M107.78,289.91c-1.6-0.03-3.1-0.68-4.21-1.84c-1.11-1.15-1.71-2.67-1.68-4.28c0.06-3.25,2.75-5.89,6-5.89h0.12
		c1.6,0.03,3.1,0.68,4.21,1.84s1.71,2.67,1.68,4.28c-0.06,3.25-2.75,5.89-6,5.89H107.78z"/>
	<path d="M107.89,278.41L107.89,278.41H108c1.47,0.03,2.84,0.63,3.86,1.69c1.02,1.06,1.56,2.45,1.54,3.92
		c-0.06,2.97-2.52,5.39-5.5,5.39h-0.11c-3.03-0.06-5.45-2.57-5.39-5.6C102.45,280.83,104.92,278.41,107.89,278.41 M107.89,277.41
		c-3.53,0-6.43,2.83-6.5,6.38c-0.07,3.59,2.79,6.55,6.37,6.62c0.04,0,0.08,0,0.13,0c3.53,0,6.43-2.83,6.5-6.38
		c0.07-3.59-2.79-6.55-6.37-6.62C107.97,277.41,107.93,277.41,107.89,277.41L107.89,277.41z"/>
</g>
<g>
	<path d="M57.24,261.98c-3.31-0.06-5.95-2.81-5.88-6.11c0.06-3.25,2.75-5.89,6-5.89h0.12c1.6,0.03,3.1,0.68,4.21,1.84
		s1.71,2.67,1.68,4.28c-0.06,3.25-2.75,5.89-6,5.89L57.24,261.98z"/>
	<path d="M57.35,250.48L57.35,250.48h0.11c1.47,0.03,2.84,0.63,3.86,1.69s1.56,2.45,1.54,3.92c-0.06,2.97-2.52,5.39-5.5,5.39h-0.11
		c-1.47-0.03-2.84-0.63-3.86-1.69s-1.56-2.45-1.54-3.92C51.91,252.9,54.38,250.48,57.35,250.48 M57.35,249.48
		c-3.53,0-6.43,2.83-6.5,6.38c-0.07,3.59,2.79,6.55,6.37,6.62c0.04,0,0.08,0,0.13,0c3.53,0,6.43-2.83,6.5-6.38
		c0.07-3.59-2.79-6.55-6.37-6.62C57.43,249.48,57.39,249.48,57.35,249.48L57.35,249.48z"/>
</g>
<g>
	<path d="M32.76,234.51c-3.31-0.06-5.95-2.81-5.88-6.11c0.06-3.25,2.75-5.89,6-5.89H33c1.6,0.03,3.1,0.68,4.21,1.84
		s1.71,2.67,1.68,4.27c-0.06,3.25-2.75,5.89-6,5.89H32.76z"/>
	<path d="M32.87,223.01L32.87,223.01h0.11c3.03,0.06,5.45,2.57,5.39,5.6c-0.06,2.97-2.52,5.39-5.5,5.39h-0.11
		c-3.03-0.06-5.45-2.57-5.39-5.6C27.43,225.43,29.9,223.01,32.87,223.01 M32.87,222.01c-3.53,0-6.43,2.83-6.5,6.38
		c-0.07,3.59,2.79,6.55,6.37,6.62c0.04,0,0.08,0,0.13,0c3.53,0,6.43-2.83,6.5-6.38c0.07-3.59-2.79-6.55-6.37-6.62
		C32.96,222.01,32.91,222.01,32.87,222.01L32.87,222.01z"/>
</g>
<g>
	<path class="st0" d="M43.93,251.72c-4.69-0.09-8.43-3.98-8.34-8.66c0.09-4.6,3.9-8.34,8.5-8.34h0.17c4.69,0.09,8.43,3.98,8.34,8.66
		c-0.09,4.6-3.9,8.34-8.49,8.34H43.93z"/>
	<path class="st0" d="M44.09,234.23v1h0.16c2.14,0.04,4.13,0.91,5.61,2.45s2.28,3.56,2.23,5.7c-0.08,4.33-3.67,7.85-8,7.85h-0.16
		c-4.41-0.08-7.93-3.74-7.85-8.15c0.08-4.33,3.67-7.85,8-7.85L44.09,234.23 M44.09,234.23c-4.89,0-8.9,3.92-8.99,8.83
		c-0.1,4.97,3.86,9.08,8.83,9.17c0.06,0,0.12,0,0.18,0c4.89,0,8.9-3.92,8.99-8.83c0.1-4.97-3.86-9.08-8.83-9.17
		C44.21,234.23,44.15,234.23,44.09,234.23L44.09,234.23z"/>
</g>
<g>
	<path class="st0" d="M24.51,221.35c-4.69-0.09-8.43-3.98-8.34-8.66c0.09-4.6,3.9-8.34,8.5-8.34h0.17c4.69,0.09,8.43,3.98,8.34,8.66
		c-0.09,4.6-3.9,8.34-8.5,8.34H24.51z"/>
	<path class="st0" d="M24.67,203.85v1h0.16c2.14,0.04,4.13,0.91,5.61,2.45c1.48,1.54,2.28,3.56,2.23,5.7
		c-0.08,4.33-3.67,7.85-8,7.85h-0.16c-2.14-0.04-4.13-0.91-5.61-2.45s-2.28-3.56-2.23-5.7c0.08-4.33,3.67-7.85,8-7.85L24.67,203.85
		 M24.67,203.85c-4.89,0-8.9,3.92-8.99,8.83c-0.1,4.97,3.86,9.08,8.83,9.17c0.06,0,0.12,0,0.18,0c4.89,0,8.9-3.92,8.99-8.83
		c0.1-4.97-3.86-9.08-8.83-9.17C24.79,203.85,24.73,203.85,24.67,203.85L24.67,203.85z"/>
</g>
<g>
	<path class="st0" d="M9.34,148.04c-2.27-0.01-4.4-0.9-6-2.51s-2.48-3.75-2.47-6.02c0.01-4.67,3.83-8.48,8.5-8.48
		c2.29,0.01,4.43,0.9,6.03,2.51s2.48,3.75,2.47,6.02c-0.01,4.67-3.83,8.48-8.5,8.48H9.34z"/>
	<path class="st0" d="M9.36,130.54l0.02,1c4.41,0.01,7.99,3.61,7.98,8.02c-0.01,4.4-3.6,7.98-8.02,7.98
		c-4.41-0.01-7.99-3.61-7.98-8.02c0.01-4.4,3.6-7.98,8-7.98L9.36,130.54 M9.36,130.54c-4.96,0-8.99,4.01-9,8.98s4,9.01,8.98,9.02
		c0.01,0,0.02,0,0.03,0c4.96,0,8.99-4.01,9-8.98s-4-9.01-8.98-9.02C9.38,130.54,9.37,130.54,9.36,130.54L9.36,130.54z"/>
</g>
<g>
	<path d="M11.89,128.03c-3.31-0.01-5.99-2.71-5.98-6.02c0.01-3.3,2.7-5.98,6-5.98c3.32,0.01,6.01,2.71,6,6.02
		c-0.01,3.3-2.7,5.98-6,5.98H11.89z"/>
	<path d="M11.91,115.53l0.01,1c1.47,0,2.85,0.58,3.88,1.62c1.04,1.04,1.6,2.42,1.6,3.89c-0.01,3.02-2.48,5.48-5.52,5.48
		c-3.03-0.01-5.49-2.48-5.48-5.52c0.01-3.02,2.48-5.48,5.5-5.48L11.91,115.53 M11.91,115.53c-3.58,0-6.49,2.9-6.5,6.48
		c-0.01,3.59,2.89,6.51,6.48,6.52c0.01,0,0.01,0,0.02,0c3.58,0,6.49-2.9,6.5-6.48c0.01-3.59-2.89-6.51-6.48-6.52
		C11.92,115.53,11.91,115.53,11.91,115.53L11.91,115.53z"/>
</g>
<g>
	<path class="st0" d="M23.34,95.57c-2.27-0.01-4.4-0.9-6-2.51s-2.48-3.75-2.47-6.02c0.01-4.67,3.83-8.48,8.5-8.48
		c4.71,0.01,8.51,3.84,8.5,8.52c-0.01,4.67-3.83,8.48-8.5,8.48h-0.03V95.57z"/>
	<path class="st0" d="M23.37,78.07l0.02,1c4.41,0.01,7.99,3.61,7.98,8.02c-0.01,4.4-3.6,7.98-8.02,7.98
		c-2.14-0.01-4.14-0.84-5.65-2.36c-1.51-1.52-2.33-3.53-2.33-5.66c0.01-4.4,3.6-7.98,8-7.98V78.07 M23.37,78.07
		c-4.96,0-8.99,4.01-9,8.98s4,9.01,8.98,9.02c0.01,0,0.02,0,0.03,0c4.96,0,8.99-4.01,9-8.98c0.01-4.97-4-9.01-8.98-9.02
		C23.38,78.07,23.37,78.07,23.37,78.07L23.37,78.07z"/>
</g>
<g>
	<path d="M15.35,111.55c-3.31-0.01-5.99-2.71-5.98-6.02c0.01-3.3,2.7-5.98,6-5.98c3.32,0.01,6.01,2.71,6,6.02
		c-0.01,3.3-2.7,5.98-6,5.98H15.35z"/>
	<path d="M15.37,99.05l0.01,1c3.03,0.01,5.49,2.48,5.48,5.52c-0.01,3.02-2.48,5.48-5.52,5.48c-3.03-0.01-5.49-2.48-5.48-5.52
		c0.01-3.02,2.48-5.48,5.5-5.48L15.37,99.05 M15.37,99.05c-3.58,0-6.49,2.9-6.5,6.48c-0.01,3.59,2.89,6.51,6.48,6.52
		c0.01,0,0.01,0,0.02,0c3.58,0,6.49-2.9,6.5-6.48c0.01-3.59-2.89-6.51-6.48-6.52C15.38,99.05,15.37,99.05,15.37,99.05L15.37,99.05z"
		/>
</g>
<g>
	<path d="M47,58.62c-3.31-0.01-5.99-2.71-5.98-6.02c0.01-3.3,2.7-5.98,6-5.98c1.62,0,3.12,0.63,4.25,1.77s1.75,2.64,1.75,4.25
		c-0.01,3.3-2.7,5.98-6,5.98H47z"/>
	<path d="M47.03,46.12l0.01,1c1.47,0,2.85,0.58,3.88,1.62c1.04,1.04,1.6,2.42,1.6,3.89c-0.01,3.02-2.48,5.48-5.52,5.48
		c-3.03-0.01-5.49-2.48-5.48-5.52c0.01-3.02,2.48-5.48,5.5-5.48L47.03,46.12 M47.02,46.12c-3.58,0-6.49,2.9-6.5,6.48
		c-0.01,3.59,2.89,6.51,6.48,6.52c0.01,0,0.01,0,0.02,0c3.58,0,6.49-2.9,6.5-6.48c0.01-3.59-2.89-6.51-6.48-6.52
		C47.03,46.12,47.03,46.12,47.02,46.12L47.02,46.12z"/>
</g>
<g>
	<path d="M76.5,33.69c-3.31-0.01-5.99-2.71-5.98-6.02c0.01-3.3,2.7-5.98,6-5.98c3.33,0.01,6.01,2.71,6,6.02
		c-0.01,3.3-2.7,5.98-6,5.98H76.5z"/>
	<path d="M76.52,21.19l0.01,1c3.03,0.01,5.49,2.48,5.48,5.52c-0.01,3.02-2.48,5.48-5.52,5.48c-1.47,0-2.85-0.58-3.88-1.62
		c-1.04-1.04-1.6-2.42-1.6-3.89c0.01-3.02,2.48-5.48,5.5-5.48L76.52,21.19 M76.52,21.19c-3.58,0-6.49,2.9-6.5,6.48
		c-0.01,3.59,2.89,6.51,6.48,6.52c0.01,0,0.01,0,0.02,0c3.58,0,6.49-2.9,6.5-6.48c0.01-3.59-2.89-6.51-6.48-6.52
		C76.53,21.19,76.52,21.19,76.52,21.19L76.52,21.19z"/>
</g>
<g>
	<path class="st0" d="M62.49,47.15c-2.27-0.01-4.4-0.9-6-2.51s-2.48-3.75-2.47-6.02c0.01-4.67,3.83-8.48,8.5-8.48
		c2.29,0.01,4.43,0.9,6.03,2.51c1.6,1.61,2.48,3.75,2.47,6.02c-0.01,4.67-3.83,8.48-8.5,8.48H62.49z"/>
	<path class="st0" d="M62.52,29.65l0.02,1c4.41,0.01,7.99,3.61,7.98,8.02c-0.01,4.4-3.6,7.98-8.02,7.98
		c-4.41-0.01-7.99-3.61-7.98-8.02c0.01-4.4,3.6-7.98,8-7.98L62.52,29.65 M62.52,29.65c-4.96,0-8.99,4.01-9,8.98s4,9.01,8.98,9.02
		c0.01,0,0.02,0,0.03,0c4.96,0,8.99-4.01,9-8.98s-4-9.01-8.98-9.02C62.53,29.65,62.53,29.65,62.52,29.65L62.52,29.65z"/>
</g>
<g>
	<path class="st0" d="M93.45,28.22c-2.27-0.01-4.4-0.9-6-2.51s-2.48-3.75-2.47-6.02c0.01-4.67,3.83-8.48,8.5-8.48
		c2.29,0.01,4.43,0.9,6.03,2.51s2.48,3.75,2.47,6.02c-0.01,4.67-3.83,8.48-8.5,8.48H93.45z"/>
	<path class="st0" d="M93.47,10.72l0.02,1c4.41,0.01,7.99,3.61,7.98,8.02c-0.01,4.4-3.6,7.98-8.02,7.98
		c-4.41-0.01-7.99-3.61-7.98-8.02c0.01-4.4,3.6-7.98,8-7.98L93.47,10.72 M93.47,10.72c-4.96,0-8.99,4.01-9,8.98s4,9.01,8.98,9.02
		c0.01,0,0.02,0,0.03,0c4.96,0,8.99-4.01,9-8.98s-4-9.01-8.98-9.02C93.49,10.72,93.48,10.72,93.47,10.72L93.47,10.72z"/>
</g>
<g>
	<path class="st0" d="M288.83,167.95c-4.69-0.1-8.41-4-8.31-8.68c0.1-4.58,3.91-8.31,8.49-8.31h0.19c4.69,0.1,8.41,4,8.31,8.68
		c-0.1,4.58-3.91,8.31-8.49,8.31L288.83,167.95z"/>
	<path class="st0" d="M289.01,150.45v1h0.18c2.14,0.05,4.13,0.92,5.6,2.47s2.27,3.57,2.22,5.71c-0.09,4.31-3.68,7.82-7.99,7.82
		h-0.18c-4.41-0.1-7.92-3.76-7.82-8.17c0.09-4.31,3.68-7.82,7.99-7.82V150.45 M289.01,150.45c-4.88,0-8.89,3.9-8.99,8.8
		c-0.11,4.97,3.83,9.09,8.8,9.19c0.07,0,0.13,0,0.2,0c4.88,0,8.89-3.9,8.99-8.8c0.11-4.97-3.83-9.09-8.8-9.19
		C289.15,150.45,289.08,150.45,289.01,150.45L289.01,150.45z"/>
</g>
<g>
	<path d="M286.1,182.96c-1.6-0.04-3.09-0.69-4.2-1.85s-1.7-2.68-1.66-4.28c0.07-3.24,2.76-5.87,6-5.87h0.13
		c1.6,0.04,3.1,0.69,4.2,1.85c1.11,1.16,1.7,2.68,1.66,4.28c-0.07,3.24-2.76,5.87-6,5.87H286.1z"/>
	<path d="M286.23,171.46L286.23,171.46h0.12c1.47,0.03,2.84,0.63,3.85,1.7c1.02,1.06,1.56,2.45,1.53,3.92
		c-0.06,2.97-2.53,5.38-5.5,5.38h-0.12c-1.47-0.03-2.84-0.63-3.85-1.7c-1.02-1.06-1.56-2.45-1.53-3.92
		C280.8,173.87,283.27,171.46,286.23,171.46 M286.23,170.46c-3.52,0-6.42,2.82-6.5,6.36c-0.08,3.59,2.77,6.56,6.36,6.64
		c0.05,0,0.1,0,0.15,0c3.52,0,6.42-2.82,6.5-6.36c0.08-3.59-2.77-6.56-6.36-6.64C286.33,170.46,286.28,170.46,286.23,170.46
		L286.23,170.46z"/>
</g>
<g>
	<path class="st0" d="M274.47,220.74c-2.27-0.05-4.38-0.98-5.96-2.62c-1.57-1.64-2.41-3.79-2.36-6.06c0.1-4.58,3.91-8.31,8.49-8.31
		h0.19c4.69,0.1,8.42,4,8.31,8.68c-0.1,4.58-3.91,8.31-8.49,8.31L274.47,220.74z"/>
	<path class="st0" d="M274.66,204.24L274.66,204.24h0.18c4.41,0.1,7.92,3.76,7.82,8.17c-0.09,4.31-3.68,7.82-7.99,7.82h-0.18
		c-4.41-0.1-7.92-3.76-7.82-8.17C266.76,207.75,270.34,204.24,274.66,204.24 M274.66,203.24c-4.88,0-8.89,3.9-8.99,8.8
		c-0.11,4.97,3.83,9.09,8.8,9.19c0.07,0,0.13,0,0.2,0c4.88,0,8.89-3.9,8.99-8.8c0.11-4.97-3.83-9.09-8.8-9.19
		C274.79,203.24,274.72,203.24,274.66,203.24L274.66,203.24z"/>
</g>
<g>
	<path d="M282.71,199.89c-3.31-0.07-5.94-2.82-5.87-6.13c0.07-3.24,2.76-5.87,6-5.87h0.13c3.31,0.07,5.94,2.82,5.87,6.13
		c-0.07,3.24-2.76,5.87-6,5.87H282.71z"/>
	<path d="M282.84,188.39L282.84,188.39h0.12c1.47,0.03,2.84,0.63,3.85,1.7c1.02,1.06,1.56,2.45,1.53,3.92
		c-0.06,2.97-2.53,5.38-5.5,5.38h-0.12c-1.47-0.03-2.84-0.63-3.85-1.7c-1.02-1.06-1.56-2.45-1.53-3.92
		C277.41,190.8,279.87,188.39,282.84,188.39 M282.84,187.39c-3.52,0-6.42,2.82-6.5,6.36c-0.08,3.59,2.77,6.56,6.36,6.64
		c0.05,0,0.1,0,0.15,0c3.52,0,6.42-2.82,6.5-6.36c0.08-3.59-2.77-6.56-6.36-6.64C282.94,187.39,282.89,187.39,282.84,187.39
		L282.84,187.39z"/>
</g>
<g>
	<path d="M252.84,250.35c-1.6-0.04-3.09-0.69-4.2-1.85c-1.11-1.16-1.7-2.68-1.66-4.28c0.07-3.24,2.76-5.87,6-5.87h0.13
		c1.6,0.04,3.09,0.69,4.2,1.85s1.7,2.68,1.66,4.28c-0.07,3.24-2.76,5.87-6,5.87H252.84z"/>
	<path d="M252.97,238.85L252.97,238.85h0.12c1.47,0.03,2.84,0.63,3.85,1.7c1.02,1.06,1.56,2.45,1.53,3.92
		c-0.06,2.97-2.53,5.38-5.5,5.38h-0.12c-3.03-0.07-5.44-2.59-5.38-5.62C247.53,241.27,250,238.85,252.97,238.85 M252.97,237.85
		c-3.52,0-6.42,2.82-6.5,6.36c-0.08,3.59,2.77,6.56,6.36,6.64c0.05,0,0.1,0,0.15,0c3.52,0,6.42-2.82,6.5-6.36
		c0.08-3.59-2.77-6.56-6.36-6.64C253.06,237.85,253.01,237.85,252.97,237.85L252.97,237.85z"/>
</g>
<g>
	<path d="M222.79,274.9c-1.6-0.04-3.09-0.69-4.2-1.85s-1.7-2.68-1.66-4.28c0.07-3.24,2.76-5.87,6-5.87h0.13
		c3.31,0.07,5.94,2.82,5.87,6.13c-0.07,3.24-2.76,5.87-6,5.87H222.79z"/>
	<path d="M222.91,263.41L222.91,263.41h0.12c3.03,0.07,5.44,2.59,5.38,5.62c-0.06,2.97-2.53,5.38-5.5,5.38h-0.12
		c-3.03-0.07-5.44-2.59-5.38-5.62C217.48,265.82,219.95,263.41,222.91,263.41 M222.91,262.41c-3.52,0-6.42,2.82-6.5,6.36
		c-0.08,3.59,2.77,6.56,6.36,6.64c0.05,0,0.1,0,0.15,0c3.52,0,6.42-2.82,6.5-6.36c0.08-3.59-2.77-6.56-6.36-6.64
		C223.01,262.41,222.96,262.41,222.91,262.41L222.91,262.41z"/>
</g>
<g>
	<path class="st0" d="M239.74,264.64c-4.69-0.1-8.41-4-8.31-8.68c0.1-4.58,3.91-8.31,8.5-8.31h0.19c2.27,0.05,4.38,0.98,5.95,2.62
		s2.41,3.79,2.36,6.06c-0.1,4.58-3.91,8.31-8.5,8.31H239.74z"/>
	<path class="st0" d="M239.92,247.15v1h0.18c2.14,0.05,4.13,0.92,5.6,2.47s2.27,3.57,2.22,5.71c-0.09,4.31-3.68,7.82-7.99,7.82
		h-0.18c-2.14-0.05-4.13-0.92-5.6-2.47c-1.48-1.54-2.27-3.57-2.22-5.71c0.09-4.31,3.68-7.82,7.99-7.82V247.15 M239.92,247.15
		c-4.88,0-8.89,3.9-8.99,8.8c-0.11,4.97,3.83,9.09,8.8,9.19c0.07,0,0.13,0,0.2,0c4.88,0,8.89-3.9,8.99-8.8
		c0.11-4.97-3.83-9.09-8.8-9.19C240.06,247.15,239.99,247.15,239.92,247.15L239.92,247.15z"/>
</g>
<g>
	<path class="st0" d="M205.71,286.41c-2.27-0.05-4.38-0.98-5.95-2.62c-1.57-1.64-2.41-3.79-2.36-6.06c0.1-4.58,3.91-8.31,8.49-8.31
		h0.19c4.69,0.1,8.41,4,8.31,8.68c-0.1,4.58-3.91,8.31-8.49,8.31H205.71z"/>
	<path class="st0" d="M205.89,268.91v1h0.18c4.41,0.1,7.92,3.76,7.82,8.17c-0.09,4.31-3.68,7.82-7.99,7.82h-0.18
		c-2.14-0.05-4.13-0.92-5.6-2.47c-1.48-1.54-2.27-3.57-2.22-5.71c0.09-4.31,3.68-7.82,7.99-7.82V268.91 M205.89,268.91
		c-4.88,0-8.89,3.9-8.99,8.8c-0.11,4.97,3.83,9.09,8.8,9.19c0.07,0,0.13,0,0.2,0c4.88,0,8.89-3.9,8.99-8.8
		c0.11-4.97-3.83-9.09-8.8-9.19C206.02,268.92,205.96,268.91,205.89,268.91L205.89,268.91z"/>
</g>
</svg>
