<?xml version="1.0" encoding="utf-8"?>
<!-- Generator: Adobe Illustrator 23.0.0, SVG Export Plug-In . SVG Version: 6.00 Build 0)  -->
<svg version="1.1" id="Capa_1" xmlns="http://www.w3.org/2000/svg" xmlns:xlink="http://www.w3.org/1999/xlink" x="0px" y="0px"
	 viewBox="0 0 300 300" style="enable-background:new 0 0 300 300;" xml:space="preserve">
<style type="text/css">
	.st0{fill:url(#SVGID_1_);}
	.st1{fill:url(#SVGID_2_);}
	.st2{fill:url(#SVGID_3_);}
	.st3{fill:url(#SVGID_4_);}
	.st4{fill:url(#SVGID_5_);}
	.st5{fill:url(#SVGID_6_);}
	.st6{fill:url(#SVGID_7_);}
	.st7{fill:url(#SVGID_8_);}
	.st8{fill:url(#SVGID_9_);}
	.st9{fill:url(#SVGID_10_);}
	.st10{fill:url(#SVGID_11_);}
	.st11{fill:url(#SVGID_12_);}
	.st12{fill:url(#SVGID_13_);}
	.st13{fill:url(#SVGID_14_);}
	.st14{fill:url(#SVGID_15_);}
	.st15{fill:url(#SVGID_16_);}
	.st16{fill:url(#SVGID_17_);}
	.st17{fill:url(#SVGID_18_);}
	.st18{fill:url(#SVGID_19_);}
	.st19{fill:url(#SVGID_20_);}
	.st20{fill:url(#SVGID_21_);}
	.st21{fill:url(#SVGID_22_);}
	.st22{fill:url(#SVGID_23_);}
	.st23{fill:url(#SVGID_24_);}
	.st24{fill:url(#SVGID_25_);}
	.st25{fill:url(#SVGID_26_);}
	.st26{fill:url(#SVGID_27_);}
	.st27{fill:url(#SVGID_28_);}
	.st28{fill:url(#SVGID_29_);}
	.st29{fill:url(#SVGID_30_);}
	.st30{fill:url(#SVGID_31_);}
	.st31{fill:url(#SVGID_32_);}
</style>
<g>
	
		<linearGradient id="SVGID_1_" gradientUnits="userSpaceOnUse" x1="146" y1="290" x2="164" y2="290" gradientTransform="matrix(2.832769e-16 1 1 -2.832769e-16 -134 -146)">
		<stop  offset="0" style="stop-color:#FF7BAC"/>
		<stop  offset="1" style="stop-color:#FF7BAC;stop-opacity:0"/>
	</linearGradient>
	<circle class="st0" cx="156" cy="9" r="9"/>
	
		<linearGradient id="SVGID_2_" gradientUnits="userSpaceOnUse" x1="156" y1="300" x2="156" y2="282" gradientTransform="matrix(1 0 0 -1 0 300)">
		<stop  offset="0" style="stop-color:#FF7BAC"/>
		<stop  offset="1" style="stop-color:#FF7BAC;stop-opacity:0"/>
	</linearGradient>
	<path class="st1" d="M156,1c4.41,0,8,3.59,8,8s-3.59,8-8,8s-8-3.59-8-8S151.59,1,156,1 M156,0c-4.97,0-9,4.03-9,9s4.03,9,9,9
		s9-4.03,9-9S160.97,0,156,0L156,0z"/>
</g>
<g>
	
		<linearGradient id="SVGID_3_" gradientUnits="userSpaceOnUse" x1="169.9621" y1="287.7515" x2="182.9651" y2="287.7515" gradientTransform="matrix(0.2537 -0.9673 -0.9673 -0.2537 409.0713 255.1958)">
		<stop  offset="0" style="stop-color:#FFFFFF"/>
		<stop  offset="1" style="stop-color:#000000"/>
	</linearGradient>
	<circle class="st2" cx="175.5" cy="11.5" r="6.5"/>
	
		<linearGradient id="SVGID_4_" gradientUnits="userSpaceOnUse" x1="173.8535" y1="282.211" x2="177.1527" y2="294.7888" gradientTransform="matrix(1 0 0 -1 0 300)">
		<stop  offset="0" style="stop-color:#FFFFFF"/>
		<stop  offset="1" style="stop-color:#000000"/>
	</linearGradient>
	<path class="st3" d="M175.5,6L175.5,6c0.47,0,0.94,0.06,1.4,0.18c2.93,0.77,4.69,3.78,3.92,6.72c-0.63,2.41-2.82,4.1-5.32,4.1
		c-0.47,0-0.94-0.06-1.4-0.18c-2.93-0.77-4.69-3.78-3.92-6.72C170.81,7.69,173,6,175.5,6 M175.5,5c-2.88,0-5.52,1.93-6.28,4.85
		c-0.91,3.47,1.17,7.03,4.64,7.94c0.55,0.15,1.11,0.21,1.65,0.21c2.88,0,5.52-1.93,6.28-4.85c0.91-3.47-1.17-7.03-4.64-7.94
		C176.6,5.07,176.04,5,175.5,5L175.5,5z"/>
</g>
<g>
	
		<linearGradient id="SVGID_5_" gradientUnits="userSpaceOnUse" x1="186.001" y1="284.5062" x2="199.0036" y2="284.5062" gradientTransform="matrix(0.1909 -0.9816 -0.9816 -0.1909 435.0226 258.7725)">
		<stop  offset="0" style="stop-color:#FFFFFF"/>
		<stop  offset="1" style="stop-color:#000000"/>
	</linearGradient>
	<circle class="st4" cx="192.5" cy="15.5" r="6.5"/>
	
		<linearGradient id="SVGID_6_" gradientUnits="userSpaceOnUse" x1="191.2595" y1="278.1201" x2="193.7405" y2="290.8799" gradientTransform="matrix(1 0 0 -1 0 300)">
		<stop  offset="0" style="stop-color:#FFFFFF"/>
		<stop  offset="1" style="stop-color:#000000"/>
	</linearGradient>
	<path class="st5" d="M192.49,10L192.49,10c0.35,0,0.71,0.03,1.06,0.1c1.44,0.28,2.69,1.11,3.51,2.32c0.82,1.22,1.12,2.68,0.84,4.13
		c-0.5,2.58-2.77,4.45-5.39,4.45c-0.35,0-0.71-0.03-1.06-0.1c-1.44-0.28-2.69-1.11-3.51-2.32c-0.82-1.22-1.12-2.68-0.84-4.13
		C187.6,11.87,189.87,10,192.49,10 M192.49,9c-3.05,0-5.77,2.16-6.37,5.26c-0.69,3.52,1.62,6.94,5.14,7.62
		c0.42,0.08,0.84,0.12,1.25,0.12c3.05,0,5.77-2.16,6.37-5.26c0.69-3.52-1.62-6.94-5.14-7.62C193.32,9.04,192.9,9,192.49,9L192.49,9z
		"/>
</g>
<g>
	
		<linearGradient id="SVGID_7_" gradientUnits="userSpaceOnUse" x1="236.8571" y1="255.4286" x2="249.8571" y2="255.4286" gradientTransform="matrix(1 0 0 -1 0 300)">
		<stop  offset="0" style="stop-color:#FFFFFF"/>
		<stop  offset="1" style="stop-color:#000000"/>
	</linearGradient>
	<circle class="st6" cx="243.36" cy="44.57" r="6.5"/>
	
		<linearGradient id="SVGID_8_" gradientUnits="userSpaceOnUse" x1="236.8571" y1="255.4286" x2="249.8571" y2="255.4286" gradientTransform="matrix(1 0 0 -1 0 300)">
		<stop  offset="0" style="stop-color:#FFFFFF"/>
		<stop  offset="1" style="stop-color:#000000"/>
	</linearGradient>
	<path class="st7" d="M243.36,39.07c3.03,0,5.5,2.47,5.5,5.5s-2.47,5.5-5.5,5.5s-5.5-2.47-5.5-5.5S240.33,39.07,243.36,39.07
		 M243.36,38.07c-3.59,0-6.5,2.91-6.5,6.5s2.91,6.5,6.5,6.5s6.5-2.91,6.5-6.5S246.95,38.07,243.36,38.07L243.36,38.07z"/>
</g>
<g>
	
		<linearGradient id="SVGID_9_" gradientUnits="userSpaceOnUse" x1="261" y1="226.5" x2="274" y2="226.5" gradientTransform="matrix(1 0 0 -1 0 300)">
		<stop  offset="0" style="stop-color:#FFFFFF"/>
		<stop  offset="1" style="stop-color:#000000"/>
	</linearGradient>
	<circle class="st8" cx="267.5" cy="73.5" r="6.5"/>
	
		<linearGradient id="SVGID_10_" gradientUnits="userSpaceOnUse" x1="261" y1="226.5" x2="274" y2="226.5" gradientTransform="matrix(1 0 0 -1 0 300)">
		<stop  offset="0" style="stop-color:#FFFFFF"/>
		<stop  offset="1" style="stop-color:#000000"/>
	</linearGradient>
	<path class="st9" d="M267.5,68c3.03,0,5.5,2.47,5.5,5.5s-2.47,5.5-5.5,5.5s-5.5-2.47-5.5-5.5S264.47,68,267.5,68 M267.5,67
		c-3.59,0-6.5,2.91-6.5,6.5s2.91,6.5,6.5,6.5s6.5-2.91,6.5-6.5S271.09,67,267.5,67L267.5,67z"/>
</g>
<g>
	
		<linearGradient id="SVGID_11_" gradientUnits="userSpaceOnUse" x1="253.1799" y1="241.3916" x2="271.1793" y2="241.3916" gradientTransform="matrix(-0.7314 0.682 0.682 0.7314 282.7005 -297.3603)">
		<stop  offset="0" style="stop-color:#FF7BAC"/>
		<stop  offset="1" style="stop-color:#FF7BAC;stop-opacity:0"/>
	</linearGradient>
	<circle class="st10" cx="255.57" cy="58" r="9"/>
	
		<linearGradient id="SVGID_12_" gradientUnits="userSpaceOnUse" x1="262.1537" y1="248.1375" x2="248.9891" y2="235.8625" gradientTransform="matrix(1 0 0 -1 0 300)">
		<stop  offset="0" style="stop-color:#FF7BAC"/>
		<stop  offset="1" style="stop-color:#FF7BAC;stop-opacity:0"/>
	</linearGradient>
	<path class="st11" d="M255.57,50L255.57,50c2.24,0,4.32,0.9,5.85,2.54c3.01,3.23,2.83,8.3-0.4,11.31
		c-1.48,1.39-3.42,2.15-5.45,2.15c-2.24,0-4.32-0.9-5.85-2.54c-3.01-3.23-2.83-8.3,0.4-11.31C251.6,50.76,253.54,50,255.57,50
		 M255.57,49c-2.2,0-4.4,0.8-6.14,2.42c-3.64,3.39-3.83,9.08-0.44,12.72c1.77,1.9,4.18,2.86,6.58,2.86c2.2,0,4.4-0.8,6.14-2.42
		c3.64-3.39,3.83-9.08,0.44-12.72C260.38,49.96,257.98,49,255.57,49L255.57,49z"/>
</g>
<g>
	
		<linearGradient id="SVGID_13_" gradientUnits="userSpaceOnUse" x1="271.2596" y1="208.1033" x2="289.2595" y2="208.1033" gradientTransform="matrix(-0.6236 0.7818 0.7818 0.6236 289.5747 -257.4516)">
		<stop  offset="0" style="stop-color:#FF7BAC"/>
		<stop  offset="1" style="stop-color:#FF7BAC;stop-opacity:0"/>
	</linearGradient>
	<circle class="st12" cx="277.5" cy="91.43" r="9"/>
	
		<linearGradient id="SVGID_14_" gradientUnits="userSpaceOnUse" x1="283.1201" y1="215.6113" x2="271.8899" y2="201.5315" gradientTransform="matrix(1 0 0 -1 0 300)">
		<stop  offset="0" style="stop-color:#FF7BAC"/>
		<stop  offset="1" style="stop-color:#FF7BAC;stop-opacity:0"/>
	</linearGradient>
	<path class="st13" d="M277.51,83.43L277.51,83.43c1.83,0,3.55,0.6,4.98,1.75c1.67,1.33,2.72,3.24,2.96,5.36s-0.36,4.21-1.7,5.88
		c-1.53,1.91-3.81,3.01-6.26,3.01c-1.83,0-3.55-0.6-4.98-1.75c-1.67-1.33-2.72-3.24-2.96-5.36s0.36-4.21,1.7-5.88
		C272.77,84.53,275.05,83.43,277.51,83.43 M277.51,82.43c-2.64,0-5.26,1.16-7.04,3.39c-3.1,3.89-2.46,9.55,1.42,12.65
		c1.66,1.32,3.64,1.96,5.61,1.96c2.64,0,5.26-1.16,7.04-3.39c3.1-3.89,2.46-9.55-1.42-12.65C281.45,83.07,279.47,82.43,277.51,82.43
		L277.51,82.43z"/>
</g>
<g>
	
		<linearGradient id="SVGID_15_" gradientUnits="userSpaceOnUse" x1="134.1603" y1="9.8978" x2="152.1601" y2="9.8978" gradientTransform="matrix(0.0476 -0.9989 -0.9989 -0.0476 145.4025 432.7939)">
		<stop  offset="0" style="stop-color:#FF7BAC"/>
		<stop  offset="1" style="stop-color:#FF7BAC;stop-opacity:0"/>
	</linearGradient>
	<circle class="st14" cx="142.33" cy="289.32" r="9"/>
	
		<linearGradient id="SVGID_16_" gradientUnits="userSpaceOnUse" x1="141.9018" y1="1.6916" x2="142.7582" y2="19.6682" gradientTransform="matrix(1 0 0 -1 0 300)">
		<stop  offset="0" style="stop-color:#FF7BAC"/>
		<stop  offset="1" style="stop-color:#FF7BAC;stop-opacity:0"/>
	</linearGradient>
	<path class="st15" d="M142.32,281.32L142.32,281.32c0.18,0,0.36,0.01,0.54,0.02c2.13,0.14,4.08,1.11,5.49,2.72
		c1.41,1.61,2.1,3.67,1.96,5.8c-0.28,4.19-3.78,7.47-7.97,7.47c-0.18,0-0.36-0.01-0.54-0.02c-4.4-0.29-7.74-4.11-7.45-8.52
		C134.63,284.6,138.13,281.32,142.32,281.32 M142.32,280.32c-4.7,0-8.65,3.64-8.97,8.4c-0.33,4.96,3.42,9.25,8.38,9.58
		c0.2,0.01,0.41,0.02,0.61,0.02c4.7,0,8.65-3.64,8.97-8.4c0.33-4.96-3.42-9.25-8.38-9.58C142.72,280.33,142.52,280.32,142.32,280.32
		L142.32,280.32z"/>
</g>
<g>
	
		<linearGradient id="SVGID_17_" gradientUnits="userSpaceOnUse" x1="115.6722" y1="10.0715" x2="128.6734" y2="10.0715" gradientTransform="matrix(0.1434 0.9897 0.9897 -0.1434 97.3326 168.1798)">
		<stop  offset="0" style="stop-color:#FFFFFF"/>
		<stop  offset="1" style="stop-color:#000000"/>
	</linearGradient>
	<circle class="st16" cx="124.82" cy="287.65" r="6.5"/>
	
		<linearGradient id="SVGID_18_" gradientUnits="userSpaceOnUse" x1="123.8879" y1="18.7834" x2="125.7521" y2="5.9166" gradientTransform="matrix(1 0 0 -1 0 300)">
		<stop  offset="0" style="stop-color:#FFFFFF"/>
		<stop  offset="1" style="stop-color:#000000"/>
	</linearGradient>
	<path class="st17" d="M124.83,282.15L124.83,282.15c2.76,0,5.1,2.07,5.45,4.82c0.38,3.01-1.76,5.76-4.77,6.14
		c-0.23,0.03-0.46,0.04-0.69,0.04c-2.76,0-5.1-2.07-5.45-4.82c-0.38-3.01,1.76-5.76,4.77-6.14
		C124.37,282.16,124.6,282.15,124.83,282.15 M124.83,281.15c-0.27,0-0.54,0.02-0.82,0.05c-3.56,0.45-6.09,3.7-5.64,7.26
		c0.41,3.29,3.21,5.69,6.44,5.69c0.27,0,0.54-0.02,0.82-0.05c3.56-0.45,6.09-3.7,5.64-7.26
		C130.86,283.55,128.06,281.15,124.83,281.15L124.83,281.15z"/>
</g>
<g>
	
		<linearGradient id="SVGID_19_" gradientUnits="userSpaceOnUse" x1="83.2921" y1="20.9775" x2="101.296" y2="20.9775" gradientTransform="matrix(0.3654 -0.9309 -0.9309 -0.3654 75.3054 370.7217)">
		<stop  offset="0" style="stop-color:#FF7BAC"/>
		<stop  offset="1" style="stop-color:#FF7BAC;stop-opacity:0"/>
	</linearGradient>
	<circle class="st18" cx="89.5" cy="277.14" r="9"/>
	
		<linearGradient id="SVGID_20_" gradientUnits="userSpaceOnUse" x1="86.2041" y1="14.4843" x2="92.7796" y2="31.2362" gradientTransform="matrix(1 0 0 -1 0 300)">
		<stop  offset="0" style="stop-color:#FF7BAC"/>
		<stop  offset="1" style="stop-color:#FF7BAC;stop-opacity:0"/>
	</linearGradient>
	<path class="st19" d="M89.5,269.14L89.5,269.14c1.05,0,2.08,0.21,3.06,0.61c4.07,1.69,6.01,6.38,4.32,10.45
		c-1.24,3-4.15,4.94-7.39,4.94c-1.05,0-2.08-0.21-3.06-0.61c-1.97-0.82-3.51-2.36-4.33-4.33s-0.82-4.15,0-6.12
		C83.35,271.07,86.26,269.14,89.5,269.14 M89.5,268.14c-3.53,0-6.88,2.09-8.32,5.55c-1.9,4.59,0.27,9.86,4.86,11.76
		c1.13,0.47,2.3,0.69,3.44,0.69c3.53,0,6.88-2.09,8.32-5.55c1.9-4.59-0.27-9.86-4.86-11.76C91.82,268.36,90.65,268.14,89.5,268.14
		L89.5,268.14z"/>
</g>
<g>
	
		<linearGradient id="SVGID_21_" gradientUnits="userSpaceOnUse" x1="98.424" y1="11.8595" x2="111.4268" y2="11.8595" gradientTransform="matrix(-0.3654 0.9309 0.9309 0.3654 135.1794 181.8115)">
		<stop  offset="0" style="stop-color:#FFFFFF"/>
		<stop  offset="1" style="stop-color:#000000"/>
	</linearGradient>
	<circle class="st20" cx="107.88" cy="283.82" r="6.5"/>
	
		<linearGradient id="SVGID_22_" gradientUnits="userSpaceOnUse" x1="110.2491" y1="22.2292" x2="105.5002" y2="10.1308" gradientTransform="matrix(1 0 0 -1 0 300)">
		<stop  offset="0" style="stop-color:#FFFFFF"/>
		<stop  offset="1" style="stop-color:#000000"/>
	</linearGradient>
	<path class="st21" d="M107.89,278.32L107.89,278.32c0.72,0,1.43,0.14,2.1,0.42c1.36,0.56,2.41,1.62,2.98,2.98
		c0.56,1.36,0.56,2.85,0,4.21c-0.86,2.06-2.85,3.39-5.08,3.39c-0.72,0-1.43-0.14-2.1-0.42c-2.8-1.16-4.13-4.39-2.97-7.19
		C103.66,279.65,105.65,278.32,107.89,278.32 M107.88,277.32c-2.55,0-4.97,1.51-6.01,4.01c-1.38,3.32,0.2,7.12,3.51,8.49
		c0.81,0.34,1.66,0.5,2.49,0.5c2.55,0,4.97-1.51,6.01-4.01c1.38-3.32-0.2-7.12-3.51-8.49C109.56,277.48,108.71,277.32,107.88,277.32
		L107.88,277.32z"/>
</g>
<g>
	
		<linearGradient id="SVGID_23_" gradientUnits="userSpaceOnUse" x1="50.8538" y1="44.0133" x2="63.8553" y2="44.0133" gradientTransform="matrix(-0.5555 0.8315 0.8315 0.5555 52.6134 183.8403)">
		<stop  offset="0" style="stop-color:#FFFFFF"/>
		<stop  offset="1" style="stop-color:#000000"/>
	</linearGradient>
	<circle class="st22" cx="57.35" cy="255.98" r="6.5"/>
	
		<linearGradient id="SVGID_24_" gradientUnits="userSpaceOnUse" x1="60.9662" y1="49.4205" x2="53.7435" y2="38.6091" gradientTransform="matrix(1 0 0 -1 0 300)">
		<stop  offset="0" style="stop-color:#FFFFFF"/>
		<stop  offset="1" style="stop-color:#000000"/>
	</linearGradient>
	<path class="st23" d="M57.36,250.48L57.36,250.48c1.12,0,2.21,0.34,3.14,0.99c2.49,1.73,3.1,5.17,1.37,7.66
		c-1.03,1.48-2.72,2.36-4.52,2.36c-1.12,0-2.21-0.34-3.14-0.99c-2.49-1.73-3.1-5.17-1.37-7.66
		C53.87,251.36,55.56,250.48,57.36,250.48 M57.36,249.48c-2.06,0-4.08,0.97-5.34,2.79c-2.05,2.95-1.33,7,1.62,9.05
		c1.13,0.79,2.43,1.17,3.71,1.17c2.06,0,4.08-0.97,5.34-2.79c2.05-2.95,1.33-7-1.62-9.05C59.93,249.86,58.64,249.48,57.36,249.48
		L57.36,249.48z"/>
</g>
<g>
	
		<linearGradient id="SVGID_25_" gradientUnits="userSpaceOnUse" x1="26.3734" y1="71.4951" x2="39.3736" y2="71.4951" gradientTransform="matrix(-0.7565 0.654 0.654 0.7565 10.9953 152.9123)">
		<stop  offset="0" style="stop-color:#FFFFFF"/>
		<stop  offset="1" style="stop-color:#000000"/>
	</linearGradient>
	<circle class="st24" cx="32.87" cy="228.51" r="6.5"/>
	
		<linearGradient id="SVGID_26_" gradientUnits="userSpaceOnUse" x1="37.7899" y1="75.7445" x2="27.9601" y2="67.2455" gradientTransform="matrix(1 0 0 -1 0 300)">
		<stop  offset="0" style="stop-color:#FFFFFF"/>
		<stop  offset="1" style="stop-color:#000000"/>
	</linearGradient>
	<path class="st25" d="M32.87,223.01L32.87,223.01c1.64,0,3.18,0.72,4.23,1.98c1.94,2.33,1.62,5.81-0.71,7.75
		c-0.99,0.82-2.23,1.27-3.51,1.27c-1.64,0-3.18-0.72-4.23-1.98c-1.94-2.33-1.62-5.81,0.71-7.75
		C30.34,223.46,31.59,223.01,32.87,223.01 M32.87,222.01c-1.46,0-2.94,0.49-4.15,1.5c-2.76,2.3-3.14,6.39-0.84,9.15
		c1.29,1.55,3.14,2.34,5,2.34c1.46,0,2.94-0.49,4.15-1.5c2.76-2.3,3.14-6.39,0.84-9.15C36.59,222.81,34.73,222.01,32.87,222.01
		L32.87,222.01z"/>
</g>
<g>
	
		<linearGradient id="SVGID_27_" gradientUnits="userSpaceOnUse" x1="35.1033" y1="56.7775" x2="53.1036" y2="56.7775" gradientTransform="matrix(0.7565 -0.654 -0.654 -0.7565 47.8582 315.0258)">
		<stop  offset="0" style="stop-color:#FF7BAC"/>
		<stop  offset="1" style="stop-color:#FF7BAC;stop-opacity:0"/>
	</linearGradient>
	<circle class="st26" cx="44.09" cy="243.23" r="9"/>
	
		<linearGradient id="SVGID_28_" gradientUnits="userSpaceOnUse" x1="37.292" y1="50.8979" x2="50.898" y2="62.6621" gradientTransform="matrix(1 0 0 -1 0 300)">
		<stop  offset="0" style="stop-color:#FF7BAC"/>
		<stop  offset="1" style="stop-color:#FF7BAC;stop-opacity:0"/>
	</linearGradient>
	<path class="st27" d="M44.09,235.22L44.09,235.22c2.39,0,4.63,1.05,6.15,2.88c1.37,1.64,2.01,3.72,1.82,5.85s-1.21,4.05-2.85,5.42
		c-1.43,1.19-3.25,1.85-5.11,1.85c-2.39,0-4.63-1.05-6.16-2.88c-1.37-1.64-2.01-3.72-1.82-5.85c0.2-2.13,1.21-4.05,2.85-5.42
		C40.41,235.88,42.23,235.23,44.09,235.22 M44.09,234.22c-2.03,0-4.07,0.68-5.75,2.08c-3.82,3.18-4.34,8.85-1.16,12.67
		c1.78,2.14,4.34,3.25,6.92,3.25c2.03,0,4.07-0.68,5.75-2.08c3.82-3.18,4.34-8.85,1.16-12.67
		C49.23,235.33,46.67,234.22,44.09,234.22L44.09,234.22z"/>
</g>
<g>
	
		<linearGradient id="SVGID_29_" gradientUnits="userSpaceOnUse" x1="14.7111" y1="87.4497" x2="32.7152" y2="87.4497" gradientTransform="matrix(0.9013 -0.4332 -0.4332 -0.9013 40.1823 302.0909)">
		<stop  offset="0" style="stop-color:#FF7BAC"/>
		<stop  offset="1" style="stop-color:#FF7BAC;stop-opacity:0"/>
	</linearGradient>
	<circle class="st28" cx="23.67" cy="213" r="9"/>
	
		<linearGradient id="SVGID_30_" gradientUnits="userSpaceOnUse" x1="15.5641" y1="83.0953" x2="31.7891" y2="90.8945" gradientTransform="matrix(1 0 0 -1 0 300)">
		<stop  offset="0" style="stop-color:#FF7BAC"/>
		<stop  offset="1" style="stop-color:#FF7BAC;stop-opacity:0"/>
	</linearGradient>
	<path class="st29" d="M23.67,205L23.67,205c3.12,0,5.98,1.84,7.28,4.68c0.89,1.94,0.97,4.12,0.22,6.12s-2.23,3.59-4.17,4.48
		c-1.05,0.48-2.17,0.73-3.32,0.73c-3.12,0-5.98-1.84-7.28-4.68c-0.89-1.94-0.97-4.12-0.22-6.12s2.23-3.59,4.17-4.48
		C21.4,205.24,22.52,205,23.67,205 M23.67,204c-1.25,0-2.52,0.26-3.74,0.82c-4.52,2.07-6.51,7.41-4.44,11.93
		c1.51,3.31,4.78,5.26,8.19,5.26c1.25,0,2.52-0.26,3.74-0.82c4.52-2.07,6.51-7.41,4.44-11.93C30.34,205.95,27.08,204,23.67,204
		L23.67,204z"/>
</g>
<g>
	
		<linearGradient id="SVGID_31_" gradientUnits="userSpaceOnUse" x1="203" y1="278" x2="221" y2="278" gradientTransform="matrix(6.123234e-17 1 1 -6.123234e-17 -66 -190)">
		<stop  offset="0" style="stop-color:#FF7BAC"/>
		<stop  offset="1" style="stop-color:#FF7BAC;stop-opacity:0"/>
	</linearGradient>
	<circle class="st30" cx="212" cy="22" r="9"/>
	
		<linearGradient id="SVGID_32_" gradientUnits="userSpaceOnUse" x1="212.005" y1="287" x2="212.005" y2="269" gradientTransform="matrix(1 0 0 -1 0 300)">
		<stop  offset="0" style="stop-color:#FF7BAC"/>
		<stop  offset="1" style="stop-color:#FF7BAC;stop-opacity:0"/>
	</linearGradient>
	<path class="st31" d="M212,13l0.02,1c4.41,0.01,7.99,3.61,7.98,8.02c-0.01,4.4-3.6,7.98-8.02,7.98c-4.41-0.01-7.99-3.61-7.98-8.02
		c0.01-4.4,3.6-7.98,8-7.98V13 M212,13c-4.96,0-8.99,4.01-9,8.98s4,9.01,8.98,9.02c0.01,0,0.02,0,0.03,0c4.96,0,8.99-4.01,9-8.98
		s-4-9.01-8.98-9.02C212.02,13,212.01,13,212,13L212,13z"/>
</g>
<g id="RED">
</g>
</svg>
