<?xml version="1.0" encoding="utf-8"?>
<!-- Generator: Adobe Illustrator 23.0.0, SVG Export Plug-In . SVG Version: 6.00 Build 0)  -->
<svg version="1.1" xmlns="http://www.w3.org/2000/svg" xmlns:xlink="http://www.w3.org/1999/xlink" x="0px" y="0px"
	 viewBox="0 0 300 300" style="enable-background:new 0 0 300 300;" xml:space="preserve">
<style type="text/css">
	.st0{fill:#F15A24;}
	.st1{fill:#0071BC;}
	.st2{fill:#FCEE21;}
	.st3{fill:url(#SVGID_1_);}
	.st4{fill:url(#SVGID_2_);}
	.st5{fill:#FF0000;}
	.st6{fill:#00FF00;}
	.st7{fill:#ED1C24;}
	.st8{fill:none;}
	.st9{fill:#FFFF00;}
</style>
<g id="Capa_1">
	<g>
		<circle class="st0" cx="49.5" cy="52.5" r="6"/>
		<path class="st0" d="M49.5,47c3.03,0,5.5,2.47,5.5,5.5S52.53,58,49.5,58S44,55.53,44,52.5S46.47,47,49.5,47 M49.5,46
			c-3.59,0-6.5,2.91-6.5,6.5s2.91,6.5,6.5,6.5s6.5-2.91,6.5-6.5S53.09,46,49.5,46L49.5,46z"/>
	</g>
	<g>
		<circle class="st0" cx="276.5" cy="85.5" r="6"/>
		<path class="st0" d="M276.5,80c3.03,0,5.5,2.47,5.5,5.5s-2.47,5.5-5.5,5.5s-5.5-2.47-5.5-5.5S273.47,80,276.5,80 M276.5,79
			c-3.59,0-6.5,2.91-6.5,6.5s2.91,6.5,6.5,6.5s6.5-2.91,6.5-6.5S280.09,79,276.5,79L276.5,79z"/>
	</g>
	<g>
		<circle class="st1" cx="290.5" cy="129.5" r="5"/>
		<path class="st1" d="M290.5,125c2.48,0,4.5,2.02,4.5,4.5s-2.02,4.5-4.5,4.5s-4.5-2.02-4.5-4.5S288.02,125,290.5,125 M290.5,124
			c-3.04,0-5.5,2.46-5.5,5.5s2.46,5.5,5.5,5.5s5.5-2.46,5.5-5.5S293.54,124,290.5,124L290.5,124z"/>
	</g>
	<g>
		<circle class="st2" cx="286" cy="110" r="8.5"/>
		<path class="st2" d="M286,102c4.41,0,8,3.59,8,8s-3.59,8-8,8s-8-3.59-8-8S281.59,102,286,102 M286,101c-4.97,0-9,4.03-9,9
			s4.03,9,9,9s9-4.03,9-9S290.97,101,286,101L286,101z"/>
	</g>
	<g>
		<linearGradient id="SVGID_1_" gradientUnits="userSpaceOnUse" x1="282" y1="147" x2="300" y2="147">
			<stop  offset="0" style="stop-color:#CCE0F4"/>
			<stop  offset="0.0641" style="stop-color:#C3DCF2"/>
			<stop  offset="0.1706" style="stop-color:#A9D2EE"/>
			<stop  offset="0.3066" style="stop-color:#80C2E7"/>
			<stop  offset="0.4649" style="stop-color:#47ACDE"/>
			<stop  offset="0.5674" style="stop-color:#1E9CD7"/>
			<stop  offset="0.8652" style="stop-color:#0075BE"/>
			<stop  offset="0.9944" style="stop-color:#005B97"/>
		</linearGradient>
		<circle class="st3" cx="291" cy="147" r="9"/>
		<linearGradient id="SVGID_2_" gradientUnits="userSpaceOnUse" x1="282" y1="147" x2="300" y2="147">
			<stop  offset="0" style="stop-color:#CCE0F4"/>
			<stop  offset="0.0641" style="stop-color:#C3DCF2"/>
			<stop  offset="0.1706" style="stop-color:#A9D2EE"/>
			<stop  offset="0.3066" style="stop-color:#80C2E7"/>
			<stop  offset="0.4649" style="stop-color:#47ACDE"/>
			<stop  offset="0.5674" style="stop-color:#1E9CD7"/>
			<stop  offset="0.8652" style="stop-color:#0075BE"/>
			<stop  offset="0.9944" style="stop-color:#005B97"/>
		</linearGradient>
		<path class="st4" d="M291,139c4.41,0,8,3.59,8,8s-3.59,8-8,8s-8-3.59-8-8S286.59,139,291,139 M291,138c-4.97,0-9,4.03-9,9
			s4.03,9,9,9s9-4.03,9-9S295.97,138,291,138L291,138z"/>
	</g>
	<g>
		<path class="st5" d="M25.39,217.5c-3.31-0.06-5.95-2.81-5.88-6.11c0.06-3.25,2.75-5.89,6-5.89l0.12,0
			c3.31,0.06,5.95,2.81,5.88,6.11c-0.06,3.25-2.75,5.89-6,5.89L25.39,217.5z"/>
		<path class="st5" d="M25.5,206L25.5,206l0.11,0c1.47,0.03,2.84,0.63,3.86,1.69s1.56,2.45,1.54,3.92c-0.06,2.97-2.52,5.39-5.5,5.39
			l-0.11,0c-1.47-0.03-2.84-0.63-3.86-1.69s-1.56-2.45-1.54-3.92C20.06,208.42,22.52,206,25.5,206 M25.5,205
			c-3.53,0-6.43,2.83-6.5,6.38c-0.07,3.59,2.79,6.55,6.37,6.62c0.04,0,0.08,0,0.13,0c3.53,0,6.43-2.83,6.5-6.38
			c0.07-3.59-2.79-6.55-6.37-6.62C25.58,205,25.54,205,25.5,205L25.5,205z"/>
	</g>
	<g>
		<path class="st5" d="M14.84,193.5c-2.27-0.04-4.39-0.97-5.96-2.6c-1.57-1.64-2.42-3.79-2.37-6.06c0.09-4.6,3.9-8.34,8.49-8.34
			l0.17,0c2.27,0.04,4.39,0.97,5.96,2.6c1.57,1.64,2.42,3.79,2.37,6.06c-0.09,4.6-3.9,8.34-8.49,8.34L14.84,193.5z"/>
		<path class="st5" d="M15,176v1l0.16,0c4.41,0.08,7.93,3.74,7.85,8.15c-0.08,4.33-3.67,7.85-8,7.85l-0.16,0
			c-4.41-0.08-7.93-3.74-7.85-8.15c0.08-4.33,3.67-7.85,8-7.85L15,176 M15,176c-4.89,0-8.9,3.92-8.99,8.83
			c-0.1,4.97,3.86,9.08,8.83,9.17c0.06,0,0.12,0,0.18,0c4.89,0,8.9-3.92,8.99-8.83c0.1-4.97-3.86-9.08-8.83-9.17
			C15.11,176,15.06,176,15,176L15,176z"/>
	</g>
	<g>
		<path class="st0" d="M236.12,45.5c-4.61-0.01-8.35-3.83-8.34-8.5c0.01-4.66,3.76-8.46,8.36-8.46c2.26,0.01,4.35,0.89,5.93,2.5
			c1.58,1.61,2.44,3.74,2.43,6c-0.01,4.66-3.76,8.46-8.36,8.46H236.12z"/>
		<path class="st0" d="M236.14,28.04l0.02,1c4.33,0.01,7.85,3.6,7.84,8c-0.01,4.39-3.54,7.96-7.88,7.96c-4.33-0.01-7.85-3.6-7.84-8
			c0.01-4.39,3.54-7.96,7.86-7.96L236.14,28.04 M236.14,28.04c-4.88,0-8.85,4-8.86,8.95c-0.01,4.96,3.94,8.99,8.84,9
			c0.01,0,0.02,0,0.02,0c4.88,0,8.85-4,8.86-8.95c0.01-4.96-3.94-8.99-8.84-9C236.16,28.04,236.15,28.04,236.14,28.04L236.14,28.04z
			"/>
	</g>
	<g>
		<path class="st1" d="M217.48,32.5c-1.87,0-3.63-0.74-4.94-2.06c-1.32-1.33-2.04-3.09-2.04-4.96c0.01-3.85,3.15-6.98,7-6.98
			c1.89,0,3.65,0.74,4.96,2.06c1.32,1.33,2.04,3.09,2.04,4.96c-0.01,3.85-3.15,6.98-7,6.98H217.48z"/>
		<path class="st1" d="M217.5,18l0.02,1c3.58,0.01,6.49,2.93,6.48,6.52c-0.01,3.57-2.93,6.48-6.52,6.48
			c-3.58-0.01-6.49-2.93-6.48-6.52c0.01-3.57,2.93-6.48,6.5-6.48L217.5,18 M217.5,18c-4.13,0-7.49,3.34-7.5,7.48
			c-0.01,4.14,3.34,7.51,7.48,7.52c0.01,0,0.01,0,0.02,0c4.13,0,7.49-3.34,7.5-7.48c0.01-4.14-3.34-7.51-7.48-7.52
			C217.51,18,217.51,18,217.5,18L217.5,18z"/>
	</g>
	<g>
		<path class="st0" d="M10.98,159.5c-2.27-0.01-4.4-0.9-6-2.51s-2.48-3.75-2.47-6.02c0.01-4.67,3.83-8.48,8.5-8.48
			c2.29,0.01,4.43,0.9,6.03,2.51c1.6,1.61,2.48,3.75,2.47,6.02c-0.01,4.67-3.83,8.48-8.5,8.48H10.98z"/>
		<path class="st0" d="M11,142l0.02,1c2.14,0.01,4.14,0.84,5.65,2.36c1.51,1.52,2.33,3.53,2.33,5.66c-0.01,4.4-3.6,7.98-8.02,7.98
			c-2.14-0.01-4.14-0.84-5.65-2.36c-1.51-1.52-2.33-3.53-2.33-5.66c0.01-4.4,3.6-7.98,8-7.98L11,142 M11,142
			c-4.96,0-8.99,4.01-9,8.98c-0.01,4.97,4,9.01,8.98,9.02c0.01,0,0.02,0,0.03,0c4.96,0,8.99-4.01,9-8.98c0.01-4.97-4-9.01-8.98-9.02
			C11.02,142,11.01,142,11,142L11,142z"/>
	</g>
	<g>
		<path class="st6" d="M159.99,12.5c-0.93,0-1.81-0.37-2.47-1.03c-0.66-0.66-1.02-1.54-1.02-2.48c0-1.92,1.58-3.49,3.5-3.49
			c0.94,0,1.82,0.37,2.48,1.03c0.66,0.66,1.02,1.54,1.02,2.48C163.5,10.93,161.92,12.5,159.99,12.5L159.99,12.5z"/>
		<path class="st6" d="M160,5l0.01,1c0.8,0,1.55,0.32,2.12,0.88c0.57,0.57,0.88,1.32,0.87,2.12c0,1.65-1.35,2.99-3.01,2.99
			c-1.65,0-3-1.35-2.99-3.01c0-1.65,1.35-2.99,3-2.99L160,5 M160,5c-2.2,0-3.99,1.78-4,3.99c-0.01,2.21,1.78,4,3.99,4.01
			c0,0,0.01,0,0.01,0c2.2,0,3.99-1.78,4-3.99c0.01-2.21-1.78-4-3.99-4.01C160.01,5,160,5,160,5L160,5z"/>
	</g>
	<g>
		<path class="st7" d="M68.98,44.5c-2.27-0.01-4.4-0.9-6-2.51c-1.6-1.61-2.48-3.75-2.47-6.02c0.01-4.67,3.83-8.48,8.5-8.48
			c2.29,0.01,4.43,0.9,6.03,2.51c1.6,1.61,2.48,3.75,2.47,6.02c-0.01,4.67-3.83,8.48-8.5,8.48H68.98z"/>
		<path class="st7" d="M69,27l0.02,1c4.41,0.01,7.99,3.61,7.98,8.02c-0.01,4.4-3.6,7.98-8.02,7.98c-4.41-0.01-7.99-3.61-7.98-8.02
			c0.01-4.4,3.6-7.98,8-7.98L69,27 M69,27c-4.96,0-8.99,4.01-9,8.98c-0.01,4.97,4,9.01,8.98,9.02c0.01,0,0.02,0,0.03,0
			c4.96,0,8.99-4.01,9-8.98c0.01-4.97-4-9.01-8.98-9.02C69.02,27,69.01,27,69,27L69,27z"/>
	</g>
	<g>
		<path class="st5" d="M261.37,242.5c-1.6-0.04-3.09-0.69-4.2-1.85c-1.11-1.16-1.7-2.68-1.66-4.28c0.07-3.24,2.76-5.87,6-5.87
			l0.13,0c1.6,0.04,3.09,0.69,4.2,1.85c1.11,1.16,1.7,2.68,1.66,4.28c-0.07,3.24-2.76,5.87-6,5.87L261.37,242.5z"/>
		<path class="st5" d="M261.5,231L261.5,231l0.12,0c1.47,0.03,2.84,0.63,3.85,1.7c1.02,1.06,1.56,2.45,1.53,3.92
			c-0.06,2.97-2.53,5.38-5.5,5.38l-0.12,0c-1.47-0.03-2.84-0.63-3.85-1.7c-1.02-1.06-1.56-2.45-1.53-3.92
			C256.07,233.41,258.53,231,261.5,231 M261.5,230c-3.52,0-6.42,2.82-6.5,6.36c-0.08,3.59,2.77,6.56,6.36,6.64c0.05,0,0.1,0,0.15,0
			c3.52,0,6.42-2.82,6.5-6.36c0.08-3.59-2.77-6.56-6.36-6.64C261.59,230,261.55,230,261.5,230L261.5,230z"/>
	</g>
	<g>
		<path class="st6" d="M272.81,228.5c-4.69-0.1-8.41-4-8.31-8.68c0.1-4.58,3.91-8.31,8.5-8.31l0.19,0c4.69,0.1,8.41,4,8.31,8.68
			c-0.1,4.58-3.91,8.31-8.5,8.31L272.81,228.5z"/>
		<path class="st6" d="M273,212L273,212l0.18,0c4.41,0.1,7.92,3.76,7.82,8.17c-0.09,4.31-3.68,7.82-7.99,7.82l-0.18,0
			c-4.41-0.1-7.92-3.76-7.82-8.17C265.1,215.51,268.68,212,273,212 M273,211c-4.88,0-8.89,3.9-8.99,8.8
			c-0.11,4.97,3.83,9.09,8.8,9.19c0.07,0,0.13,0,0.2,0c4.88,0,8.89-3.9,8.99-8.8c0.11-4.97-3.83-9.09-8.8-9.19
			C273.13,211,273.06,211,273,211L273,211z"/>
	</g>
	<circle class="st8" cx="221.75" cy="277.91" r="9"/>
	<g>
		<path class="st1" d="M246.81,260.5c-4.69-0.1-8.41-4-8.31-8.68c0.1-4.58,3.91-8.31,8.5-8.31l0.19,0c4.69,0.1,8.41,4,8.31,8.68
			c-0.1,4.58-3.91,8.31-8.5,8.31L246.81,260.5z"/>
		<path class="st1" d="M247,244L247,244l0.18,0c4.41,0.1,7.92,3.76,7.82,8.17c-0.09,4.31-3.68,7.82-7.99,7.82l-0.18,0
			c-4.41-0.1-7.92-3.76-7.82-8.17C239.1,247.51,242.68,244,247,244 M247,243c-4.88,0-8.89,3.9-8.99,8.8
			c-0.11,4.97,3.83,9.09,8.8,9.19c0.07,0,0.13,0,0.2,0c4.88,0,8.89-3.9,8.99-8.8c0.11-4.97-3.83-9.09-8.8-9.19
			C247.13,243,247.06,243,247,243L247,243z"/>
	</g>
	<g>
		<path class="st1" d="M34.52,78.51c-0.39,0-0.79-0.03-1.18-0.09c-2.11-0.31-3.98-1.43-5.26-3.14c-1.27-1.71-1.81-3.82-1.49-5.94
			c0.57-3.9,3.97-6.84,7.9-6.84c0.39,0,0.79,0.03,1.18,0.09c2.11,0.31,3.98,1.43,5.26,3.14c1.27,1.71,1.81,3.82,1.49,5.94
			C41.85,75.57,38.45,78.51,34.52,78.51z"/>
		<path class="st1" d="M34.49,63.01L34.49,63.01c0.37,0,0.74,0.03,1.1,0.08c1.98,0.29,3.73,1.34,4.93,2.95
			c1.2,1.61,1.69,3.58,1.4,5.57c-0.54,3.65-3.72,6.41-7.41,6.41c-0.37,0-0.74-0.03-1.1-0.08c-1.98-0.29-3.73-1.34-4.93-2.95
			c-1.2-1.61-1.69-3.58-1.4-5.57C27.62,65.76,30.81,63.01,34.49,63.01 M34.49,62.01c-4.15,0-7.78,3.04-8.4,7.26
			c-0.68,4.64,2.53,8.96,7.17,9.65c0.42,0.06,0.84,0.09,1.25,0.09c4.15,0,7.78-3.04,8.4-7.26c0.68-4.64-2.53-8.96-7.17-9.65
			C35.32,62.04,34.91,62.01,34.49,62.01L34.49,62.01z"/>
	</g>
	<g>
		<path class="st9" d="M149.99,10.5c-0.67,0-1.29-0.26-1.77-0.74c-0.47-0.47-0.73-1.1-0.73-1.77c0-1.38,1.13-2.49,2.5-2.49
			c0.67,0,1.3,0.26,1.77,0.74c0.47,0.47,0.73,1.1,0.73,1.77C152.5,9.38,151.37,10.5,149.99,10.5L149.99,10.5z"/>
		<path class="st9" d="M150,5l0.01,1c0.53,0,1.04,0.21,1.41,0.59c0.38,0.38,0.58,0.88,0.58,1.42c0,1.1-0.9,1.99-2.01,1.99
			c-0.53,0-1.04-0.21-1.41-0.59C148.21,9.03,148,8.53,148,7.99c0-1.1,0.9-1.99,2-1.99L150,5 M150,5c-1.65,0-3,1.34-3,2.99
			c0,1.66,1.33,3,2.99,3.01c0,0,0.01,0,0.01,0c1.65,0,3-1.34,3-2.99C153,6.35,151.67,5,150,5C150.01,5,150,5,150,5L150,5z"/>
	</g>
	<g>
		<path class="st7" d="M185.98,18.5c-3.03-0.01-5.49-2.48-5.48-5.52c0.01-3.02,2.47-5.48,5.5-5.48c3.05,0.01,5.51,2.48,5.5,5.52
			c-0.01,3.02-2.47,5.48-5.5,5.48H185.98z"/>
		<path class="st7" d="M186,7l0.01,1c2.76,0.01,4.99,2.26,4.99,5.01c-0.01,2.75-2.25,4.99-5.01,4.99c-2.76-0.01-4.99-2.26-4.99-5.01
			c0.01-2.75,2.25-4.99,5-4.99L186,7 M186,7c-3.31,0-5.99,2.68-6,5.98c-0.01,3.31,2.67,6.01,5.98,6.02c0.01,0,0.01,0,0.02,0
			c3.31,0,5.99-2.68,6-5.98c0.01-3.31-2.67-6.01-5.98-6.02C186.01,7,186.01,7,186,7L186,7z"/>
	</g>
	<g>
		<path class="st1" d="M171.99,14.5c-1.2,0-2.33-0.47-3.18-1.33c-0.85-0.85-1.31-1.98-1.31-3.19c0.01-2.47,2.03-4.49,4.5-4.49
			c1.21,0,2.34,0.47,3.19,1.33c0.85,0.85,1.31,1.98,1.31,3.19c-0.01,2.47-2.03,4.49-4.5,4.49H171.99z"/>
		<path class="st1" d="M172,5l0.01,1c1.07,0,2.07,0.42,2.83,1.18c0.75,0.76,1.17,1.76,1.16,2.83c-0.01,2.2-1.8,3.99-4.01,3.99
			c-1.07,0-2.07-0.42-2.83-1.18c-0.75-0.76-1.17-1.76-1.16-2.83c0.01-2.2,1.8-3.99,4-3.99L172,5 M172,5c-2.75,0-4.99,2.23-5,4.99
			c-0.01,2.76,2.22,5.01,4.99,5.01c0,0,0.01,0,0.01,0c2.75,0,4.99-2.23,5-4.99c0.01-2.76-2.22-5.01-4.99-5.01C172.01,5,172,5,172,5
			L172,5z"/>
	</g>
	<g>
		<path class="st2" d="M200.98,24.5c-3.58-0.01-6.49-2.93-6.48-6.52c0.01-3.57,2.93-6.48,6.5-6.48c3.6,0.01,6.51,2.93,6.5,6.52
			c-0.01,3.57-2.93,6.48-6.5,6.48H200.98z"/>
		<path class="st2" d="M201,11l0.02,1c1.6,0,3.11,0.63,4.24,1.77s1.75,2.64,1.75,4.25c-0.01,3.3-2.7,5.98-6.02,5.98
			c-1.6,0-3.11-0.63-4.24-1.77c-1.13-1.14-1.75-2.64-1.75-4.25c0.01-3.3,2.7-5.98,6-5.98L201,11 M201,11c-3.86,0-6.99,3.12-7,6.98
			c-0.01,3.87,3.11,7.01,6.98,7.02c0.01,0,0.01,0,0.02,0c3.86,0,6.99-3.12,7-6.98c0.01-3.87-3.11-7.01-6.98-7.02
			C201.01,11,201.01,11,201,11L201,11z"/>
	</g>
	<g>
		<path class="st0" d="M63.84,268.2c-4.61-0.04-8.33-3.87-8.29-8.55c0.04-4.64,3.79-8.41,8.36-8.41c4.68,0.04,8.4,3.87,8.36,8.55
			c-0.04,4.64-3.79,8.41-8.36,8.41H63.84z"/>
		<path class="st0" d="M63.91,251.74L63.91,251.74l0.06,0c4.33,0.04,7.83,3.64,7.79,8.04c-0.04,4.36-3.56,7.91-7.86,7.91l-0.06,0
			c-4.33-0.04-7.83-3.64-7.79-8.04C56.08,255.29,59.61,251.74,63.91,251.74 M63.91,250.74c-4.86,0-8.82,3.97-8.86,8.91
			c-0.04,4.96,3.89,9.01,8.79,9.05c0.02,0,0.05,0,0.07,0c4.86,0,8.82-3.97,8.86-8.91c0.04-4.96-3.89-9.01-8.79-9.05
			C63.95,250.74,63.93,250.74,63.91,250.74L63.91,250.74z"/>
	</g>
	<g>
		<path class="st5" d="M82.43,278.34c-3.86-0.03-6.97-3.2-6.94-7.06c0.03-3.83,3.17-6.94,7-6.94c3.92,0.03,7.03,3.2,7,7.06
			c-0.03,3.83-3.17,6.94-7,6.94H82.43z"/>
		<path class="st5" d="M82.48,264.84L82.48,264.84l0.05,0c1.74,0.01,3.36,0.7,4.58,1.94c1.22,1.24,1.88,2.88,1.87,4.61
			c-0.03,3.55-2.94,6.45-6.5,6.45l-0.05,0c-1.74-0.01-3.36-0.7-4.58-1.94c-1.22-1.24-1.88-2.88-1.87-4.61
			C76.01,267.73,78.93,264.84,82.48,264.84 M82.48,263.84c-4.11,0-7.46,3.32-7.5,7.44c-0.03,4.14,3.3,7.53,7.44,7.56
			c0.02,0,0.04,0,0.06,0c4.11,0,7.46-3.32,7.5-7.44c0.03-4.14-3.3-7.53-7.44-7.56C82.52,263.84,82.5,263.84,82.48,263.84
			L82.48,263.84z"/>
	</g>
	<g>
		<path class="st2" d="M139.87,291.65c-0.94-0.01-1.81-0.38-2.47-1.04c-0.66-0.67-1.01-1.55-1-2.48c0.02-1.91,1.58-3.47,3.5-3.47
			c0.97,0.01,1.84,0.38,2.5,1.04c0.66,0.67,1.01,1.55,1,2.48c-0.02,1.91-1.58,3.47-3.5,3.47H139.87z"/>
		<path class="st2" d="M139.89,284.15l0.03,1c1.65,0.01,2.99,1.37,2.98,3.02c-0.01,1.64-1.36,2.98-3.02,2.98
			c-0.8-0.01-1.55-0.32-2.11-0.9c-0.56-0.57-0.87-1.33-0.86-2.13c0.01-1.64,1.36-2.98,3-2.98L139.89,284.15 M139.89,284.15
			c-2.19,0-3.98,1.77-4,3.97c-0.02,2.21,1.76,4.01,3.97,4.03c0.01,0,0.02,0,0.03,0c2.19,0,3.98-1.77,4-3.97
			c0.02-2.21-1.76-4.01-3.97-4.03C139.92,284.15,139.9,284.15,139.89,284.15L139.89,284.15z"/>
	</g>
	<g>
		<path class="st6" d="M149.87,291.71c-1.38-0.01-2.49-1.14-2.48-2.52c0.01-1.37,1.13-2.48,2.5-2.48c0.69,0.01,1.31,0.27,1.78,0.75
			c0.47,0.48,0.72,1.11,0.72,1.77c-0.01,1.37-1.13,2.48-2.5,2.48H149.87z"/>
		<path class="st6" d="M149.89,286.21l0.02,1c1.1,0.01,1.99,0.91,1.98,2.02c-0.01,1.09-0.91,1.98-2.02,1.98
			c-0.53,0-1.03-0.22-1.41-0.6c-0.37-0.38-0.58-0.88-0.57-1.42c0.01-1.09,0.91-1.98,2-1.98L149.89,286.21 M149.89,286.21
			c-1.65,0-2.99,1.33-3,2.98c-0.01,1.66,1.32,3.01,2.98,3.02c0.01,0,0.02,0,0.03,0c1.65,0,2.99-1.33,3-2.98
			c0.01-1.66-1.32-3.01-2.98-3.02C149.9,286.21,149.9,286.21,149.89,286.21L149.89,286.21z"/>
	</g>
	<g>
		<path class="st1" d="M113.87,289.51c-3.03-0.03-5.48-2.51-5.45-5.54c0.02-3.01,2.49-5.46,5.5-5.46c1.51,0.01,2.89,0.6,3.92,1.64
			c1.03,1.05,1.59,2.43,1.58,3.9c-0.02,3.01-2.49,5.46-5.5,5.46H113.87z"/>
		<path class="st1" d="M113.91,278.01l0.04,1c2.76,0.02,4.98,2.28,4.96,5.04c-0.02,2.73-2.26,4.96-5.04,4.96
			c-1.34-0.01-2.59-0.54-3.52-1.49s-1.45-2.21-1.44-3.55c0.02-2.73,2.26-4.96,5-4.96L113.91,278.01 M113.91,278.01
			c-3.29,0-5.97,2.65-6,5.95c-0.03,3.31,2.64,6.02,5.95,6.05c0.02,0,0.03,0,0.05,0c3.29,0,5.97-2.65,6-5.95
			c0.03-3.31-2.64-6.02-5.95-6.05C113.95,278.01,113.93,278.01,113.91,278.01L113.91,278.01z"/>
	</g>
	<g>
		<path class="st6" d="M127.86,291.59c-2.48-0.02-4.48-2.06-4.46-4.54c0.02-2.46,2.04-4.46,4.5-4.46c2.52,0.02,4.52,2.06,4.5,4.54
			c-0.02,2.46-2.04,4.46-4.5,4.46H127.86z"/>
		<path class="st6" d="M127.9,282.09l0.03,1c2.21,0.02,3.99,1.83,3.97,4.03c-0.02,2.19-1.81,3.97-4.03,3.97
			c-2.21-0.02-3.99-1.83-3.97-4.03c0.02-2.19,1.81-3.97,4-3.97L127.9,282.09 M127.9,282.09c-2.74,0-4.98,2.21-5,4.96
			c-0.02,2.76,2.2,5.02,4.96,5.04c0.01,0,0.03,0,0.04,0c2.74,0,4.98-2.21,5-4.96c0.02-2.76-2.2-5.02-4.96-5.04
			C127.93,282.09,127.91,282.09,127.9,282.09L127.9,282.09z"/>
	</g>
	<g>
		<path class="st2" d="M98.89,285.43c-3.58-0.03-6.48-2.97-6.45-6.55c0.03-3.55,2.94-6.45,6.5-6.45c1.79,0.01,3.42,0.7,4.63,1.94
			c1.22,1.24,1.88,2.88,1.87,4.61c-0.03,3.55-2.94,6.45-6.5,6.45H98.89z"/>
		<path class="st2" d="M98.94,272.93L98.94,272.93l0.05,0c1.6,0.01,3.1,0.65,4.23,1.79c1.12,1.14,1.74,2.65,1.72,4.26
			c-0.03,3.28-2.72,5.95-6,5.95l-0.05,0c-3.31-0.03-5.98-2.74-5.95-6.05C92.97,275.6,95.66,272.93,98.94,272.93 M98.94,271.93
			c-3.84,0-6.97,3.1-7,6.94c-0.03,3.87,3.08,7.03,6.94,7.06c0.02,0,0.04,0,0.06,0c3.84,0,6.97-3.1,7-6.94
			c0.03-3.87-3.08-7.03-6.94-7.06C98.98,271.93,98.96,271.93,98.94,271.93L98.94,271.93z"/>
	</g>
	<g id="Capa_3">
		<g id="Capa_4">
		</g>
	</g>
	<g>
		<path class="st1" d="M11.96,172.5c-2.48-0.02-4.48-2.06-4.46-4.54c0.02-2.46,2.04-4.46,4.5-4.46c2.52,0.02,4.52,2.06,4.5,4.54
			c-0.02,2.46-2.04,4.46-4.5,4.46H11.96z"/>
		<path class="st1" d="M12,163l0.03,1c1.07,0.01,2.07,0.43,2.82,1.19s1.16,1.77,1.15,2.84c-0.02,2.19-1.81,3.97-4.03,3.97
			c-1.07-0.01-2.07-0.43-2.82-1.19c-0.75-0.76-1.16-1.77-1.15-2.84c0.02-2.19,1.81-3.97,4-3.97L12,163 M12,163
			c-2.74,0-4.98,2.21-5,4.96c-0.02,2.76,2.2,5.02,4.96,5.04c0.01,0,0.03,0,0.04,0c2.74,0,4.98-2.21,5-4.96
			c0.02-2.76-2.2-5.02-4.96-5.04C12.03,163,12.01,163,12,163L12,163z"/>
	</g>
	<g>
		<path class="st2" d="M19.98,202.5c-0.67-0.01-1.29-0.27-1.76-0.75c-0.47-0.48-0.72-1.11-0.72-1.77c0.01-1.37,1.13-2.48,2.5-2.48
			c0.69,0.01,1.31,0.27,1.78,0.75c0.47,0.48,0.72,1.11,0.72,1.77c-0.01,1.37-1.13,2.48-2.5,2.48H19.98z"/>
		<path class="st2" d="M20,197l0.02,1c0.53,0,1.03,0.22,1.41,0.6c0.37,0.38,0.58,0.88,0.57,1.42c-0.01,1.09-0.91,1.98-2.02,1.98
			c-1.1-0.01-1.99-0.91-1.98-2.02c0.01-1.09,0.91-1.98,2-1.98L20,197 M20,197c-1.65,0-2.99,1.33-3,2.98
			c-0.01,1.66,1.32,3.01,2.98,3.02c0.01,0,0.02,0,0.02,0c1.65,0,2.99-1.33,3-2.98c0.01-1.66-1.32-3.01-2.98-3.02
			C20.02,197,20.01,197,20,197L20,197z"/>
	</g>
	<g>
		<path class="st6" d="M280.99,98.5c-0.67,0-1.29-0.26-1.77-0.74c-0.47-0.47-0.73-1.1-0.73-1.77c0-1.37,1.13-2.49,2.5-2.49
			c0.67,0,1.3,0.26,1.77,0.74c0.47,0.47,0.73,1.1,0.73,1.77C283.5,97.38,282.38,98.5,280.99,98.5L280.99,98.5z"/>
		<path class="st6" d="M281,93l0.01,1c0.53,0,1.04,0.21,1.41,0.59c0.38,0.38,0.58,0.88,0.58,1.42c0,1.1-0.9,1.99-2.01,1.99
			c-0.53,0-1.04-0.21-1.41-0.59c-0.38-0.38-0.58-0.88-0.58-1.42c0-1.1,0.9-1.99,2-1.99L281,93 M281,93c-1.65,0-3,1.34-3,2.99
			c0,1.66,1.33,3,2.99,3.01c0,0,0.01,0,0.01,0c1.65,0,3-1.34,3-2.99C284,94.35,282.67,93,281,93C281.01,93,281,93,281,93L281,93z"/>
	</g>
</g>
<g id="RED">
</g>
</svg>
