<?xml version="1.0" encoding="utf-8"?>
<!-- Generator: Adobe Illustrator 23.0.0, SVG Export Plug-In . SVG Version: 6.00 Build 0)  -->
<svg version="1.1" id="Capa_1" xmlns="http://www.w3.org/2000/svg" xmlns:xlink="http://www.w3.org/1999/xlink" x="0px" y="0px"
	 viewBox="0 0 300 300" style="enable-background:new 0 0 300 300;" xml:space="preserve">
<style type="text/css">
	.st0{fill:#FF1D25;}
</style>
<g>
	<circle class="st0" cx="156" cy="9" r="8.5"/>
	<path class="st0" d="M156,1c4.41,0,8,3.59,8,8s-3.59,8-8,8s-8-3.59-8-8S151.59,1,156,1 M156,0c-4.97,0-9,4.03-9,9s4.03,9,9,9
		s9-4.03,9-9S160.97,0,156,0L156,0z"/>
</g>
<g>
	<circle cx="173.5" cy="11.5" r="6"/>
	<path d="M173.5,6c3.03,0,5.5,2.47,5.5,5.5s-2.47,5.5-5.5,5.5s-5.5-2.47-5.5-5.5S170.47,6,173.5,6 M173.5,5
		c-3.59,0-6.5,2.91-6.5,6.5s2.91,6.5,6.5,6.5s6.5-2.91,6.5-6.5S177.09,5,173.5,5L173.5,5z"/>
</g>
<g>
	<circle class="st0" cx="209" cy="22" r="8.5"/>
	<path class="st0" d="M209,14c4.41,0,8,3.59,8,8s-3.59,8-8,8s-8-3.59-8-8S204.59,14,209,14 M209,13c-4.97,0-9,4.03-9,9s4.03,9,9,9
		s9-4.03,9-9S213.97,13,209,13L209,13z"/>
</g>
<g>
	<circle cx="190.5" cy="14.5" r="6"/>
	<path d="M190.5,9c3.03,0,5.5,2.47,5.5,5.5s-2.47,5.5-5.5,5.5s-5.5-2.47-5.5-5.5S187.47,9,190.5,9 M190.5,8
		c-3.59,0-6.5,2.91-6.5,6.5s2.91,6.5,6.5,6.5s6.5-2.91,6.5-6.5S194.09,8,190.5,8L190.5,8z"/>
</g>
<g>
	<circle cx="237.5" cy="39.5" r="6"/>
	<path d="M237.5,34c3.03,0,5.5,2.47,5.5,5.5s-2.47,5.5-5.5,5.5s-5.5-2.47-5.5-5.5S234.47,34,237.5,34 M237.5,33
		c-3.59,0-6.5,2.91-6.5,6.5s2.91,6.5,6.5,6.5s6.5-2.91,6.5-6.5S241.09,33,237.5,33L237.5,33z"/>
</g>
<g>
	<circle cx="262" cy="65.5" r="6"/>
	<path d="M262,60c3.03,0,5.5,2.47,5.5,5.5S265.03,71,262,71s-5.5-2.47-5.5-5.5S258.97,60,262,60 M262,59c-3.59,0-6.5,2.91-6.5,6.5
		c0,3.59,2.91,6.5,6.5,6.5s6.5-2.91,6.5-6.5S265.59,59,262,59L262,59z"/>
</g>
<g>
	<circle class="st0" cx="250.14" cy="52" r="8.5"/>
	<path class="st0" d="M250.14,44c4.41,0,8,3.59,8,8s-3.59,8-8,8s-8-3.59-8-8S245.73,44,250.14,44 M250.14,43c-4.97,0-9,4.03-9,9
		s4.03,9,9,9s9-4.03,9-9S255.11,43,250.14,43L250.14,43z"/>
</g>
<g>
	<circle class="st0" cx="271" cy="81" r="8.5"/>
	<path class="st0" d="M271,73c4.41,0,8,3.59,8,8s-3.59,8-8,8s-8-3.59-8-8S266.59,73,271,73 M271,72c-4.97,0-9,4.03-9,9s4.03,9,9,9
		s9-4.03,9-9S275.97,72,271,72L271,72z"/>
</g>
<g>
	<path class="st0" d="M131.18,297.51c-2.27-0.04-4.39-0.97-5.96-2.6c-1.58-1.64-2.42-3.79-2.37-6.06c0.09-4.6,3.9-8.34,8.5-8.34
		h0.17c2.27,0.04,4.39,0.97,5.96,2.6c1.58,1.64,2.42,3.79,2.37,6.06c-0.09,4.6-3.9,8.34-8.49,8.34H131.18z"/>
	<path class="st0" d="M131.34,280.01v1h0.16c4.41,0.08,7.93,3.74,7.85,8.15c-0.08,4.33-3.67,7.85-8,7.85h-0.16
		c-2.14-0.04-4.13-0.91-5.61-2.45s-2.28-3.56-2.23-5.7c0.08-4.33,3.67-7.85,8-7.85L131.34,280.01 M131.33,280.01
		c-4.89,0-8.9,3.92-8.99,8.83c-0.1,4.97,3.86,9.08,8.83,9.17c0.06,0,0.12,0,0.18,0c4.89,0,8.9-3.92,8.99-8.83
		c0.1-4.97-3.86-9.08-8.83-9.17C131.45,280.01,131.39,280.01,131.33,280.01L131.33,280.01z"/>
</g>
<g>
	<path d="M113.78,290.65c-1.6-0.03-3.1-0.68-4.21-1.84s-1.71-2.67-1.68-4.28c0.06-3.25,2.75-5.88,6-5.88h0.12
		c1.6,0.03,3.1,0.68,4.21,1.84s1.71,2.67,1.68,4.27c-0.06,3.25-2.75,5.89-6,5.89H113.78z"/>
	<path d="M113.89,279.15L113.89,279.15H114c1.47,0.03,2.84,0.63,3.86,1.69c1.02,1.06,1.56,2.45,1.54,3.92
		c-0.06,2.97-2.52,5.39-5.5,5.39h-0.11c-3.03-0.06-5.45-2.57-5.39-5.6C108.45,281.57,110.92,279.15,113.89,279.15 M113.89,278.15
		c-3.53,0-6.43,2.83-6.5,6.38c-0.07,3.59,2.79,6.55,6.37,6.62c0.04,0,0.08,0,0.13,0c3.53,0,6.43-2.83,6.5-6.38
		c0.07-3.59-2.79-6.55-6.37-6.62C113.97,278.15,113.93,278.15,113.89,278.15L113.89,278.15z"/>
</g>
<g>
	<path class="st0" d="M82.71,281.48c-4.69-0.09-8.43-3.98-8.34-8.66c0.09-4.6,3.9-8.34,8.5-8.34h0.17c4.69,0.09,8.43,3.98,8.34,8.66
		c-0.09,4.6-3.9,8.34-8.5,8.34H82.71z"/>
	<path class="st0" d="M82.87,263.98v1h0.16c4.41,0.08,7.93,3.74,7.85,8.15c-0.08,4.33-3.67,7.85-8,7.85h-0.16
		c-4.41-0.08-7.93-3.74-7.85-8.15c0.08-4.33,3.67-7.85,8-7.85V263.98 M82.87,263.98c-4.89,0-8.9,3.92-8.99,8.83
		c-0.1,4.97,3.86,9.08,8.83,9.17c0.06,0,0.12,0,0.18,0c4.89,0,8.9-3.92,8.99-8.83c0.1-4.97-3.86-9.08-8.83-9.17
		C82.98,263.98,82.93,263.98,82.87,263.98L82.87,263.98z"/>
</g>
<g>
	<path d="M99.28,286.15c-1.6-0.03-3.1-0.68-4.21-1.84c-1.11-1.15-1.71-2.67-1.68-4.28c0.06-3.25,2.75-5.89,6-5.89h0.12
		c1.6,0.03,3.1,0.68,4.21,1.84s1.71,2.67,1.68,4.28c-0.06,3.25-2.75,5.89-6,5.89H99.28z"/>
	<path d="M99.39,274.65L99.39,274.65h0.11c1.47,0.03,2.84,0.63,3.86,1.69c1.02,1.06,1.56,2.45,1.54,3.92
		c-0.06,2.97-2.52,5.39-5.5,5.39h-0.11c-3.03-0.06-5.45-2.57-5.39-5.6C93.95,277.07,96.42,274.65,99.39,274.65 M99.39,273.65
		c-3.53,0-6.43,2.83-6.5,6.38c-0.07,3.59,2.79,6.55,6.37,6.62c0.04,0,0.08,0,0.13,0c3.53,0,6.43-2.83,6.5-6.38
		c0.07-3.59-2.79-6.55-6.37-6.62C99.47,273.65,99.43,273.65,99.39,273.65L99.39,273.65z"/>
</g>
<g>
	<path d="M55.03,259.99c-3.31-0.06-5.95-2.81-5.88-6.11c0.06-3.25,2.75-5.89,6-5.89h0.12c1.6,0.03,3.1,0.68,4.21,1.84
		s1.71,2.67,1.68,4.28c-0.06,3.25-2.75,5.89-6,5.89L55.03,259.99z"/>
	<path d="M55.14,248.49L55.14,248.49h0.11c1.47,0.03,2.84,0.63,3.86,1.69s1.56,2.45,1.54,3.92c-0.06,2.97-2.52,5.39-5.5,5.39h-0.11
		c-1.47-0.03-2.84-0.63-3.86-1.69s-1.56-2.45-1.54-3.92C49.7,250.9,52.17,248.49,55.14,248.49 M55.14,247.49
		c-3.53,0-6.43,2.83-6.5,6.38c-0.07,3.59,2.79,6.55,6.37,6.62c0.04,0,0.08,0,0.13,0c3.53,0,6.43-2.83,6.5-6.38
		c0.07-3.59-2.79-6.55-6.37-6.62C55.22,247.49,55.18,247.49,55.14,247.49L55.14,247.49z"/>
</g>
<g>
	<path d="M30.76,232.51c-3.31-0.06-5.95-2.81-5.88-6.11c0.06-3.25,2.75-5.89,6-5.89H31c1.6,0.03,3.1,0.68,4.21,1.84
		s1.71,2.67,1.68,4.27c-0.06,3.25-2.75,5.89-6,5.89H30.76z"/>
	<path d="M30.87,221.01L30.87,221.01h0.11c3.03,0.06,5.45,2.57,5.39,5.6c-0.06,2.97-2.52,5.39-5.5,5.39h-0.11
		c-3.03-0.06-5.45-2.57-5.39-5.6C25.43,223.42,27.9,221.01,30.87,221.01 M30.87,220.01c-3.53,0-6.43,2.83-6.5,6.38
		c-0.07,3.59,2.79,6.55,6.37,6.62c0.04,0,0.08,0,0.13,0c3.53,0,6.43-2.83,6.5-6.38c0.07-3.59-2.79-6.55-6.37-6.62
		C30.96,220.01,30.91,220.01,30.87,220.01L30.87,220.01z"/>
</g>
<g>
	<path class="st0" d="M42.17,249.72c-4.69-0.09-8.43-3.98-8.34-8.66c0.09-4.6,3.9-8.34,8.5-8.34h0.17c4.69,0.09,8.43,3.98,8.34,8.66
		c-0.09,4.6-3.9,8.34-8.49,8.34H42.17z"/>
	<path class="st0" d="M42.33,232.23v1h0.16c2.14,0.04,4.13,0.91,5.61,2.45s2.28,3.56,2.23,5.7c-0.08,4.33-3.67,7.85-8,7.85h-0.16
		c-4.41-0.08-7.93-3.74-7.85-8.15c0.08-4.33,3.67-7.85,8-7.85L42.33,232.23 M42.33,232.23c-4.89,0-8.9,3.92-8.99,8.83
		c-0.1,4.97,3.86,9.08,8.83,9.17c0.06,0,0.12,0,0.18,0c4.89,0,8.9-3.92,8.99-8.83c0.1-4.97-3.86-9.08-8.83-9.17
		C42.45,232.23,42.39,232.23,42.33,232.23L42.33,232.23z"/>
</g>
<g>
	<path class="st0" d="M22.2,218.92c-4.69-0.09-8.43-3.98-8.34-8.66c0.09-4.6,3.9-8.34,8.5-8.34h0.17c4.69,0.09,8.43,3.98,8.34,8.66
		c-0.09,4.6-3.9,8.34-8.5,8.34H22.2z"/>
	<path class="st0" d="M22.36,201.42v1h0.16c2.14,0.04,4.13,0.91,5.61,2.45c1.48,1.54,2.28,3.56,2.23,5.7
		c-0.08,4.33-3.67,7.85-8,7.85H22.2c-2.14-0.04-4.13-0.91-5.61-2.45c-1.48-1.54-2.28-3.56-2.23-5.7c0.08-4.33,3.67-7.85,8-7.85
		V201.42 M22.36,201.42c-4.89,0-8.9,3.92-8.99,8.83c-0.1,4.97,3.86,9.08,8.83,9.17c0.06,0,0.12,0,0.18,0c4.89,0,8.9-3.92,8.99-8.83
		c0.1-4.97-3.86-9.08-8.83-9.17C22.48,201.42,22.42,201.42,22.36,201.42L22.36,201.42z"/>
</g>
</svg>
