<?xml version="1.0" encoding="utf-8"?>
<!-- Generator: Adobe Illustrator 23.0.0, SVG Export Plug-In . SVG Version: 6.00 Build 0)  -->
<svg version="1.1" id="Capa_1" xmlns="http://www.w3.org/2000/svg" xmlns:xlink="http://www.w3.org/1999/xlink" x="0px" y="0px"
	 viewBox="0 0 300 300" style="enable-background:new 0 0 300 300;" xml:space="preserve">
<style type="text/css">
	.st0{fill:url(#SVGID_1_);}
	.st1{fill:url(#SVGID_2_);}
	.st2{fill:url(#SVGID_3_);}
	.st3{fill:url(#SVGID_4_);}
	.st4{fill:url(#SVGID_5_);}
	.st5{fill:url(#SVGID_6_);}
	.st6{fill:url(#SVGID_7_);}
	.st7{fill:url(#SVGID_8_);}
	.st8{fill:url(#SVGID_9_);}
	.st9{fill:url(#SVGID_10_);}
	.st10{fill:url(#SVGID_11_);}
	.st11{fill:url(#SVGID_12_);}
	.st12{fill:url(#SVGID_13_);}
	.st13{fill:url(#SVGID_14_);}
	.st14{fill:url(#SVGID_15_);}
	.st15{fill:url(#SVGID_16_);}
	.st16{fill:url(#SVGID_17_);}
	.st17{fill:url(#SVGID_18_);}
	.st18{fill:url(#SVGID_19_);}
	.st19{fill:url(#SVGID_20_);}
	.st20{fill:url(#SVGID_21_);}
	.st21{fill:url(#SVGID_22_);}
	.st22{fill:url(#SVGID_23_);}
	.st23{fill:url(#SVGID_24_);}
	.st24{fill:url(#SVGID_25_);}
	.st25{fill:url(#SVGID_26_);}
	.st26{fill:url(#SVGID_27_);}
	.st27{fill:url(#SVGID_28_);}
	.st28{fill:url(#SVGID_29_);}
	.st29{fill:url(#SVGID_30_);}
	.st30{fill:url(#SVGID_31_);}
	.st31{fill:url(#SVGID_32_);}
</style>
<g>
	
		<linearGradient id="SVGID_1_" gradientUnits="userSpaceOnUse" x1="147" y1="290" x2="165" y2="290" gradientTransform="matrix(1 0 0 -1 0 300)">
		<stop  offset="0" style="stop-color:#CCE0F4"/>
		<stop  offset="0.0641" style="stop-color:#C3DCF2"/>
		<stop  offset="0.1706" style="stop-color:#A9D2EE"/>
		<stop  offset="0.3066" style="stop-color:#80C2E7"/>
		<stop  offset="0.4649" style="stop-color:#47ACDE"/>
		<stop  offset="0.5674" style="stop-color:#1E9CD7"/>
		<stop  offset="0.8652" style="stop-color:#0075BE"/>
		<stop  offset="0.9944" style="stop-color:#005B97"/>
	</linearGradient>
	<circle class="st0" cx="156" cy="10" r="9"/>
	
		<linearGradient id="SVGID_2_" gradientUnits="userSpaceOnUse" x1="147" y1="290" x2="165" y2="290" gradientTransform="matrix(1 0 0 -1 0 300)">
		<stop  offset="0" style="stop-color:#CCE0F4"/>
		<stop  offset="0.0641" style="stop-color:#C3DCF2"/>
		<stop  offset="0.1706" style="stop-color:#A9D2EE"/>
		<stop  offset="0.3066" style="stop-color:#80C2E7"/>
		<stop  offset="0.4649" style="stop-color:#47ACDE"/>
		<stop  offset="0.5674" style="stop-color:#1E9CD7"/>
		<stop  offset="0.8652" style="stop-color:#0075BE"/>
		<stop  offset="0.9944" style="stop-color:#005B97"/>
	</linearGradient>
	<path class="st1" d="M156,2c4.41,0,8,3.59,8,8s-3.59,8-8,8s-8-3.59-8-8S151.59,2,156,2 M156,1c-4.97,0-9,4.03-9,9s4.03,9,9,9
		s9-4.03,9-9S160.97,1,156,1L156,1z"/>
</g>
<g>
	
		<linearGradient id="SVGID_3_" gradientUnits="userSpaceOnUse" x1="169" y1="287.5" x2="182" y2="287.5" gradientTransform="matrix(1 0 0 -1 0 300)">
		<stop  offset="0" style="stop-color:#FFFFFF"/>
		<stop  offset="1" style="stop-color:#000000"/>
	</linearGradient>
	<circle class="st2" cx="175.5" cy="12.5" r="6.5"/>
	
		<linearGradient id="SVGID_4_" gradientUnits="userSpaceOnUse" x1="169" y1="287.5" x2="182" y2="287.5" gradientTransform="matrix(1 0 0 -1 0 300)">
		<stop  offset="0" style="stop-color:#FFFFFF"/>
		<stop  offset="1" style="stop-color:#000000"/>
	</linearGradient>
	<path class="st3" d="M175.5,7c3.03,0,5.5,2.47,5.5,5.5s-2.47,5.5-5.5,5.5s-5.5-2.47-5.5-5.5S172.47,7,175.5,7 M175.5,6
		c-3.59,0-6.5,2.91-6.5,6.5s2.91,6.5,6.5,6.5s6.5-2.91,6.5-6.5S179.09,6,175.5,6L175.5,6z"/>
</g>
<g>
	
		<linearGradient id="SVGID_5_" gradientUnits="userSpaceOnUse" x1="186" y1="284.5" x2="199" y2="284.5" gradientTransform="matrix(1 0 0 -1 0 300)">
		<stop  offset="0" style="stop-color:#FFFFFF"/>
		<stop  offset="1" style="stop-color:#000000"/>
	</linearGradient>
	<circle class="st4" cx="192.5" cy="15.5" r="6.5"/>
	
		<linearGradient id="SVGID_6_" gradientUnits="userSpaceOnUse" x1="186" y1="284.5" x2="199" y2="284.5" gradientTransform="matrix(1 0 0 -1 0 300)">
		<stop  offset="0" style="stop-color:#FFFFFF"/>
		<stop  offset="1" style="stop-color:#000000"/>
	</linearGradient>
	<path class="st5" d="M192.5,10c3.03,0,5.5,2.47,5.5,5.5s-2.47,5.5-5.5,5.5s-5.5-2.47-5.5-5.5S189.47,10,192.5,10 M192.5,9
		c-3.59,0-6.5,2.91-6.5,6.5s2.91,6.5,6.5,6.5s6.5-2.91,6.5-6.5S196.09,9,192.5,9L192.5,9z"/>
</g>
<g>
	
		<linearGradient id="SVGID_7_" gradientUnits="userSpaceOnUse" x1="233.5" y1="257.5" x2="246.5" y2="257.5" gradientTransform="matrix(1 0 0 -1 0 300)">
		<stop  offset="0" style="stop-color:#FFFFFF"/>
		<stop  offset="1" style="stop-color:#000000"/>
	</linearGradient>
	<circle class="st6" cx="240" cy="42.5" r="6.5"/>
	
		<linearGradient id="SVGID_8_" gradientUnits="userSpaceOnUse" x1="233.5" y1="257.5" x2="246.5" y2="257.5" gradientTransform="matrix(1 0 0 -1 0 300)">
		<stop  offset="0" style="stop-color:#FFFFFF"/>
		<stop  offset="1" style="stop-color:#000000"/>
	</linearGradient>
	<path class="st7" d="M240,37c3.03,0,5.5,2.47,5.5,5.5S243.03,48,240,48s-5.5-2.47-5.5-5.5S236.97,37,240,37 M240,36
		c-3.59,0-6.5,2.91-6.5,6.5s2.91,6.5,6.5,6.5s6.5-2.91,6.5-6.5S243.59,36,240,36L240,36z"/>
</g>
<g>
	
		<linearGradient id="SVGID_9_" gradientUnits="userSpaceOnUse" x1="260.3571" y1="227.5" x2="273.3571" y2="227.5" gradientTransform="matrix(1 0 0 -1 0 300)">
		<stop  offset="0" style="stop-color:#FFFFFF"/>
		<stop  offset="1" style="stop-color:#000000"/>
	</linearGradient>
	<circle class="st8" cx="266.86" cy="72.5" r="6.5"/>
	
		<linearGradient id="SVGID_10_" gradientUnits="userSpaceOnUse" x1="260.3571" y1="227.5" x2="273.3571" y2="227.5" gradientTransform="matrix(1 0 0 -1 0 300)">
		<stop  offset="0" style="stop-color:#FFFFFF"/>
		<stop  offset="1" style="stop-color:#000000"/>
	</linearGradient>
	<path class="st9" d="M266.86,67c3.03,0,5.5,2.47,5.5,5.5s-2.47,5.5-5.5,5.5s-5.5-2.47-5.5-5.5S263.83,67,266.86,67 M266.86,66
		c-3.59,0-6.5,2.91-6.5,6.5s2.91,6.5,6.5,6.5s6.5-2.91,6.5-6.5S270.45,66,266.86,66L266.86,66z"/>
</g>
<g>
	
		<linearGradient id="SVGID_11_" gradientUnits="userSpaceOnUse" x1="245.5" y1="243" x2="263.5" y2="243" gradientTransform="matrix(1 0 0 -1 0 300)">
		<stop  offset="0" style="stop-color:#CCE0F4"/>
		<stop  offset="0.0641" style="stop-color:#C3DCF2"/>
		<stop  offset="0.1706" style="stop-color:#A9D2EE"/>
		<stop  offset="0.3066" style="stop-color:#80C2E7"/>
		<stop  offset="0.4649" style="stop-color:#47ACDE"/>
		<stop  offset="0.5674" style="stop-color:#1E9CD7"/>
		<stop  offset="0.8652" style="stop-color:#0075BE"/>
		<stop  offset="0.9944" style="stop-color:#005B97"/>
	</linearGradient>
	<circle class="st10" cx="254.5" cy="57" r="9"/>
	
		<linearGradient id="SVGID_12_" gradientUnits="userSpaceOnUse" x1="245.5" y1="243" x2="263.5" y2="243" gradientTransform="matrix(1 0 0 -1 0 300)">
		<stop  offset="0" style="stop-color:#CCE0F4"/>
		<stop  offset="0.0641" style="stop-color:#C3DCF2"/>
		<stop  offset="0.1706" style="stop-color:#A9D2EE"/>
		<stop  offset="0.3066" style="stop-color:#80C2E7"/>
		<stop  offset="0.4649" style="stop-color:#47ACDE"/>
		<stop  offset="0.5674" style="stop-color:#1E9CD7"/>
		<stop  offset="0.8652" style="stop-color:#0075BE"/>
		<stop  offset="0.9944" style="stop-color:#005B97"/>
	</linearGradient>
	<path class="st11" d="M254.5,49c4.41,0,8,3.59,8,8s-3.59,8-8,8s-8-3.59-8-8S250.09,49,254.5,49 M254.5,48c-4.97,0-9,4.03-9,9
		s4.03,9,9,9s9-4.03,9-9S259.47,48,254.5,48L254.5,48z"/>
</g>
<g>
	
		<linearGradient id="SVGID_13_" gradientUnits="userSpaceOnUse" x1="266.8571" y1="209" x2="284.8571" y2="209" gradientTransform="matrix(1 0 0 -1 0 300)">
		<stop  offset="0" style="stop-color:#CCE0F4"/>
		<stop  offset="0.0641" style="stop-color:#C3DCF2"/>
		<stop  offset="0.1706" style="stop-color:#A9D2EE"/>
		<stop  offset="0.3066" style="stop-color:#80C2E7"/>
		<stop  offset="0.4649" style="stop-color:#47ACDE"/>
		<stop  offset="0.5674" style="stop-color:#1E9CD7"/>
		<stop  offset="0.8652" style="stop-color:#0075BE"/>
		<stop  offset="0.9944" style="stop-color:#005B97"/>
	</linearGradient>
	<circle class="st12" cx="275.86" cy="91" r="9"/>
	
		<linearGradient id="SVGID_14_" gradientUnits="userSpaceOnUse" x1="266.8571" y1="209" x2="284.8571" y2="209" gradientTransform="matrix(1 0 0 -1 0 300)">
		<stop  offset="0" style="stop-color:#CCE0F4"/>
		<stop  offset="0.0641" style="stop-color:#C3DCF2"/>
		<stop  offset="0.1706" style="stop-color:#A9D2EE"/>
		<stop  offset="0.3066" style="stop-color:#80C2E7"/>
		<stop  offset="0.4649" style="stop-color:#47ACDE"/>
		<stop  offset="0.5674" style="stop-color:#1E9CD7"/>
		<stop  offset="0.8652" style="stop-color:#0075BE"/>
		<stop  offset="0.9944" style="stop-color:#005B97"/>
	</linearGradient>
	<path class="st13" d="M275.86,83c4.41,0,8,3.59,8,8s-3.59,8-8,8s-8-3.59-8-8S271.45,83,275.86,83 M275.86,82c-4.97,0-9,4.03-9,9
		s4.03,9,9,9s9-4.03,9-9S280.83,82,275.86,82L275.86,82z"/>
</g>
<g>
	
		<linearGradient id="SVGID_15_" gradientUnits="userSpaceOnUse" x1="133.33" y1="10.99" x2="151.33" y2="10.99" gradientTransform="matrix(1 0 0 -1 0 300)">
		<stop  offset="0" style="stop-color:#CCE0F4"/>
		<stop  offset="0.0641" style="stop-color:#C3DCF2"/>
		<stop  offset="0.1706" style="stop-color:#A9D2EE"/>
		<stop  offset="0.3066" style="stop-color:#80C2E7"/>
		<stop  offset="0.4649" style="stop-color:#47ACDE"/>
		<stop  offset="0.5674" style="stop-color:#1E9CD7"/>
		<stop  offset="0.8652" style="stop-color:#0075BE"/>
		<stop  offset="0.9944" style="stop-color:#005B97"/>
	</linearGradient>
	<circle class="st14" cx="142.33" cy="289.01" r="9"/>
	
		<linearGradient id="SVGID_16_" gradientUnits="userSpaceOnUse" x1="133.3282" y1="10.99" x2="151.3318" y2="10.99" gradientTransform="matrix(1 0 0 -1 0 300)">
		<stop  offset="0" style="stop-color:#CCE0F4"/>
		<stop  offset="0.0641" style="stop-color:#C3DCF2"/>
		<stop  offset="0.1706" style="stop-color:#A9D2EE"/>
		<stop  offset="0.3066" style="stop-color:#80C2E7"/>
		<stop  offset="0.4649" style="stop-color:#47ACDE"/>
		<stop  offset="0.5674" style="stop-color:#1E9CD7"/>
		<stop  offset="0.8652" style="stop-color:#0075BE"/>
		<stop  offset="0.9944" style="stop-color:#005B97"/>
	</linearGradient>
	<path class="st15" d="M142.33,280.01v1h0.16c4.41,0.08,7.93,3.74,7.85,8.15c-0.08,4.33-3.67,7.85-8,7.85h-0.16
		c-2.14-0.04-4.13-0.91-5.61-2.45s-2.28-3.56-2.23-5.7c0.08-4.33,3.67-7.85,8-7.85L142.33,280.01 M142.32,280.01
		c-4.89,0-8.9,3.92-8.99,8.83c-0.1,4.97,3.86,9.08,8.83,9.17c0.06,0,0.12,0,0.18,0c4.89,0,8.9-3.92,8.99-8.83
		c0.1-4.97-3.86-9.08-8.83-9.17C142.44,280.01,142.38,280.01,142.32,280.01L142.32,280.01z"/>
</g>
<g>
	
		<linearGradient id="SVGID_17_" gradientUnits="userSpaceOnUse" x1="117.3293" y1="12.35" x2="130.3293" y2="12.35" gradientTransform="matrix(1 0 0 -1 0 300)">
		<stop  offset="0" style="stop-color:#FFFFFF"/>
		<stop  offset="1" style="stop-color:#000000"/>
	</linearGradient>
	<circle class="st16" cx="123.83" cy="287.65" r="6.5"/>
	
		<linearGradient id="SVGID_18_" gradientUnits="userSpaceOnUse" x1="117.328" y1="12.35" x2="130.3305" y2="12.35" gradientTransform="matrix(1 0 0 -1 0 300)">
		<stop  offset="0" style="stop-color:#FFFFFF"/>
		<stop  offset="1" style="stop-color:#000000"/>
	</linearGradient>
	<path class="st17" d="M123.83,282.15L123.83,282.15h0.11c1.47,0.03,2.84,0.63,3.86,1.69c1.02,1.06,1.56,2.45,1.54,3.92
		c-0.06,2.97-2.52,5.39-5.5,5.39h-0.11c-3.03-0.06-5.45-2.57-5.39-5.6C118.39,284.57,120.86,282.15,123.83,282.15 M123.83,281.15
		c-3.53,0-6.43,2.83-6.5,6.38c-0.07,3.59,2.79,6.55,6.37,6.62c0.04,0,0.08,0,0.13,0c3.53,0,6.43-2.83,6.5-6.38
		c0.07-3.59-2.79-6.55-6.37-6.62C123.91,281.15,123.87,281.15,123.83,281.15L123.83,281.15z"/>
</g>
<g>
	
		<linearGradient id="SVGID_19_" gradientUnits="userSpaceOnUse" x1="80.5182" y1="23.18" x2="98.5182" y2="23.18" gradientTransform="matrix(1 0 0 -1 0 300)">
		<stop  offset="0" style="stop-color:#CCE0F4"/>
		<stop  offset="0.0641" style="stop-color:#C3DCF2"/>
		<stop  offset="0.1706" style="stop-color:#A9D2EE"/>
		<stop  offset="0.3066" style="stop-color:#80C2E7"/>
		<stop  offset="0.4649" style="stop-color:#47ACDE"/>
		<stop  offset="0.5674" style="stop-color:#1E9CD7"/>
		<stop  offset="0.8652" style="stop-color:#0075BE"/>
		<stop  offset="0.9944" style="stop-color:#005B97"/>
	</linearGradient>
	<circle class="st18" cx="89.52" cy="276.82" r="9"/>
	
		<linearGradient id="SVGID_20_" gradientUnits="userSpaceOnUse" x1="80.5263" y1="23.18" x2="98.53" y2="23.18" gradientTransform="matrix(1 0 0 -1 0 300)">
		<stop  offset="0" style="stop-color:#CCE0F4"/>
		<stop  offset="0.0641" style="stop-color:#C3DCF2"/>
		<stop  offset="0.1706" style="stop-color:#A9D2EE"/>
		<stop  offset="0.3066" style="stop-color:#80C2E7"/>
		<stop  offset="0.4649" style="stop-color:#47ACDE"/>
		<stop  offset="0.5674" style="stop-color:#1E9CD7"/>
		<stop  offset="0.8652" style="stop-color:#0075BE"/>
		<stop  offset="0.9944" style="stop-color:#005B97"/>
	</linearGradient>
	<path class="st19" d="M89.52,268.82L89.52,268.82h0.16c2.14,0.04,4.13,0.91,5.61,2.45s2.28,3.56,2.23,5.7
		c-0.08,4.33-3.67,7.85-8,7.85h-0.16c-2.14-0.04-4.13-0.91-5.61-2.45s-2.28-3.56-2.23-5.7C81.6,272.34,85.19,268.82,89.52,268.82
		 M89.52,267.82c-4.89,0-8.9,3.92-8.99,8.83c-0.1,4.97,3.86,9.08,8.83,9.17c0.06,0,0.12,0,0.18,0c4.89,0,8.9-3.92,8.99-8.83
		c0.1-4.97-3.86-9.08-8.83-9.17C89.63,267.82,89.58,267.82,89.52,267.82L89.52,267.82z"/>
</g>
<g>
	
		<linearGradient id="SVGID_21_" gradientUnits="userSpaceOnUse" x1="101.38" y1="16.18" x2="114.38" y2="16.18" gradientTransform="matrix(1 0 0 -1 0 300)">
		<stop  offset="0" style="stop-color:#FFFFFF"/>
		<stop  offset="1" style="stop-color:#000000"/>
	</linearGradient>
	<circle class="st20" cx="107.88" cy="283.82" r="6.5"/>
	
		<linearGradient id="SVGID_22_" gradientUnits="userSpaceOnUse" x1="101.3787" y1="16.18" x2="114.3813" y2="16.18" gradientTransform="matrix(1 0 0 -1 0 300)">
		<stop  offset="0" style="stop-color:#FFFFFF"/>
		<stop  offset="1" style="stop-color:#000000"/>
	</linearGradient>
	<path class="st21" d="M107.88,278.32L107.88,278.32h0.11c3.03,0.06,5.45,2.57,5.39,5.6c-0.06,2.97-2.52,5.39-5.5,5.39h-0.11
		c-3.03-0.06-5.45-2.57-5.39-5.6C102.44,280.74,104.91,278.32,107.88,278.32 M107.88,277.32c-3.53,0-6.43,2.83-6.5,6.38
		c-0.07,3.59,2.79,6.55,6.37,6.62c0.04,0,0.08,0,0.13,0c3.53,0,6.43-2.83,6.5-6.38c0.07-3.59-2.79-6.55-6.37-6.62
		C107.96,277.32,107.92,277.32,107.88,277.32L107.88,277.32z"/>
</g>
<g>
	
		<linearGradient id="SVGID_23_" gradientUnits="userSpaceOnUse" x1="50.85" y1="44.02" x2="63.85" y2="44.02" gradientTransform="matrix(1 0 0 -1 0 300)">
		<stop  offset="0" style="stop-color:#FFFFFF"/>
		<stop  offset="1" style="stop-color:#000000"/>
	</linearGradient>
	<circle class="st22" cx="57.35" cy="255.98" r="6.5"/>
	
		<linearGradient id="SVGID_24_" gradientUnits="userSpaceOnUse" x1="50.8487" y1="44.02" x2="63.8513" y2="44.02" gradientTransform="matrix(1 0 0 -1 0 300)">
		<stop  offset="0" style="stop-color:#FFFFFF"/>
		<stop  offset="1" style="stop-color:#000000"/>
	</linearGradient>
	<path class="st23" d="M57.35,250.48L57.35,250.48h0.11c3.03,0.06,5.45,2.57,5.39,5.6c-0.06,2.97-2.52,5.39-5.5,5.39h-0.11
		c-3.03-0.06-5.45-2.57-5.39-5.6C51.91,252.9,54.38,250.48,57.35,250.48 M57.35,249.48c-3.53,0-6.43,2.83-6.5,6.38
		c-0.07,3.59,2.79,6.55,6.37,6.62c0.04,0,0.08,0,0.13,0c3.53,0,6.43-2.83,6.5-6.38c0.07-3.59-2.79-6.55-6.37-6.62
		C57.43,249.48,57.39,249.48,57.35,249.48L57.35,249.48z"/>
</g>
<g>
	
		<linearGradient id="SVGID_25_" gradientUnits="userSpaceOnUse" x1="26.37" y1="71.49" x2="39.37" y2="71.49" gradientTransform="matrix(1 0 0 -1 0 300)">
		<stop  offset="0" style="stop-color:#FFFFFF"/>
		<stop  offset="1" style="stop-color:#000000"/>
	</linearGradient>
	<circle class="st24" cx="32.87" cy="228.51" r="6.5"/>
	
		<linearGradient id="SVGID_26_" gradientUnits="userSpaceOnUse" x1="26.3687" y1="71.49" x2="39.3713" y2="71.49" gradientTransform="matrix(1 0 0 -1 0 300)">
		<stop  offset="0" style="stop-color:#FFFFFF"/>
		<stop  offset="1" style="stop-color:#000000"/>
	</linearGradient>
	<path class="st25" d="M32.87,223.01L32.87,223.01h0.11c1.47,0.03,2.84,0.63,3.86,1.69s1.56,2.45,1.54,3.92
		c-0.06,2.97-2.52,5.39-5.5,5.39h-0.11c-1.47-0.03-2.84-0.63-3.86-1.69s-1.56-2.45-1.54-3.92C27.43,225.43,29.9,223.01,32.87,223.01
		 M32.87,222.01c-3.53,0-6.43,2.83-6.5,6.38c-0.07,3.59,2.79,6.55,6.37,6.62c0.04,0,0.08,0,0.13,0c3.53,0,6.43-2.83,6.5-6.38
		c0.07-3.59-2.79-6.55-6.37-6.62C32.96,222.01,32.91,222.01,32.87,222.01L32.87,222.01z"/>
</g>
<g>
	
		<linearGradient id="SVGID_27_" gradientUnits="userSpaceOnUse" x1="35.09" y1="56.77" x2="53.09" y2="56.77" gradientTransform="matrix(1 0 0 -1 0 300)">
		<stop  offset="0" style="stop-color:#CCE0F4"/>
		<stop  offset="0.0641" style="stop-color:#C3DCF2"/>
		<stop  offset="0.1706" style="stop-color:#A9D2EE"/>
		<stop  offset="0.3066" style="stop-color:#80C2E7"/>
		<stop  offset="0.4649" style="stop-color:#47ACDE"/>
		<stop  offset="0.5674" style="stop-color:#1E9CD7"/>
		<stop  offset="0.8652" style="stop-color:#0075BE"/>
		<stop  offset="0.9944" style="stop-color:#005B97"/>
	</linearGradient>
	<circle class="st26" cx="44.09" cy="243.23" r="9"/>
	
		<linearGradient id="SVGID_28_" gradientUnits="userSpaceOnUse" x1="35.0981" y1="56.77" x2="53.1019" y2="56.77" gradientTransform="matrix(1 0 0 -1 0 300)">
		<stop  offset="0" style="stop-color:#CCE0F4"/>
		<stop  offset="0.0641" style="stop-color:#C3DCF2"/>
		<stop  offset="0.1706" style="stop-color:#A9D2EE"/>
		<stop  offset="0.3066" style="stop-color:#80C2E7"/>
		<stop  offset="0.4649" style="stop-color:#47ACDE"/>
		<stop  offset="0.5674" style="stop-color:#1E9CD7"/>
		<stop  offset="0.8652" style="stop-color:#0075BE"/>
		<stop  offset="0.9944" style="stop-color:#005B97"/>
	</linearGradient>
	<path class="st27" d="M44.09,234.23v1h0.16c4.41,0.08,7.93,3.74,7.85,8.15c-0.08,4.33-3.67,7.85-8,7.85h-0.16
		c-4.41-0.08-7.93-3.74-7.85-8.15c0.08-4.33,3.67-7.85,8-7.85V234.23 M44.09,234.23c-4.89,0-8.9,3.92-8.99,8.83
		c-0.1,4.97,3.86,9.08,8.83,9.17c0.06,0,0.12,0,0.18,0c4.89,0,8.9-3.92,8.99-8.83c0.1-4.97-3.86-9.08-8.83-9.17
		C44.21,234.23,44.15,234.23,44.09,234.23L44.09,234.23z"/>
</g>
<g>
	
		<linearGradient id="SVGID_29_" gradientUnits="userSpaceOnUse" x1="15.67" y1="87.15" x2="33.67" y2="87.15" gradientTransform="matrix(1 0 0 -1 0 300)">
		<stop  offset="0" style="stop-color:#CCE0F4"/>
		<stop  offset="0.0641" style="stop-color:#C3DCF2"/>
		<stop  offset="0.1706" style="stop-color:#A9D2EE"/>
		<stop  offset="0.3066" style="stop-color:#80C2E7"/>
		<stop  offset="0.4649" style="stop-color:#47ACDE"/>
		<stop  offset="0.5674" style="stop-color:#1E9CD7"/>
		<stop  offset="0.8652" style="stop-color:#0075BE"/>
		<stop  offset="0.9944" style="stop-color:#005B97"/>
	</linearGradient>
	<circle class="st28" cx="24.67" cy="212.85" r="9"/>
	
		<linearGradient id="SVGID_30_" gradientUnits="userSpaceOnUse" x1="15.6781" y1="87.15" x2="33.6819" y2="87.15" gradientTransform="matrix(1 0 0 -1 0 300)">
		<stop  offset="0" style="stop-color:#CCE0F4"/>
		<stop  offset="0.0641" style="stop-color:#C3DCF2"/>
		<stop  offset="0.1706" style="stop-color:#A9D2EE"/>
		<stop  offset="0.3066" style="stop-color:#80C2E7"/>
		<stop  offset="0.4649" style="stop-color:#47ACDE"/>
		<stop  offset="0.5674" style="stop-color:#1E9CD7"/>
		<stop  offset="0.8652" style="stop-color:#0075BE"/>
		<stop  offset="0.9944" style="stop-color:#005B97"/>
	</linearGradient>
	<path class="st29" d="M24.67,203.85v1h0.16c4.41,0.08,7.93,3.74,7.85,8.15c-0.08,4.33-3.67,7.85-8,7.85h-0.16
		c-4.41-0.08-7.93-3.74-7.85-8.15c0.08-4.33,3.67-7.85,8-7.85V203.85 M24.67,203.85c-4.89,0-8.9,3.92-8.99,8.83
		c-0.1,4.97,3.86,9.08,8.83,9.17c0.06,0,0.12,0,0.18,0c4.89,0,8.9-3.92,8.99-8.83c0.1-4.97-3.86-9.08-8.83-9.17
		C24.79,203.85,24.73,203.85,24.67,203.85L24.67,203.85z"/>
</g>
<g>
	
		<linearGradient id="SVGID_31_" gradientUnits="userSpaceOnUse" x1="203" y1="278" x2="221" y2="278" gradientTransform="matrix(1 0 0 -1 0 300)">
		<stop  offset="0" style="stop-color:#CCE0F4"/>
		<stop  offset="0.0641" style="stop-color:#C3DCF2"/>
		<stop  offset="0.1706" style="stop-color:#A9D2EE"/>
		<stop  offset="0.3066" style="stop-color:#80C2E7"/>
		<stop  offset="0.4649" style="stop-color:#47ACDE"/>
		<stop  offset="0.5674" style="stop-color:#1E9CD7"/>
		<stop  offset="0.8652" style="stop-color:#0075BE"/>
		<stop  offset="0.9944" style="stop-color:#005B97"/>
	</linearGradient>
	<circle class="st30" cx="212" cy="22" r="9"/>
	
		<linearGradient id="SVGID_32_" gradientUnits="userSpaceOnUse" x1="203" y1="278" x2="221.01" y2="278" gradientTransform="matrix(1 0 0 -1 0 300)">
		<stop  offset="0" style="stop-color:#CCE0F4"/>
		<stop  offset="0.0641" style="stop-color:#C3DCF2"/>
		<stop  offset="0.1706" style="stop-color:#A9D2EE"/>
		<stop  offset="0.3066" style="stop-color:#80C2E7"/>
		<stop  offset="0.4649" style="stop-color:#47ACDE"/>
		<stop  offset="0.5674" style="stop-color:#1E9CD7"/>
		<stop  offset="0.8652" style="stop-color:#0075BE"/>
		<stop  offset="0.9944" style="stop-color:#005B97"/>
	</linearGradient>
	<path class="st31" d="M212,13l0.02,1c4.41,0.01,7.99,3.61,7.98,8.02c-0.01,4.4-3.6,7.98-8.02,7.98c-4.41-0.01-7.99-3.61-7.98-8.02
		c0.01-4.4,3.6-7.98,8-7.98V13 M212,13c-4.96,0-8.99,4.01-9,8.98s4,9.01,8.98,9.02c0.01,0,0.02,0,0.03,0c4.96,0,8.99-4.01,9-8.98
		s-4-9.01-8.98-9.02C212.02,13,212.01,13,212,13L212,13z"/>
</g>
<g id="RED">
</g>
</svg>
